<?xml version="1.0" encoding="utf-8"?>
<!-- Generator: Adobe Illustrator 25.2.1, SVG Export Plug-In . SVG Version: 6.00 Build 0)  -->
<svg version="1.1" id="Layer_1" xmlns="http://www.w3.org/2000/svg" xmlns:xlink="http://www.w3.org/1999/xlink" x="0px" y="0px"
	 viewBox="0 0 311.8 338.5" style="enable-background:new 0 0 311.8 338.5;" xml:space="preserve">
<style type="text/css">
	.st0{fill-rule:evenodd;clip-rule:evenodd;fill:#373A36;}
</style>
<path class="st0" d="M307.8,311.2v-13.5c0-0.1,0-0.1,0-0.2v-0.1h0c-0.1-0.6-0.8-1-1.6-1.3l-7.2-2.6c-0.4-0.1-0.9,0-1.2,0.2
	l-11.6-4.2l0.3-0.9l-2.6-0.9c-0.5-0.1-1.1,0-1.4,0.5l-46.2-16.8c0-0.6-0.3-1.1-0.9-1.4l-1.6-0.6l1.1-2c0.5-0.8-0.3-1.9-1.4-2.7
	l4.9-9c25.7,3.5,16.7-1.9,27.8-16.2c13.1-16.9,30.6-41.3,36.6-47.1s10.3-10,4.1-13.5c-3.8-2.2-10.9-6.3-17.1-9.6l-0.2-0.1l0,0
	c-3.8-2-7.2-3.8-9.4-4.7c-5.8-2.4-12.2,0.8-27.6-2.1c-1.8-0.3-3.4-0.7-4.8-1l0,0c-8.3-2.1-10.3-4.4-13.4-4.9h-0.1l-0.3-0.1h-0.2
	h-0.2h-1.1h-0.3h-0.2l-0.5,0.1c-4.5,0-5.6,2.4-5.6,2.4s11.3,8.6,18,16.7s15.2,19.3,11.4,22c-1.6,1.1-4.4,3.1-7.4,5.3
	c-2.1-2.9-5.4-4.7-9-4.6c-4.2,0-8.1,2.4-9.9,6.2c-1-1.3-2.2-2.4-3.6-3.3c-1.6-0.8-4.6,1-8.6,3.1l-26-23.5l0.4-0.4l-1.9-2
	c-0.4-0.4-1-0.4-1.4-0.2l-18.1-16.4l1.2-1.3L155.9,147c0.1-0.2,0.1-0.5,0.1-0.8c0.3-2.5-1.1-6.6-4.8-9.5s-5,1-8.9,2.3
	c-0.4-0.3-0.9-0.4-1.4-0.3c-2.9,0.3-8.4,2-11.4-0.9s-8.7-12.8-16-24.4c-1.8-2.9-3.3-5.9-4.7-9c0.1-1.5,0.2-2.9,0.3-4.1
	c1.1-13.6-4.7-32.3-11.1-41.8c1.4,0.7,2.5,0.9,3.1,0.5l0,0c0.1-0.1,0.2-0.1,0.2-0.2c0,0,0,0,0-0.1c0.1-0.1,0.1-0.2,0.1-0.3
	c0,0,0-0.1,0-0.1c0-0.1,0.1-0.3,0.1-0.5c0.1-2.3,0.2-4.5,0.5-6.5c0.3-0.1,0.4-0.3,0.2-0.5c5,1.4,7.4-5,11.8-13.9
	c2.2-4.1,3.2-8.7,3.1-13.4c0.9,0.6,1.6-7.1,1.3-12.5c-0.3-6.6-14.2-11-23.7-11c-11,0.3-12.7,13.5-12,24c-0.2,1.4-0.1,2.8,0.3,4.2
	c0,0.1,0,0.1,0,0.2c0.5,3,1.2,9.2,0.3,14c-0.1,0.8,0.1,1.5,0.5,2.2c-2-1.1-3.6-1.7-4.5-1.3l0,0c-0.3-2.7-2-5.1-4.4-6.4l0,0l-0.2-0.1
	l-0.6-0.3l-0.6-0.3L73,35.9c-0.2-0.1-0.5-0.2-0.7-0.3l-0.6-0.2c-0.3-0.1-0.5-0.2-0.8-0.2L70.3,35l-0.8-0.2l-0.6-0.1L68,34.5
	l-0.6-0.1l-0.9-0.2l-0.8-0.1L65,34l-1.5-0.2c-24.4,0.4-15.5,23-24.8,36.3c-0.6,0.8-1.1,1.6-1.6,2.4c-0.1,0.2-0.2,0.3-0.3,0.5
	l-1.1,1.7l-0.5,0.8c-0.2,0.4-0.5,0.8-0.7,1.2s-0.4,0.7-0.5,1l-0.5,0.9l-0.5,1l-0.4,0.8c-0.2,0.3-0.3,0.7-0.5,1s-0.2,0.4-0.3,0.7
	s-0.3,0.7-0.4,1s-0.2,0.4-0.2,0.6s-0.2,0.7-0.3,1c0,0.1-0.1,0.3-0.1,0.4l0,0c-0.7,2.5-1.1,5.2-1.2,7.8c-3.6,7.8-4.5,16.5-3.6,29.8
	c0.9,13.7,0.4,29.7-0.5,35.4c-0.4,2.6-0.9,5.6-1.3,8.2l-0.3,0.4c-0.1,0.6-0.1,1.3-0.1,2l-0.5,3.3l0.5-0.1c0,10.6,2.2,25.8,2.7,33.5
	c0.6,9.1-4.7,28.3-9.4,39s-14.1,43-14.8,59c-0.4,11-1.3,18.8-1.8,22.5c-0.1,0.2-0.2,0.5-0.3,0.7c0,0.3,0.1,0.5,0.1,0.8
	c-0.1,0.7-0.2,1.1-0.2,1.1h0.3c0.4,5.2-1.2,8.9,4.4,8.5c6.2-0.4,4-5,8.4-2.8s7.3,2.3,18,2s12.4-2.9,10-6.6
	c-2.2-3.4-5.3,0.3-13.1-2.9c2-0.4,3.9-1.1,5.7-2.1c0,0,3.5-3.8-2.5-5s-0.6-2.8-3.8-10.7s0-34.9,1.6-41.1s6.6-4.1,10.4-10
	c3.3-5.1,9.8-28.3,15.1-42.4c0.8,1,1.7,2,2.6,3.1c-0.7,16.7-2.5,44.8-3.2,60.3C46,289.2,40,298.4,40,298.4h0l-0.1,0.2
	c0.1,0,0.2,0,0.3,0c-0.9,1-1.8,2.1-2.7,3.3c-5.3,6.9-1.2,7.5,3.2,11.7s4.4,1.7,8.7,7.3c1.1,1.4,2.1,3,3.2,4.8
	c-0.2,5-0.3,8.4-0.3,8.4s0.5-0.3,1.4-0.8c0,3.2,0.9,5,5.7,4.9c3.4-0.1,4.9-1.1,6-2.2c1.8,0.5,3.6,0.8,5.5,0.9
	c2.3,0.1,4.4,0.3,6.1,0.4c4,1,9,1.2,18.7,1.3c14.7,0.2,17.2-3.3,14.1-8.5s-8,1-20.4-5.9c-2.1-1.2-4.1-2.6-6-4.2
	c-0.4-2-0.8-4.5-1.3-7.3c1.6-5.7,4.5-14.8,7.6-23.4c0.5-0.1,0.9-0.3,1.4-0.4c0.2,0.2,0.5,0.3,0.8,0.3h0.2c2.4,6.3,5.2,12.4,8.3,18.4
	c8.5,15.7,13.5,23.5,13.5,23.5h0.1l0,0h0.2h0.1h0.2h0.1h0.3h0.2h0.4h1.2c2.6,4.4,2.9,8.2,7.6,5.5c5.3-3.1,1.2-6.3,6.3-6.3
	s7.5-1.2,16.9-6.3s9.7-8.2,6-10.4c-3-1.7-4.2,1.4-9.6,2.8c0.5-0.5,0.9-1.2,1.1-1.9c0,0-16.3-16.6-26.1-33.6
	c-5.8-10.1-10.5-18.5-13.3-25c6.6-12.2,13.3-25.6,12.5-30.3c-1.2-6.6-8.7-40.8-14.5-55.9l1.1,0.2c3.8,0.7,5.9,1,6.8,0.6l0,0
	c0.1,0,0.1-0.1,0.2-0.1l0,0l0.1-0.1l0,0c0,0,0.1-0.1,0.1-0.1v-0.1V170v-0.1c0,0,0-0.1,0-0.1c0,0,0-0.1,0-0.1v-0.1c0-0.1,0-0.1,0-0.2
	l0,0c-0.1-1.2-1.2-3.2-2.5-6.4c-1.4-3.4-1.8-12.7-1.8-23.4c7.8,9,16.8,15.6,23.6,15.9c4.2,0.1,7.1-0.1,9-1c-0.3,0.6-0.2,1.2,0.2,1.7
	l18.7,16.9l0.8-0.9l17.7,15.9c-0.2,0.5-0.1,1.1,0.2,1.5l1.9,2l0.8-0.8l21.3,19.2c-9.4,1.9-13.4,3.1-18.7,0.6c-2.6-1-5.4-1.5-8.2-1.4
	h-0.1l-1.1,0.1h-0.1c-0.4,0-0.8,0.1-1.2,0.1h-0.2c-0.3,0-0.6,0.1-0.9,0.1l-0.3,0.1c-0.3,0.1-0.7,0.1-1,0.2h-0.1
	c-0.4,0.1-0.7,0.2-1.1,0.3l-0.3,0.1c-0.2,0.1-0.5,0.2-0.8,0.3l-0.3,0.1l-0.8,0.4l-0.2,0.1c-0.3,0.2-0.6,0.4-0.9,0.6l-0.3,0.2
	c-0.2,0.1-0.4,0.3-0.6,0.4l-0.3,0.3c-0.2,0.2-0.4,0.4-0.6,0.6l-0.1,0.2c-0.2,0.3-0.4,0.5-0.6,0.8c-0.1,0.1-0.1,0.2-0.2,0.3
	s-0.2,0.4-0.4,0.7s-0.1,0.2-0.2,0.4c-0.1,0.3-0.2,0.6-0.4,0.9c0,0,0,0.1,0,0.1c-0.1,0.4-0.2,0.8-0.3,1.2l-0.1,0.4
	c0,0.3-0.1,0.6-0.1,0.9c0,0.1,0,0.3,0,0.4c0,0.5,0,1,0,1.4c1.1,13.3,8.6,18.2,8.6,18.2s4,5.8,48.7,13.5l-3.6,6.5
	c-1.1-0.4-2.2-0.3-2.6,0.4l-1.1,1.9l-3.8-1.3c-2.2-0.8-4.6,5.9-2.4,6.6l2.7,1l-7.6,13.8c-13.8-4.1-28.3,3.8-32.4,17.6
	c-4.1,13.8,3.8,28.3,17.6,32.4c1.4,0.4,2.9,0.7,4.4,0.9l0.5,0.1l0.1,0c0.8,0.1,1.6,0.1,2.4,0.1s1.5,0,2.2-0.1
	c0.5,0.3,0.9,0.5,1.4,0.8l-0.4,0.2c0.4,0,0.8,0.1,1.1,0.1c13.3,6,28.9,0.7,35.9-12.1c5.2,1.1,10.4,1.7,15.7,1.9
	c26.6,1,38.9-25.3,33.6-27.3s-3,1-13.6,4.6c-9.9,3.4-23.7,0.5-34.7-3.9c-2-4.5-5.3-8.4-9.3-11.3l5.6-9.9l2.7,1c0.5,0.1,1,0,1.3-0.3
	l46.8,17c0.1,0.5,0.4,0.9,0.9,1.2l2.6,0.9l0.2-0.8l11.1,4c0,0.6,0.3,1.2,0.9,1.5l4.2,1.5v4.8c-8.4-2.8-17.5,1.8-20.3,10.2
	c-2.8,8.4,1.8,17.5,10.2,20.3c8.4,2.8,17.5-1.8,20.3-10.2C312.8,321.5,311.6,315.6,307.8,311.2L307.8,311.2z M182.3,184.4
	c-0.4-0.4-1-0.4-1.4-0.2l-17.6-15.9l0.4-0.4L145.2,151c-0.5-0.5-1.3-0.3-2.1,0.1c0.1-0.2,0.1-0.5,0.2-0.7c1.4-0.7,2.7-1.5,3.8-2.5
	c-0.1,0.4,0.1,0.8,0.4,1.1l18.5,16.8l0,0l18.1,16.4c-0.2,0.5-0.1,1.1,0.2,1.5l1.9,2l0.8-0.9l24.5,22.2c-1.2,0.6-2.5,1.1-3.8,1.5
	l-23.9-21.6l0.4-0.5L182.3,184.4z M221.6,253.3c5.3,0.9,9.8,1.6,13.7,2.2l-4.4,8.2c-1-0.2-1.9-0.1-2.2,0.5l-1.7,3l-8.8-3.1l0.5-0.9
	c0.4-0.7-0.1-1.6-1-2.4L221.6,253.3z M218.3,282.4c-3-1.1-6.2-1.7-9.5-1.8l5.8-10.4l8.8,3.1L218.3,282.4z"/>
</svg>
