<?xml version="1.0" encoding="utf-8"?>
<!-- Generator: Adobe Illustrator 25.2.1, SVG Export Plug-In . SVG Version: 6.00 Build 0)  -->
<svg version="1.1" id="Layer_1" xmlns="http://www.w3.org/2000/svg" xmlns:xlink="http://www.w3.org/1999/xlink" x="0px" y="0px"
	 viewBox="0 0 1600 912.4" style="enable-background:new 0 0 1600 912.4;" xml:space="preserve">
<style type="text/css">
	.st0{fill:#77C5D5;}
	.st1{fill:#00A499;}
	.st2{fill:#BFC0BF;}
	.st3{fill:#1D1D1B;}
	.st4{fill:#FFFFFF;}
	.st5{fill:#D0D1D1;}
	.st6{fill:#373A36;}
	.st7{fill:#FFD400;}
</style>
<path class="st0" d="M0,225v580.7h1600V0C1118,270.5,315.3-144,0,225"/>
<path class="st1" d="M0,767.2v69.2h1600V559C1234,439,0,767.2,0,767.2"/>
<path class="st2" d="M0,829.5v82.9h1600V756c0,0-461,92-1600,76"/>
<polygon class="st3" points="617,774.5 620.8,833.9 659.2,833.9 663,774.5 "/>
<path class="st3" d="M661.1,764.9h-13.4V761h-15.4v3.9h-13.4l-1.9,7.6h46L661.1,764.9z M645.8,764.9h-11.5V763h11.5V764.9z"/>
<path class="st4" d="M652.5,797.1l-1.9,1.2l-10.2-11.2l4.6,14.4l-1.8,1.2l8.3,3.7L652.5,797.1z M637.4,794.9l1.9,0.9l-1.2-9
	l-8.3,3.9l1.9,1l-4.1,14.7L637.4,794.9z M636.1,805.2v-2.2l-7.4,5.4l7.4,5.4v-2.1l14.9-3.2L636.1,805.2z"/>
<rect x="418.6" y="621" class="st5" width="144.7" height="213.6"/>
<polygon class="st6" points="572,621 410,621 418.6,561.2 563.3,561.2 "/>
<path class="st7" d="M481.4,592h18.5v20.4h-18.5V592z M460.9,592h18.3v20.4h-18.3V592z M440.5,592h18.3v20.4h-18.3V592z M422.9,592
	l-3,20.4h18.3V592H422.9z M481.4,569.8h18.5v20.1h-18.5V569.8z M460.9,569.8h18.3v20.1h-18.3V569.8z M440.5,569.8h18.3v20.1h-18.3
	V569.8z M426.1,569.8l-2.9,20.1h15.1v-20.1H426.1z M543.1,592.1v20.4h19.3l-3.2-20.4H543.1z M522.6,592.1h18.3v20.4h-18.3V592.1z
	 M543.1,569.8v20.1h15.9l-3.1-20.1L543.1,569.8L543.1,569.8z M522.6,569.8h18.3v20.1h-18.3V569.8z M502.2,592.1h18.3v20.4h-18.3
	V592.1z M502.2,569.8h18.3v20.1h-18.3V569.8z"/>
<path class="st4" d="M529.4,696.8h25.4v25.1h-25.4V696.8z M529.4,663.2h25.4v25.1h-25.4V663.2z M529.4,629.5h25.4v25.1h-25.4V629.5z
	 M495.3,696.8h25.4v25.1h-25.4V696.8z M495.3,663.2h25.4v25.1h-25.4V663.2z M495.3,629.5h25.4v25.1h-25.4V629.5z M461.3,730.2h25.4
	v25.1h-25.4V730.2z M461.3,696.8h25.4v25.1h-25.4V696.8z M461.3,663.2h25.4v25.1h-25.4V663.2z M427.3,730.2h25.3v25.1h-25.3V730.2z
	 M427.3,696.8h25.3v25.1h-25.3V696.8z M427.3,663.2h25.3v25.1h-25.3V663.2z"/>
<rect x="799" y="738" class="st5" width="161.1" height="87.4"/>
<polygon class="st6" points="969.6,738 789.3,738 799,670 960.1,670 "/>
<path class="st7" d="M803.5,705.1l-3.4,23.2h20.4v-23.2H803.5z M807.2,679.6l-3.3,22.9h16.7v-22.9H807.2z M937.3,705.1v23.2h21.5
	l-3.4-23.2H937.3z M823.6,705.1h20.4v23.2h-20.4V705.1z M823.6,679.6h20.4v22.9h-20.4V679.6z M846.3,705.1h20.4v23.2h-20.4V705.1z
	 M846.3,679.6h20.4v22.9h-20.4V679.6z M869,705.1h20.4v23.2H869V705.1z M869,679.6h20.4v22.9H869V679.6z M914.4,705.1h20.4v23.2
	h-20.4V705.1z M937.3,679.6v22.9h17.6l-3.5-22.9H937.3z M914.4,679.6h20.4v22.9h-20.4V679.6z M891.7,705.1h20.4v23.2h-20.4V705.1z
	 M891.7,679.6h20.4v22.9h-20.4V679.6z"/>
<rect x="808.5" y="747.7" class="st4" width="40.9" height="58.3"/>
<rect x="859" y="747.7" class="st4" width="40.9" height="58.3"/>
<rect x="909.6" y="747.7" class="st4" width="40.9" height="58.3"/>
</svg>
