<?xml version="1.0" encoding="utf-8"?>
<!-- Generator: Adobe Illustrator 25.2.1, SVG Export Plug-In . SVG Version: 6.00 Build 0)  -->
<svg version="1.1" id="Layer_1" xmlns="http://www.w3.org/2000/svg" xmlns:xlink="http://www.w3.org/1999/xlink" x="0px" y="0px"
	 viewBox="0 0 83 99.1" style="enable-background:new 0 0 83 99.1;" xml:space="preserve">
<style type="text/css">
	.st0{fill:#6F6F6F;}
	.st1{fill:#A5A5A5;}
	.st2{fill:#5C5C5C;}
	.st3{fill:#FFFFFF;}
</style>
<g>
	<polygon class="st0" points="3.2,6 0,31.3 83,31.3 80.5,6 76.6,6 76.6,0 67.2,0 67.1,6 	"/>
	<polygon class="st1" points="3.1,31.3 28.7,11.4 53,31.3 79.9,31.3 79.9,99.1 3.1,99.1 	"/>
	<polygon class="st2" points="72.6,27 58.7,27 58.7,16.8 65.5,10.3 72.6,16.7 	"/>
	<rect x="58.3" y="64.4" class="st3" width="15" height="16.9"/>
	<rect x="9.8" y="64.4" class="st3" width="15" height="16.9"/>
	<rect x="34.4" y="35.6" class="st3" width="14.6" height="16.9"/>
	<rect x="58.3" y="35.6" class="st3" width="15" height="16.9"/>
	<rect x="9.8" y="35.6" class="st3" width="15" height="16.9"/>
	<rect x="32.9" y="69.6" class="st3" width="17.2" height="29.4"/>
</g>
</svg>
