<svg xmlns="http://www.w3.org/2000/svg" width="99.35" height="198.77" viewBox="0 0 99.35 198.77"><path d="M10.3,82.21c.32.46.78.58,1.58.56.32,1.36.21,2,2.38,1.81.08.23.15.45.22.68a5.88,5.88,0,0,0,3.73-.45c.65.91.43,9,.68,11a49.14,49.14,0,0,1,.23,9.6c-.09,1,.45,2.31.11,3.74L17,113.85c-.67,2.07-1.35,4.14-2,6.21-.84,2.78-3.32,11.1-.91,12.88-.4,2.61-2.08,5.4-1.36,8.7.63,2.86,2.89,5.33,3.51,8.47,0,1.54.07,3.09.11,4.63.38,3.46.75,6.94,1.13,10.4.89,4.23,2.78,11.34.68,15.14-1.07,1.28-2.35,1.59-2.6,3.84-2.46-.65-3.5-4.77-6.33-5.88-.73.08-.67.15-.91.69L10,182.09c1.54,1.36,3.51,1.17,4.63,3v.11l-5.09-2.6c-.84-1-1.27-3.48-2.59-4a2.43,2.43,0,0,0,.44,1.59v.11l-.56-.34c-.07.31-.15.61-.22.91,1.63,2.28,3.26,4.95,6.32,5.75l.11.23-5.53,3.74c-1.88.61-4.89.12-6.56,1-2.76,1.72,1.45,5.4,2.83,6,3.72,1.61,11.57,1.18,15.93.46,2.37-.39,4.56.74,7.12.34,2.76-.42,6.28-.23,7.11-2.49.69-1.83-1.1-3.31-1.46-4.4v-2c-.45-1.18-.91-2.34-1.36-3.51l-1.13-.9c-.89-1.64.14-3.65-.45-5.42-.16-.48-.66-.78-.79-1.48-.85-4.45.34-9.39,1.13-12.76.26-2.15.52-4.29.79-6.44.58-3.74-1.24-9-2.26-11.75-.37-1-1.18-2.5-1-3.85.54-4.63,2.88-6.76,4.4-10.5h.34c.58.93,1.6,2,2,2.93.57,1.89,1.13,3.78,1.7,5.66l2.48,3.73c.49.87.47,1.7,1.25,2.26,1.54,1.11,4.49.84,6.66,1.25L53,150.56l8.47,4c4.67,1.9,9.86,3.06,14,5.53l2,1.34c.09.31.15.61.24.91,1.12,1.1,3,1.56,4.29,2.49.41.32.42.85.89,1.13-.24.81-1.14,1.2-1.8,1.58.07.79,2.48,2.06,3.39,2.38.28.6,0,1.76.34,2.48.9,2.28,3.37,3.55,4.18,6.11.53.18.33.09.9-.12h.11c.38.79.76,1.57,1.14,2.38.43,2.17-2.31,4.8.22,6.31,3.14,1.9,5.13-3.72,5.77-5.53.88-2.49,2.3-6.31,2.15-9.48-.09-1.54-.94-2.92-.57-4.64a38.24,38.24,0,0,0-.12-13.33c-2.61-1.4-6.88.64-8.93,1.13a9.32,9.32,0,0,1-4.62-.46c-6-1.82-10.66-6.57-15.25-10.05-1.73-1.3-3.14-3-5.32-3.84-3-1.2-13.27-2.42-14.57-4.51-1.44-2.32-1.12-5.72-.34-8.59l10.06-5.21c.52-1.28-1.12-3.09-1.7-4.18-2-3.71-2.82-8.33-5.53-11.3.06-3.53.77-8.51,0-12.43-.6-3-2.24-5-2.83-8.24V71a19.89,19.89,0,0,0,4-2.61c.5-2.58-2.42-9.66-3.27-12.31-1.07-3.35-2.55-5.8-3.73-8.58-2.22-5.26-3-8.11-6.33-12.21-1.75-2.17-4.44-3.59-6.66-5.31l-2.94-3.27C31.36,20.45,36.1,15.48,33.8,8c-1.93-6.28-11.16-10-19-6.77-1.39.57-1.54,1.87-2.59,2.59s-2,.16-2.61,1l.57,1.35c.53.32,1.77.52,2.14,1Q11,10.13,9.62,13.07c-.29,1.22.46,1.75.57,2.82L7.48,18.94c.07.35.14.68.22,1l1.81.68c.08.22.15.45.22.68a2.27,2.27,0,0,0-.56,1.24q.47.45.9.9c-.16.76-.56.91-.9,1.47.34.53.67.57.8,1.35-2.05,3.54,2.84,3.7,5.75,4.41a23.91,23.91,0,0,1,1.92,4.4c-.07,1-.14,2-.22,3,.16.39.85.41.79,1.14-.95,1.76-1.88,3.54-2.82,5.31a36.26,36.26,0,0,0-3,9.49c-.54,3.2,1.49,6.45,2.16,9,.71,2.8-.1,6.27-.46,8.81-2.49.47-6.17-1.87-8,.9C4.9,74.46,6.24,75.4,6,76.56c-.08.43-.68.58-.57,1.25s.73.67.8,1.92l.34.34c.52-.16,1-.32,1.58-.46,0,.42.07.83.1,1.24.63.3,1,.1,1.81,0C10.16,81.3,10.23,81.76,10.3,82.21ZM13.58,183v.12c-1.89-.5-4-1.42-4.41-3.39C11.15,180,12.63,181.7,13.58,183Zm.11,2.37.23.34A4.73,4.73,0,0,1,10,183.55C11.27,184.13,12.12,185.1,13.69,185.36Z" fill="#373a36" fill-rule="evenodd"/></svg>