<svg xmlns="http://www.w3.org/2000/svg" width="151.29" height="99.82" viewBox="0 0 151.29 99.82"><path d="M11.91,99.82H11c-3.39-.9-7.56-1-11-1.9,7.55,1.87,12.44-.49,18.11-2.62,21.63-8.16,41.43-18,60.27-27.88C59.64,69.75,44.73,64.54,30.73,60c-4.19,2.07-8.65,3.74-13.1,5.48s-9,4.23-14.3,4q10.83-5.86,22.16-11.2c-2.85-.9-2.49-4.33,1.19-4-2.89-4.24-6.3-8.28-9.53-12.39s-6.69-8.08-9-12.39a19.11,19.11,0,0,0,4.53-.47c7.68,5.49,15.12,11.24,23.11,16.43,1.44-2.52,2.69-8,6.91-5.48.56,3.32-.95,6.49-1.19,9.77,3.66,2.63,10.29,1.48,16.44,1.2C70.54,50.4,84,49.31,96,48.84c5.95-8,11.07-19.61,15.25-30C113.72,12.69,116,6.43,113.4,0c2.65,2.36,4.77,5.24,7.15,7.86-1.82,10.41-2.22,22.24-4.76,31.92,7.36-1,18.79-2.46,16.44,7.39A29.94,29.94,0,0,1,143.42,50c2.49,1.12,7.87,3.25,7.87,6.2s-5.41,5.22-8.1,6.19a50.88,50.88,0,0,1-11.68,2.86c-9.49,1.06-18.34-.19-27.87,1-8.19,1-16.28,5.89-23.11,7.86,5.74.92,12.22-2.8,16.44.24,3.29,2.37,2.62,9-.72,10.48s-11.68,1.28-14.77-.71C79.39,82.76,80,80,78.14,78.86c.54-.42,1.72-.19,1.67-1.19-1.27.69-4.69.16-6.67-.48A522,522,0,0,1,11.91,99.82Z" fill="#373a36" fill-rule="evenodd"/></svg>