<?xml version="1.0" encoding="utf-8"?>
<!-- Generator: Adobe Illustrator 25.2.1, SVG Export Plug-In . SVG Version: 6.00 Build 0)  -->
<svg version="1.1" id="Layer_1" xmlns="http://www.w3.org/2000/svg" xmlns:xlink="http://www.w3.org/1999/xlink" x="0px" y="0px"
	 viewBox="0 0 74 62.4" style="enable-background:new 0 0 74 62.4;" xml:space="preserve">
<style type="text/css">
	.st0{fill:#373A36;}
	.st1{fill:#91A8B6;}
	.st2{fill:#272927;}
</style>
<rect x="35.4" y="41.4" class="st0" width="8" height="21"/>
<g>
	<g>
		<g>
			<polygon class="st1" points="9.4,1.2 72.7,1 64.6,40.4 1.3,40.6 			"/>
		</g>
		<g>
			<path class="st2" d="M8.6,0.2L74,0l-8.6,41.4L0,41.6L8.6,0.2z M64.6,40.4L72.7,1L9.4,1.2L1.3,40.6L64.6,40.4"/>
		</g>
	</g>
</g>
<g>
	<g>
		<g>
			<polygon class="st2" points="27.5,0.6 28.6,0.6 20.3,41 19.2,41 			"/>
		</g>
	</g>
</g>
<g>
	<g>
		<g>
			<polygon class="st2" points="54.8,0.6 55.9,0.6 47.5,41 46.4,41 			"/>
		</g>
	</g>
</g>
<g>
	<g>
		<g>
			<polygon class="st2" points="6.4,12.8 70.6,12.6 70.4,13.6 6.2,13.8 			"/>
		</g>
	</g>
</g>
<g>
	<g>
		<g>
			<polygon class="st2" points="3.9,27.1 67.6,27 67.4,28 3.7,28.2 			"/>
		</g>
	</g>
</g>
</svg>
