<svg xmlns="http://www.w3.org/2000/svg" width="218.31" height="278.89" viewBox="0 0 218.31 278.89"><path d="M268.78,122.11c-.28-5.11-2.93-14.72-5.78-21.1a6.2,6.2,0,0,1,.71.1,49.59,49.59,0,0,0-8-17.26c3-.09,6.18-2.19,1.59-4.09-5.75-2.36-15.59-10.15-10.84-9.15S242,64.86,240,62.14s4.07-3.71-3.38-9.81-.68-12.2-6.79-12.87-1.82-7.59-10.44-4.87h0l-.39.13c-7.79,0-15.93-2-17.28,5.08s-9.48,4.41-8.47,9.82a5,5,0,0,1,.08.76s0,.08,0,.12a5.53,5.53,0,0,1,0,.71s0,.08,0,.11c0,.24-.08.48-.14.71h0c-.06.23-.14.46-.22.69a.76.76,0,0,0,0,.11c-.09.22-.18.44-.28.66a.56.56,0,0,1,0,.08c-.22.46-.47.9-.73,1.33l0,0c-.31.51-.62,1-.92,1.47-.08.12-.15.24-.22.36a2.39,2.39,0,0,0-.13.21c-.1.17-.2.34-.29.51l-.06.12-.24.49,0,.08q-.12.27-.21.54a.29.29,0,0,1,0,.09,2.66,2.66,0,0,0-.12.56h0a2.35,2.35,0,0,0,0,.59h0a2.3,2.3,0,0,0,.11.57h0a3.85,3.85,0,0,0,1.57,2,4.38,4.38,0,0,1,1.83,3.76h0c0,2.08-.85,4.5-1.31,6.91l0,.19c0,.16-.06.32-.08.48s-.06.41-.08.61,0,.23,0,.35l0,.4c0,.11,0,.22,0,.33s0,.44,0,.66l0,.24a4.26,4.26,0,0,0,.06.5,2.21,2.21,0,0,0,0,.25,5.06,5.06,0,0,0,.17.67.58.58,0,0,0,0,.14,4.53,4.53,0,0,0,.23.57l.09.2a7.73,7.73,0,0,0,.39.67c.29.41.53.81.76,1.2l.12.23c.17.29.31.58.44.85,1.25,2.64,1.31,4.64,2.12,5.87a2.48,2.48,0,0,0,.19.26l.07.09a3,3,0,0,0,.32.3l0,0a3.78,3.78,0,0,0,1.69.66c3.09.51,3.84,2.38,4.76.29-.52,5.89-1,9-1,13.14l-.35.11c-.34,6.1.68,22-1.35,24.74s-6.1,6.09-8.81,16.92a91.28,91.28,0,0,1-5.68,15.32h0c-.58,1.32-1.11,2.57-1.58,3.76,0,.1-.07.19-.1.29-.11.27-.21.54-.3.8s-.11.32-.16.48-.14.41-.2.61-.11.36-.16.54l-.15.56c0,.18-.09.35-.13.52-.08.35-.14.7-.2,1a10.05,10.05,0,0,1-.21,1,1.42,1.42,0,0,0-.05.16c-.08.27-.15.53-.24.77a1.67,1.67,0,0,0-.08.2c-.09.22-.18.44-.28.64l-.1.2c-.1.2-.2.39-.31.57l-.12.2c-.11.17-.22.35-.33.51s-.09.13-.13.19l-.36.5-.1.14c-1.55,2-3.2,3.69-3,7.14h0c0,.15,0,.29,0,.44.09.76.17,1.45.27,2.07.06.41.13.79.2,1.14l0,0c-.08.1-.16.19-.23.29l-.54.7h0c-1.61,2.2-1.81,3.52-2,6.28a4.37,4.37,0,0,1-1.12,2.13l-.45.58q-.35.44-.69.9a.86.86,0,0,1-.07.1c-.22.31-.44.62-.64,1l0,0a10.45,10.45,0,0,0-.58,1.1,11.58,11.58,0,0,0-1,5.09c-5.48,5.41-18.5,16.51-32.51,26.94a247.05,247.05,0,0,1-26.5,17.56c-1.16-.06-2.37-.08-3.59,0-4.91.21-10.1,1.92-13.9,1.92-8.16,0-8.46-1.5-11.17-3A2.13,2.13,0,0,1,82,243.22h0a3.47,3.47,0,0,0-.07-1.08v0a1.28,1.28,0,0,0-.11-.27l0,0a1.33,1.33,0,0,0-.19-.24h0a1.46,1.46,0,0,0-.3-.22h0a2.79,2.79,0,0,0-.42-.18h0a3.63,3.63,0,0,0-.56-.12h0c-.22,0-.46-.06-.74-.08-2.11-.14-3.62-.09-5.31-.11a39.85,39.85,0,0,1-6.38-.58l-.19,0-1.11-.19c-5.13,0-5.73,1.21-9.36,6-.2.27-.37.53-.53.79l-.15.26q-.15.27-.27.54l-.12.24c-.1.24-.18.48-.25.71a1.66,1.66,0,0,0-.06.21,4.7,4.7,0,0,0-.12.51,2.21,2.21,0,0,0,0,.25,4.36,4.36,0,0,0-.06.49,1.1,1.1,0,0,0,0,.18c0,.22,0,.42,0,.63v.19c0,.16,0,.31,0,.46a1,1,0,0,0,0,.17c0,.45.07.87.11,1.26,0,.11,0,.21,0,.32s0,.12,0,.18,0,.31,0,.46a.43.43,0,0,0,0,.05,1.76,1.76,0,0,1-1.23,1.77c-3,1.2-6,4.53-1.51,4.53a6.17,6.17,0,0,1,1.91.24l.1,0a2.2,2.2,0,0,1,.41.18l.09.06.25.16.1.1.17.16.08.11a1.37,1.37,0,0,1,.13.2l.06.1a2.72,2.72,0,0,1,.11.25l0,.08c0,.12.07.23.1.36s0,.06,0,.09,0,.18.05.28a1.37,1.37,0,0,0,0,.19c0,.06,0,.12,0,.18l0,.31c-2.33,2-4.34,5.07-2.06,4.76a7,7,0,0,0,2.67-1.33C57.84,269,59,271.44,62,270a6.67,6.67,0,0,1,5-.44,5.29,5.29,0,0,1,.6.21l.13.06A6.25,6.25,0,0,1,69.51,271h0a5.21,5.21,0,0,1,1.22,1.68c1.21,2.72,3.93,7.85,6.34,12.38a7,7,0,0,1,.85,2.82,5.47,5.47,0,0,1,0,1h0a5.36,5.36,0,0,1-.14.92c0,.07,0,.14,0,.21q-.1.42-.24.81a.88.88,0,0,0-.05.15q-.13.35-.27.66l-.07.18-.32.71c-.1.22-.19.42-.27.62a.47.47,0,0,0,0,.1,5.47,5.47,0,0,0-.2.56l0,.12a2,2,0,0,0-.08.52c0,1.8-9.06,8.75-4.54,10.27s5.44-.91,8.46-4.23c.9-1,1.55-1.8,2-2.35a2.85,2.85,0,0,1,.76-.69c.52-.24.67.56.83,3C84,305.28,75.26,311,81,311s10,.92,9.37-7.54c-.48-6.76-2.5-10.82-1.13-13.25l.09-.16a4.46,4.46,0,0,1,.33-.43l.07-.07.09-.08c3.54-1,7.14-2.16,10.67-3.4a3.32,3.32,0,0,1,1.66,1.38c2.12,3.32,2.12,12.38.91,13.29s-9.67,3.64-6,6.94a7.69,7.69,0,0,0,3,1.83v0l.32.07h0a4.2,4.2,0,0,0,1.27.08h.09a4.56,4.56,0,0,0,1.27-.32l0,0a6,6,0,0,0,.62-.31l0,0a8.81,8.81,0,0,0,1.33-1l0,0a13.38,13.38,0,0,0,1.37-1.42l0,0c.21-.25.43-.52.64-.8l.11-.15c.23-.3.45-.61.68-.95s.56-.79.84-1.17l.37-.48c.15-.21.31-.42.47-.62l.39-.49.52-.64.27-.33,1.2-1.47.11-.14.41-.53.21-.3L113,298c.07-.1.13-.2.19-.3s.2-.32.28-.47a3.86,3.86,0,0,0,.2-.41l.17-.34h0a4.28,4.28,0,0,0-.53-4.19c-2.72-4.23,0-5.45,5.13-7.86l.88-.37.2-.06c.2-.07.4-.14.59-.19l.24-.05.51-.09.21,0a4.52,4.52,0,0,1,.51,0h.15a3.63,3.63,0,0,1,1.2.28l.1,0,.44.23.13.09a3.89,3.89,0,0,1,.39.28l.12.1a5.36,5.36,0,0,1,.43.4l0,.05a10.88,10.88,0,0,1,1,1.18.56.56,0,0,1,0,.08c.14.19.28.4.42.61l.06.09c.63,1,1.29,2.14,2,3.4,3,5.13,4.23,11.48,3.32,16s1.21,5.74,4.83,5.12,3.62-6,1.22-12.67a18.6,18.6,0,0,1-.8-7.45c0-.68.1-1.36.17-2l0-.29c.08-.78.17-1.54.27-2.29.06-.49.12-1,.17-1.45,0-.21,0-.43.07-.63.06-.56.1-1.11.13-1.62,0-.06,0-.13,0-.19h0a8.78,8.78,0,0,0-.35-3.39,10.39,10.39,0,0,1-.29-5.69l0-.07c.06-.24.12-.48.19-.7h0a4.65,4.65,0,0,1,.87-1.65l0,0a2.17,2.17,0,0,1,.37-.32h0a1.59,1.59,0,0,1,.4-.18h0a1.07,1.07,0,0,1,.4,0h.08a1.46,1.46,0,0,1,.39.12l.11.07a2,2,0,0,1,.36.25l.06,0c.35.3.59.43.77.42,1.07,0-.31-4.83,1.61-5.38a2.09,2.09,0,0,1,1.26.13c4.23,1.5,1.2-7.24,4.23-6.65a1.1,1.1,0,0,0,.51,0c2.22-.5,1-8.18,3.45-8.18l.27,0c3,.6,4.22-10,6.33-10.57a1.19,1.19,0,0,0,.32-.15L159,241a.75.75,0,0,0,.15-.16l.06-.11a1.21,1.21,0,0,0,.09-.2l0-.12a2,2,0,0,0,.05-.24c0-.05,0-.09,0-.14a2.71,2.71,0,0,0,0-.29v-.12c0-.13,0-.25,0-.38a.2.2,0,0,1,0-.07c0-.23,0-.46-.08-.69l0-.31v0l-.06-.47a.31.31,0,0,0,0-.1l0-.4a.49.49,0,0,1,0-.12c0-.12,0-.24,0-.36v-.12l0-.34s0-.07,0-.11a3,3,0,0,1,.08-.32.31.31,0,0,0,0-.08,1.41,1.41,0,0,1,.86-.86c2.42-.9-2.72-4.53-.61-5.43s-3.92-1.51-8.15,2.41-12.69,10.88-15.72,12.38c-.18.1-.39.2-.6.29a39.67,39.67,0,0,1-13.59,3h0a8.83,8.83,0,0,1-1.08-.07h0c-1.3-.12-3-.39-5-.61a264.66,264.66,0,0,0,24.37-16.37,386.55,386.55,0,0,0,31.49-25.94,9.23,9.23,0,0,0,.89,2A9.6,9.6,0,0,0,173,208c4.85,5.93,13.42,2.15,14.72-3.77.16-.74.27-1.39.36-2,.62-4-.22-4.62,2.14-7.82,2.62-3.59,5.25-13.25-1.77-14.09,1.17-1.45,2.79-2.94,2.79-6.38a17.91,17.91,0,0,1,.41-4.08l0-.11c.06-.26.13-.51.21-.77l.06-.19c.08-.25.17-.51.26-.76,0,0,0-.07,0-.11a18.85,18.85,0,0,1,.84-1.88l0,0A110.69,110.69,0,0,1,200,155.31c1.82-2.65,3.66-5.42,5.42-8.25a53.49,53.49,0,0,1,.07,6.35v.09a3.4,3.4,0,0,1-.08.45,2.33,2.33,0,0,0-.06.49v.05a1.12,1.12,0,0,0,.08.39h0a1,1,0,0,0,.39.41c-1.6,6.19-3.26,19.87-2.6,29.1v0c0,.51.08,1,.13,1.48v0c.06.48.12,1,.18,1.39,0,0,0,.06,0,.08.06.39.12.75.19,1.11a2.21,2.21,0,0,1,0,.25c.09.38.17.74.27,1.08.29,1.06.53,1.88.71,2.54,1.3,4.57.29.75,2.52,9.42l.06.25c2.49,9.69,2.49,11.64,2.49,11.64s-.06.59-.15,1.65v.3l0,.4v.08c0,.17,0,.35,0,.53v0c0,.2,0,.41-.05.63v0c-.13,1.84-.28,4.3-.39,7.21v.08l0,1v.14l0,1V227l0,1v.19c0,.36,0,.73,0,1.09v.11c0,.83,0,1.67,0,2.53v1.68c0,.28,0,.57,0,.86v.51c0,.26,0,.53,0,.79s0,.38,0,.58,0,.49,0,.74,0,.41,0,.61,0,.51,0,.76,0,.41,0,.61,0,.53,0,.8,0,.38,0,.57,0,.62,0,.92,0,.32,0,.48c0,.47.05.94.07,1.41.86,15.86,2.84,28.9,2.84,38.81s3.12,13.59,2.83,17-6.23,1.7-6.23,6.51c0,.23,0,.45,0,.67,0,.05,0,.09,0,.14,0,.22,0,.44,0,.65v0h0v.2h0a2.44,2.44,0,0,0,0,.27v.35a.86.86,0,0,0,0,.16v.09c0,.05,0,.1,0,.15s0,.31.05.45l0,.11v0a.43.43,0,0,0,0,.11l.06.18a.32.32,0,0,0,0,.09s0,0,0,.05l.07.14a.54.54,0,0,0,.05.11l.09.16,0,0h0l0,.05a.61.61,0,0,0,.12.16l.08.1.14.15.1.08.18.15.09.06a5,5,0,0,0,.87.48l.16.07.28.1.23.08.3.09.28.08.32.08.35.08.33.06.42.08.34.06.54.08.3,0,.79.09.14,0c.69.07,1.44.13,2.27.18h.06l1.21.07h.18l1.22,0h.22l1.3,0h.25l1.41,0h4l2.06,0H230c23-.25,27.48,3.64,23.25-6.23s-3.69-19-7.37-39.67-7.08-23.22-7.08-31.16.85-10.76-1.13-15.57-1.7-7.1-1.7-7.1l.26-.27h0c.42-.45,1.34-1.47,2.55-3l0,0,.9-1.11h0l1-1.27.09-.12c.3-.38.6-.79.91-1.21l.41-.55.65-.91.49-.7.61-.88.53-.8.61-.92.54-.85c.21-.32.41-.65.62-1l.54-.89c.22-.35.43-.72.64-1.08l.52-.89c.24-.42.48-.85.71-1.28l.44-.79c.38-.71.75-1.43,1.12-2.16.92-1.83,1.79-3.67,2.6-5.54l-.36.25a55.12,55.12,0,0,0,1.72-30.31c1.5-.24,1.72-3.37,1.22-7.71,0-2.79.07-5.26-1.25-8.17a4.53,4.53,0,0,0-.31-.56l-.18-.82c0-.16-.06-.3-.1-.46,3.66-1.12,7.19-2.59,10.94-2.59C269.12,136,269.12,128.21,268.78,122.11Zm-84.51,69.37,0,0c-.12-.12-.25-.26-.37-.4l0-.06a5.85,5.85,0,0,1-.34-.48l-.06-.11c-.07-.14-.14-.28-.2-.43a1.22,1.22,0,0,1-.07-.17,3.78,3.78,0,0,1-.17-.6s0-.1,0-.15a4.89,4.89,0,0,1-.05-.55v-.23c0-.13,0-.26,0-.39.36,0,.73,0,1.15,0,1.68-.11,2.76,0,3.41-.05h.31l.12,0,.12,0,.08,0,.05,0c.05.08.1.16.14.24l.06.14a3.26,3.26,0,0,1,.15.44c0,.06,0,.12,0,.18a2.49,2.49,0,0,1,0,.46v.21a2.53,2.53,0,0,1-.06.46,2.48,2.48,0,0,1-.25.67c-1,1.87-1.14,3.2-2.06,2.5-.26-.2-.67-.45-1.12-.77h0A6.32,6.32,0,0,1,184.27,191.48Zm75.18-89.95h0Zm-.59.28h0Zm-1.15.8-.07.06Zm-.53.5-.09.1Zm-47.34-25.9a16.72,16.72,0,0,0-3.51,2.43A5.17,5.17,0,0,1,209.84,77.21Z" transform="translate(-50.6 -33.96)" fill="#373a36" fill-rule="evenodd"/></svg>