<?xml version="1.0" encoding="utf-8"?>
<!-- Generator: Adobe Illustrator 25.2.1, SVG Export Plug-In . SVG Version: 6.00 Build 0)  -->
<svg version="1.1" id="Layer_1" xmlns="http://www.w3.org/2000/svg" xmlns:xlink="http://www.w3.org/1999/xlink" x="0px" y="0px"
	 viewBox="0 0 1333.7 315.5" style="enable-background:new 0 0 1333.7 315.5;" xml:space="preserve">
<style type="text/css">
	.st0{fill:#FFFFFF;}
	.st1{fill:#D9D9D9;}
</style>
<path class="st0" d="M1143,11.5v0.4l-0.1-0.1l-23.8,28v64.1l-14.5,12v19h5.8v-16.3l14.4-12V41.8l18.1-21.3v242.9h-9.1V139h-42.1
	v44.2h-12.1V96.4l12.1,8.6v29.8h5.8v-32.7l-18.1-12.8l-0.1,0.1h-57.8v46.4h0.1v127.7h-7v-91.7h-40.3v91.7H964V60.3h-72.4v203.1
	h-10.8V146.9h-56.5v57.8h-10.9v-28.9h-56.5v62.2h-13.5V116.6h-61v121.5h-22.6v-60.4h-55v67.6h-13v-123h-58.3v55.4h-26.8v54.1h-13
	V58.5h-11.2V41h-11.8V26.2h-9.3V0h-6.7v26.2h-9.3V41h-11.8v17.5h-11.2v173.2h-13V125.6h-13.1v-16.2h-44.6v16.2h-13.1v119.7h-13
	v-67.6h-60.9v68.9h-17.3v-20.1h-60.1v-38h-23.7v-15.8h-10.5v-14.3h-32.3v14.3h-10.5v15.8H88.9V93.1H32.3v107.5H0v114.8h1333.7v-136
	l-8.3,0v-26.9h-6.7v-19.9h-24.4v19.9h-7.3v26.9h-7.5v84h-6.9V77.4h-57.8l-0.1-0.1l-18.1,12.8v87.1h5.8V93l12.1-8.6v98.8l0,0v80.2h-6
	v-80.2h-17.7V97.4h-12.2V11.5"/>
<path class="st1" d="M1325.4,179.5v-26.9h-6.6v-19.9h-24.4v19.9h-7.3v26.9h-7.5v84h-6.9V77.4h-57.8l-0.1-0.1l-18.1,12.8v87.1h5.8V93
	l12.1-8.6v98.8l0,0v80.2h-6v-80.2h-17.7V97.4h-12.2V11.5H1143v0.4l-0.1-0.1l-23.8,28v64.1l-14.5,12v19h5.8v-16.3l14.4-12V41.8
	l18.1-21.3v242.9h-9.1V139h-42.1v44.2h-12.1V96.4l12.1,8.6v29.8h5.8v-32.7l-18.1-12.8l-0.1,0.1h-57.9v46.4h0.1v127.7h-7v-91.7h-40.3
	v91.7H964V60.3h-72.4v203.1h-10.8V146.9h-56.5v57.8h-10.9v-28.9h-56.5v62.2h-13.5V116.6h-61v121.5h-22.6v-60.4h-55v67.6h-13v-123
	h-58.3v55.4h-26.8v54.1h-13V58.5h-11.2V41h-11.8V26.2h-9.3V0h-6.7v26.2h-9.3V41h-11.8v17.5h-11.2v173.2h-13V125.6h-13.1v-16.2h-44.6
	v16.2h-13.1v119.7h-13v-67.6h-60.9v68.9h-17.3v-20.1h-60.1v-38h-23.7v-15.8h-10.5v-14.3h-32.3v14.3h-10.5v15.8H88.9V93.1H32.3v107.5
	H0v114.8h1333.7v-136L1325.4,179.5z M11.9,249.9H5.6v-9.3h6.3V249.9z M11.9,233.2H5.6v-9.3h6.3V233.2z M11.9,216.5H5.6v-9.3h6.3
	V216.5z M24.3,249.9h-6.3v-9.3h6.3L24.3,249.9z M24.3,233.2h-6.3v-9.3h6.3L24.3,233.2z M24.3,216.5h-6.3v-9.3h6.3L24.3,216.5z
	 M41.2,148.5H48v8.6h-6.8V148.5z M41.2,194.6H48v8.6h-6.8V194.6z M48,249.3h-6.8v-8.6H48V249.3z M48,234h-6.8v-8.6H48V234z
	 M48,218.6h-6.8V210H48V218.6z M48,187.8h-6.8v-8.5H48V187.8z M48,172.4h-6.8v-8.5H48V172.4z M48,141.7h-6.8v-8.6H48V141.7z
	 M48,126.3h-6.8v-8.5H48V126.3z M48,110.9h-6.8v-8.5H48V110.9z M58.3,249.3h-6.8v-8.6h6.8V249.3z M58.3,234h-6.8v-8.6h6.8V234z
	 M58.3,218.6h-6.8V210h6.8V218.6z M58.3,203.2h-6.8v-8.6h6.8V203.2z M58.3,187.8h-6.8v-8.5h6.8V187.8z M58.3,172.4h-6.8v-8.5h6.8
	V172.4z M58.3,157.1h-6.8v-8.6h6.8V157.1z M58.3,141.7h-6.8v-8.6h6.8V141.7z M58.3,126.3h-6.8v-8.5h6.8V126.3z M58.3,110.9h-6.8
	v-8.5h6.8V110.9z M68.7,249.4h-6.8v-8.6h6.8V249.4z M68.7,234h-6.8v-8.6h6.8V234z M68.7,218.6h-6.8V210h6.8V218.6z M68.7,203.2h-6.8
	v-8.6h6.8V203.2z M68.7,187.8h-6.8v-8.5h6.8V187.8z M68.7,172.5h-6.8v-8.5h6.8V172.5z M68.7,157.1h-6.8v-8.6h6.8V157.1z M68.7,141.7
	h-6.8v-8.6h6.8V141.7z M68.7,126.3h-6.8v-8.6h6.8V126.3z M68.7,110.9h-6.8v-8.5h6.8V110.9z M79,249.3h-6.8v-8.6H79V249.3z M79,234
	h-6.8v-8.6H79V234z M79,218.6h-6.8V210H79V218.6z M79,203.2h-6.8v-8.6H79V203.2z M79,187.8h-6.8v-8.5H79V187.8z M79,172.5h-6.8v-8.5
	H79V172.5z M79,157.1h-6.8v-8.6H79V157.1z M79,141.7h-6.8v-8.6H79V141.7z M79,126.3h-6.8v-8.6H79V126.3z M79,110.9h-6.8v-8.5H79
	V110.9z M170.2,210h6.8v8.6h-6.8V210z M103.3,249.3h-6.8v-8.6h6.8L103.3,249.3z M103.3,234h-6.8v-8.6h6.8L103.3,234z M103.3,218.6
	h-6.8V210h6.8L103.3,218.6z M103.3,203.2h-6.8v-8.6h6.8L103.3,203.2z M113.7,249.4h-6.8v-8.6h6.8V249.4z M113.7,234h-6.8v-8.6h6.8
	V234z M113.7,218.6h-6.8V210h6.8V218.6z M113.7,203.2h-6.8v-8.6h6.8V203.2z M124,249.4h-6.8v-8.6h6.8V249.4z M124,234h-6.8v-8.6h6.8
	V234z M124,218.6h-6.8V210h6.8V218.6z M124,203.2h-6.8v-8.6h6.8V203.2z M124,188.5h-6.8V180h6.8V188.5z M134.4,249.4h-6.8v-8.6h6.8
	V249.4z M134.4,234h-6.8v-8.6h6.8V234z M134.4,218.6h-6.8V210h6.8V218.6z M134.4,203.2h-6.8v-8.6h6.8V203.2z M134.4,188.5h-6.8V180
	h6.8V188.5z M134.4,172.9h-6.8v-8.5h6.8V172.9z M146,249.4h-6.9v-8.6h6.8L146,249.4z M146,234h-6.9v-8.6h6.8L146,234z M146,218.6
	h-6.9V210h6.8L146,218.6z M146,203.2h-6.9v-8.6h6.8L146,203.2z M146,188.5h-6.9V180h6.8L146,188.5z M146,172.9h-6.9v-8.5h6.8
	L146,172.9z M156.4,249.4h-6.8v-8.6h6.8V249.4z M156.4,234h-6.8v-8.6h6.8V234z M156.4,218.6h-6.8V210h6.8V218.6z M156.4,203.2h-6.8
	v-8.6h6.8V203.2z M156.4,188.5h-6.8V180h6.8V188.5z M166.7,249.4h-6.8v-8.6h6.8V249.4z M166.7,234h-6.8v-8.6h6.8V234z M166.7,218.6
	h-6.8V210h6.8V218.6z M166.7,203.2h-6.8v-8.6h6.8V203.2z M177,249.4h-6.8v-8.6h6.8V249.4z M177,234h-6.8v-8.6h6.8V234z M177,203.2
	h-6.8v-8.6h6.8V203.2z M280.9,259.9h-6.5v-8h6.5V259.9z M280.9,243.9h-6.5v-8h6.5V243.9z M280.9,227.9h-6.5v-8h6.5V227.9z
	 M280.9,211.9h-6.5v-8h6.5V211.9z M280.9,195.9h-6.5v-8h6.5V195.9z M292.7,259.9h-6.5v-8h6.5L292.7,259.9z M292.7,227.9h-6.5v-8h6.5
	L292.7,227.9z M292.7,211.9h-6.5v-8h6.5L292.7,211.9z M304.5,243.9H298v-8h6.5V243.9z M304.5,227.9H298v-8h6.5V227.9z M304.5,211.9
	H298v-8h6.5V211.9z M304.5,195.9H298v-8h6.5V195.9z M316.3,259.9h-6.5v-8h6.5V259.9z M316.3,243.9h-6.5v-8h6.5V243.9z M316.3,227.9
	h-6.5v-8h6.5V227.9z M316.3,195.9h-6.5v-8h6.5V195.9z M353.6,259.9h-6.5v-8h6.5V259.9z M353.6,243h-6.5v-8h6.5V243z M353.6,209.3
	h-6.5v-8h6.5V209.3z M353.6,192.4h-6.5v-8h6.5V192.4z M353.6,175.5h-6.5v-8h6.5V175.5z M353.6,158.7h-6.5v-8h6.5V158.7z
	 M353.6,141.8h-6.5v-8h6.5V141.8z M365.4,243h-6.5v-8h6.5V243z M365.4,209.3h-6.5v-8h6.5V209.3z M365.4,192.4h-6.5v-8h6.5V192.4z
	 M365.4,175.5h-6.5v-8h6.5V175.5z M365.4,158.7h-6.5v-8h6.5V158.7z M365.4,141.8h-6.5v-8h6.5V141.8z M365.4,124.9h-6.5v-8h6.5V124.9
	z M377.2,259.9h-6.5v-8h6.5L377.2,259.9z M377.2,243h-6.5v-8h6.5L377.2,243z M377.2,226.1h-6.5v-8h6.5L377.2,226.1z M377.2,209.3
	h-6.5v-8h6.5L377.2,209.3z M377.2,175.5h-6.5v-8h6.5L377.2,175.5z M377.2,158.7h-6.5v-8h6.5L377.2,158.7z M377.2,141.8h-6.5v-8h6.5
	L377.2,141.8z M377.2,124.9h-6.5v-8h6.5L377.2,124.9z M389,226.1h-6.5v-8h6.5V226.1z M389,209.3h-6.5v-8h6.5V209.3z M389,175.5h-6.5
	v-8h6.5V175.5z M389,158.7h-6.5v-8h6.5V158.7z M389,124.9h-6.5v-8h6.5V124.9z M400.8,243h-6.5v-8h6.5V243z M400.8,226.1h-6.5v-8h6.5
	V226.1z M400.8,209.3h-6.5v-8h6.5V209.3z M400.8,192.4h-6.5v-8h6.5V192.4z M400.8,175.5h-6.5v-8h6.5V175.5z M400.8,158.7h-6.5v-8
	h6.5V158.7z M400.8,141.8h-6.5v-8h6.5V141.8z M437.7,259.9h-6.5v-8h6.5V259.9z M437.7,243h-6.5v-8h6.5V243z M437.7,226.1h-6.5v-8
	h6.5V226.1z M437.7,209.3h-6.5v-8h6.5V209.3z M437.7,192.4h-6.5v-8h6.5V192.4z M437.7,175.5h-6.5v-8h6.5V175.5z M437.7,141.8h-6.5
	v-8h6.5V141.8z M437.7,124.9h-6.5v-8h6.5V124.9z M437.7,108h-6.5v-8h6.5V108z M437.7,91.2h-6.5v-8h6.5V91.2z M437.7,74.3h-6.5v-8
	h6.5V74.3z M449.5,243H443v-8h6.5V243z M449.5,209.2H443v-8h6.5V209.2z M449.5,192.4H443v-8h6.5V192.4z M449.5,175.5H443v-8h6.5
	V175.5z M449.5,158.6H443v-8h6.5V158.6z M449.5,141.8H443v-8h6.5V141.8z M449.5,124.9H443v-8h6.5V124.9z M449.5,91.2H443v-8h6.5
	V91.2z M449.5,74.3H443v-8h6.5V74.3z M449.5,55.9H443v-8h6.5V55.9z M461.3,259.8h-6.6v-8h6.5L461.3,259.8z M461.3,226.1h-6.6v-8h6.5
	L461.3,226.1z M461.3,209.2h-6.6v-8h6.5L461.3,209.2z M461.3,192.4h-6.6v-8h6.5L461.3,192.4z M461.3,175.5h-6.6v-8h6.5L461.3,175.5z
	 M461.3,158.6h-6.6v-8h6.5L461.3,158.6z M461.3,141.8h-6.6v-8h6.5L461.3,141.8z M461.3,124.9h-6.6v-8h6.5L461.3,124.9z M461.3,108
	h-6.6v-8h6.5L461.3,108z M461.3,91.2h-6.6v-8h6.5L461.3,91.2z M461.3,74.3h-6.6v-8h6.5L461.3,74.3z M461.3,55.9h-6.6v-8h6.5
	L461.3,55.9z M473.1,243h-6.5v-8h6.5V243z M473.1,226.1h-6.5v-8h6.5V226.1z M473.1,192.4h-6.5v-8h6.5V192.4z M473.1,175.5h-6.5v-8
	h6.5V175.5z M473.1,158.6h-6.5v-8h6.5V158.6z M473.1,124.9h-6.5v-8h6.5V124.9z M473.1,108h-6.5v-8h6.5V108z M473.1,91.2h-6.5v-8h6.5
	V91.2z M473.1,74.3h-6.5v-8h6.5V74.3z M484.9,259.8h-6.5v-8h6.5V259.8z M484.9,243h-6.5v-8h6.5V243z M484.9,226.1h-6.5v-8h6.5V226.1
	z M484.9,209.2h-6.5v-8h6.5V209.2z M484.9,192.4h-6.5v-8h6.5V192.4z M484.9,158.6h-6.5v-8h6.5V158.6z M484.9,124.9h-6.5v-8h6.5
	V124.9z M484.9,108h-6.5v-8h6.5V108z M484.9,74.3h-6.5v-8h6.5V74.3z M518.5,242.6H512v-8h6.5V242.6z M518.5,225.4H512v-8h6.5V225.4z
	 M518.5,208.3H512v-8h6.5V208.3z M518.5,191.1H512v-8h6.5V191.1z M530.3,259.8h-6.5v-8h6.5V259.8z M530.3,242.6h-6.5v-8h6.5V242.6z
	 M530.3,225.4h-6.5v-8h6.5V225.4z M530.3,191.1h-6.5v-8h6.5V191.1z M548.2,259.8h-6.5v-8h6.5L548.2,259.8z M548.2,225.5h-6.5v-8h6.5
	L548.2,225.5z M548.2,208.3h-6.5v-8h6.5L548.2,208.3z M548.2,191.1h-6.5v-8h6.5L548.2,191.1z M548.2,173.9h-6.5v-8h6.5L548.2,173.9z
	 M548.2,156.7h-6.5v-8h6.5L548.2,156.7z M548.2,139.5h-6.5v-8h6.5L548.2,139.5z M560,242.7h-6.5v-8h6.5V242.7z M560,225.5h-6.5v-8
	h6.5V225.5z M560,208.3h-6.5v-8h6.5V208.3z M560,173.9h-6.5v-8h6.5V173.9z M560,156.7h-6.5v-8h6.5V156.7z M571.8,259.9h-6.5v-8h6.5
	V259.9z M571.8,242.7h-6.5v-8h6.5V242.7z M571.8,225.5h-6.5v-8h6.5V225.5z M571.8,191.1h-6.5v-8h6.5V191.1z M571.8,156.7h-6.5v-8
	h6.5V156.7z M571.8,139.5h-6.5v-8h6.5V139.5z M583.6,259.9h-6.5v-8h6.5V259.9z M583.6,225.5h-6.5v-8h6.5V225.5z M583.6,208.3h-6.5
	v-8h6.5V208.3z M583.6,191.1h-6.5v-8h6.5V191.1z M583.6,156.7h-6.5v-8h6.5V156.7z M583.6,139.5h-6.5v-8h6.5V139.5z M617.7,259.9
	h-6.5v-8h6.5V259.9z M617.7,227.9h-6.5v-8h6.5V227.9z M617.7,211.9h-6.5v-8h6.5V211.9z M629.5,259.9H623v-8h6.5V259.9z M629.5,243.9
	H623v-8h6.5V243.9z M629.5,227.9H623v-8h6.5V227.9z M629.5,211.9H623v-8h6.5V211.9z M629.5,195.9H623v-8h6.5V195.9z M641.3,243.9
	h-6.5v-8h6.5V243.9z M641.3,227.9h-6.5v-8h6.5V227.9z M641.3,195.9h-6.5v-8h6.5V195.9z M653.1,259.9h-6.5v-8h6.5V259.9z
	 M653.1,227.9h-6.5v-8h6.5V227.9z M653.1,211.9h-6.5v-8h6.5V211.9z M653.1,195.9h-6.5v-8h6.5V195.9z M699.8,238h-7.9V128.8h7.9V238z
	 M716.8,238h-8V128.8h7.9L716.8,238z M733.8,238h-7.9V128.8h7.9V238z M775.8,258.7h-9.2v-11.6h9.2V258.7z M775.8,237.8h-9.2v-11.6
	h9.2V237.8z M775.8,217h-9.2v-11.6h9.2V217z M775.8,196.1h-9.2v-11.6h9.2V196.1z M789.8,258.7h-9.2v-11.6h9.2V258.7z M789.8,237.8
	h-9.2v-11.6h9.2V237.8z M789.8,217h-9.2v-11.6h9.2V217z M789.8,196.1h-9.2v-11.6h9.2V196.1z M803.8,258.7h-9.2v-11.6h9.2V258.7z
	 M803.8,237.8h-9.2v-11.6h9.2V237.8z M803.8,217h-9.2v-11.6h9.2V217z M803.8,196.1h-9.2v-11.6h9.2V196.1z M843.2,258.7H834v-11.6
	h9.2V258.7z M843.2,237.8H834v-11.6h9.2V237.8z M843.2,217H834v-11.6h9.2V217z M843.2,196.1H834v-11.6h9.2V196.1z M843.2,175.4H834
	v-11.6h9.2V175.4z M857.2,258.7H848v-11.6h9.2V258.7z M857.2,237.8H848v-11.6h9.2V237.8z M857.2,217H848v-11.6h9.2V217z
	 M857.2,196.1H848v-11.6h9.2V196.1z M857.2,175.4H848v-11.6h9.2V175.4z M871.2,258.7H862v-11.6h9.2V258.7z M871.2,237.8H862v-11.6
	h9.2V237.8z M871.2,217H862v-11.6h9.2V217z M871.2,196.1H862v-11.6h9.2V196.1z M871.2,175.4H862v-11.6h9.2V175.4z M902.1,189.8h9.2
	v30.8h-9.2V189.8z M911.4,259.5h-9.2v-30.8h9.2V259.5z M911.4,181.6h-9.2v-30.8h9.2V181.6z M911.4,142.6h-9.2v-30.8h9.2V142.6z
	 M911.4,103.7h-9.2V72.9h9.2V103.7z M925.4,259.5h-9.2v-30.8h9.2V259.5z M925.4,220.5h-9.2v-30.7h9.2V220.5z M925.4,181.6h-9.2
	v-30.8h9.2V181.6z M925.4,142.6h-9.2v-30.8h9.2V142.6z M925.4,103.7h-9.2V72.9h9.2V103.7z M939.4,259.5h-9.2v-30.8h9.2L939.4,259.5z
	 M939.4,220.5h-9.2v-30.7h9.2L939.4,220.5z M939.4,181.6h-9.2v-30.8h9.2L939.4,181.6z M939.4,142.6h-9.2v-30.8h9.2L939.4,142.6z
	 M939.4,103.7h-9.2V72.9h9.2L939.4,103.7z M953.4,259.5h-9.2v-30.8h9.2V259.5z M953.4,220.5h-9.2v-30.7h9.2V220.5z M953.4,181.6
	h-9.2v-30.8h9.2V181.6z M953.4,142.6h-9.2v-30.8h9.2V142.6z M953.4,103.7h-9.2V72.9h9.2V103.7z M987.7,251.4h-6.6v-8.3h6.6V251.4z
	 M987.7,236.6h-6.6v-23.2h6.6V236.6z M987.7,205.2h-6.6v-21.4h6.6V205.2z M997.7,251.4h-6.6v-8.3h6.6L997.7,251.4z M997.7,236.6
	h-6.6v-23.2h6.6L997.7,236.6z M997.7,205.2h-6.6v-21.4h6.6L997.7,205.2z M1007.7,251.4h-6.6v-8.3h6.6L1007.7,251.4z M1007.7,236.6
	h-6.6v-23.2h6.6L1007.7,236.6z M1007.7,205.2h-6.6v-21.4h6.6L1007.7,205.2z M1038.2,233.8h-6.8v-8.6h6.8V233.8z M1038.2,218.5h-6.8
	v-8.6h6.8V218.5z M1038.2,203.1h-6.8v-8.6h6.8V203.1z M1038.2,187.7h-6.8v-8.6h6.8V187.7z M1038.2,172.3h-6.8v-8.6h6.8V172.3z
	 M1038.2,156.9h-6.8v-8.6h6.8V156.9z M1038.2,141.5h-6.8v-8.6h6.8V141.5z M1038.2,126.1h-6.8v-8.6h6.8V126.1z M1038.2,110.7h-6.8
	v-8.6h6.8V110.7z M1048.7,233.8h-6.8v-8.6h6.8V233.8z M1048.7,218.4h-6.8v-8.6h6.8V218.4z M1048.7,203h-6.8v-8.6h6.8V203z
	 M1048.7,187.6h-6.8v-8.6h6.8V187.6z M1048.7,172.2h-6.8v-8.6h6.8V172.2z M1048.7,156.8h-6.8v-8.6h6.8V156.8z M1048.7,141.4h-6.8
	v-8.6h6.8V141.4z M1048.7,126h-6.8v-8.6h6.8V126z M1048.7,110.6h-6.8v-8.6h6.8V110.6z M1059,233.8h-6.8v-8.6h6.8V233.8z M1059,218.4
	h-6.8v-8.6h6.8V218.4z M1059,203h-6.8v-8.6h6.8V203z M1059,187.6h-6.8v-8.6h6.8V187.6z M1059,172.2h-6.8v-8.6h6.8V172.2z
	 M1059,156.8h-6.8v-8.6h6.8V156.8z M1059,141.4h-6.8v-8.6h6.8V141.4z M1059,126h-6.8v-8.6h6.8V126z M1059,110.6h-6.8v-8.6h6.8V110.6
	z M1069.4,233.8h-6.8v-8.6h6.8V233.8z M1069.4,218.4h-6.8v-8.6h6.8V218.4z M1069.4,203h-6.8v-8.6h6.8V203z M1069.4,187.6h-6.8v-8.6
	h6.8V187.6z M1069.4,172.2h-6.8v-8.6h6.8V172.2z M1069.4,156.8h-6.8v-8.6h6.8V156.8z M1069.4,141.4h-6.8v-8.6h6.8V141.4z
	 M1069.4,126h-6.8v-8.6h6.8V126z M1069.4,110.6h-6.8v-8.6h6.8V110.6z M1106,233.8h-6.8v-8.6h6.8V233.8z M1106,218.4h-6.8v-8.6h6.8
	V218.4z M1106,203h-6.8v-8.6h6.8V203z M1106,187.6h-6.8v-8.6h6.8V187.6z M1106,172.2h-6.8v-8.6h6.8V172.2z M1106,155.6h-6.8V147h6.8
	V155.6z M1116.3,233.8h-6.8v-8.6h6.8V233.8z M1116.3,218.4h-6.8v-8.6h6.8V218.4z M1116.3,203h-6.8v-8.6h6.8V203z M1116.3,187.6h-6.8
	v-8.6h6.8V187.6z M1116.3,172.2h-6.8v-8.6h6.8V172.2z M1116.3,155.6h-6.8V147h6.8V155.6z M1126.7,233.8h-6.8v-8.6h6.8V233.8z
	 M1126.7,218.4h-6.8v-8.6h6.8V218.4z M1126.7,203h-6.8v-8.6h6.8V203z M1126.7,187.6h-6.8v-8.6h6.8V187.6z M1126.7,172.2h-6.8v-8.6
	h6.8V172.2z M1126.7,155.6h-6.8V147h6.8V155.6z M1176.2,104.9h6.4v7.3h-6.4V104.9z M1176.2,117.9h6.4v7.3h-6.4V117.9z M1176.2,131
	h6.4v7.3h-6.4V131z M1176.2,144.2h6.4v7.3h-6.4V144.2z M1176.2,157.2h6.4v7.3h-6.4V157.2z M1163.8,19h6.3v7.3h-6.3V19z M1163.8,32.1
	h6.3v7.3h-6.3V32.1z M1163.8,45.2h6.3v7.3h-6.3V45.2z M1163.8,58.3h6.3v7.3h-6.3V58.3z M1163.8,71.4h6.3v7.4h-6.3V71.4z
	 M1163.8,84.5h6.3v7.3h-6.3V84.5z M1163.8,104.9h6.3v7.3h-6.3V104.9z M1163.8,117.9h6.3v7.3h-6.3V117.9z M1163.8,131h6.3v7.3h-6.3
	V131z M1163.8,144.2h6.3v7.3h-6.3V144.2z M1163.8,157.2h6.3v7.3h-6.3V157.2z M1151.4,19h6.4v7.3h-6.4V19z M1151.4,32.1h6.4v7.3h-6.4
	V32.1z M1151.4,45.2h6.4v7.3h-6.4V45.2z M1151.4,58.3h6.4v7.3h-6.4V58.3z M1151.4,71.4h6.4v7.4h-6.4V71.4z M1151.4,84.5h6.4v7.3
	h-6.4V84.5z M1151.4,104.9h6.4v7.3h-6.4V104.9z M1151.4,117.9h6.4v7.3h-6.4V117.9z M1151.4,131h6.4v7.3h-6.4V131z M1151.4,144.2h6.4
	v7.3h-6.4V144.2z M1151.4,157.2h6.4v7.3h-6.4V157.2z M1151.4,170.3h6.4v7.3h-6.4V170.3z M1158.3,233.6h-6.4v-42h6.4V233.6z
	 M1163.8,170.3h6.3v7.3h-6.3V170.3z M1170.7,233.6h-6.3v-42h6.3L1170.7,233.6z M1176.2,170.3h6.4v7.3h-6.4V170.3z M1183.1,233.6
	h-6.4v-42h6.4V233.6z M1195.5,233.6h-6.3v-42h6.3V233.6z M1255.9,194.5h6.8v8.6h-6.8L1255.9,194.5z M1231.7,233.8h-6.8v-8.6h6.8
	V233.8z M1231.7,218.4h-6.8v-8.6h6.8V218.4z M1231.7,203h-6.8v-8.6h6.8V203z M1231.7,187.6h-6.8v-8.6h6.8V187.6z M1231.7,172.2h-6.8
	v-8.6h6.8V172.2z M1231.7,156.8h-6.8v-8.6h6.8V156.8z M1231.7,141.4h-6.8v-8.6h6.8V141.4z M1231.7,126h-6.8v-8.6h6.8V126z
	 M1231.7,110.6h-6.8v-8.6h6.8V110.6z M1231.7,95.3h-6.8v-8.6h6.8V95.3z M1242,233.8h-6.8v-8.6h6.8V233.8z M1242,218.4h-6.8v-8.6h6.8
	V218.4z M1242,203h-6.8v-8.6h6.8V203z M1242,187.6h-6.8v-8.6h6.8V187.6z M1242,172.2h-6.8v-8.6h6.8V172.2z M1242,156.8h-6.8v-8.6
	h6.8V156.8z M1242,141.4h-6.8v-8.6h6.8V141.4z M1242,126h-6.8v-8.6h6.8V126z M1242,110.6h-6.8v-8.6h6.8V110.6z M1242,95.3h-6.8v-8.6
	h6.8V95.3z M1252.4,233.8h-6.8v-8.6h6.8V233.8z M1252.4,218.4h-6.8v-8.6h6.8V218.4z M1252.4,203h-6.8v-8.6h6.8V203z M1252.4,187.6
	h-6.8v-8.6h6.8V187.6z M1252.4,172.2h-6.8v-8.6h6.8V172.2z M1252.4,156.8h-6.8v-8.6h6.8V156.8z M1252.4,141.4h-6.8v-8.6h6.8V141.4z
	 M1252.4,126h-6.8v-8.6h6.8V126z M1252.4,110.6h-6.8v-8.6h6.8V110.6z M1252.4,95.3h-6.8v-8.6h6.8V95.3z M1262.7,233.8h-6.8v-8.6h6.8
	V233.8z M1262.7,218.4h-6.8v-8.6h6.8V218.4z M1262.7,187.6h-6.8v-8.6h6.8V187.6z M1262.7,172.2h-6.8v-8.6h6.8V172.2z M1262.7,156.8
	h-6.8v-8.6h6.8V156.8z M1262.7,141.4h-6.8v-8.6h6.8V141.4z M1262.7,126h-6.8v-8.6h6.8V126z M1262.7,110.6h-6.8v-8.6h6.8V110.6z
	 M1262.7,95.3h-6.8v-8.6h6.8V95.3z M1291.7,243.1h-5.7v-7.7h5.7V243.1z M1291.7,229.3h-5.7v-7.7h5.7V229.3z M1291.7,215.6h-5.7v-7.7
	h5.7V215.6z M1291.7,201.8h-5.7v-7.7h5.7V201.8z M1307.9,139.5h5.7v7.7h-5.7V139.5z M1299.2,139.5h5.7v7.7h-5.7V139.5z
	 M1300.3,243.1h-5.7v-7.7h5.7V243.1z M1300.3,229.3h-5.7v-7.7h5.7V229.3z M1300.3,215.6h-5.7v-7.7h5.7V215.6z M1300.3,201.8h-5.7
	v-7.7h5.7V201.8z M1300.3,180.3h-5.7v-7.7h5.7V180.3z M1300.3,166.5h-5.7v-7.7h5.7V166.5z M1308.9,243.1h-5.7v-7.7h5.7V243.1z
	 M1308.9,229.3h-5.7v-7.7h5.7V229.3z M1308.9,215.6h-5.7v-7.7h5.7V215.6z M1308.9,201.8h-5.7v-7.7h5.7V201.8z M1308.9,180.3h-5.7
	v-7.7h5.7V180.3z M1308.9,166.5h-5.7v-7.7h5.7V166.5z M1317.6,243.1h-5.7v-7.7h5.7V243.1z M1317.6,229.3h-5.7v-7.7h5.7V229.3z
	 M1317.6,215.6h-5.7v-7.7h5.7V215.6z M1317.6,201.8h-5.7v-7.7h5.7V201.8z M1317.6,180.3h-5.7v-7.7h5.7V180.3z M1317.6,166.5h-5.7
	v-7.7h5.7V166.5z M1326.2,243.1h-5.7v-7.7h5.7V243.1z M1326.2,229.3h-5.7v-7.7h5.7V229.3z M1326.2,215.6h-5.7v-7.7h5.7V215.6z
	 M1326.2,201.8h-5.7v-7.7h5.7V201.8z"/>
</svg>
