<svg xmlns="http://www.w3.org/2000/svg" width="460.37" height="245.27" viewBox="0 0 460.37 245.27"><path d="M632.11,469.87c3.66-33.27-9.51-79-22.68-90.4-16.58-14.34-46.59-21.55-77.53-36.76-55.56-27.28-74.29-62.16-134-80.2-19.27-5.83-168.79-4-179.54,8.06-28.64,32.21-54.13,148.7-43.57,204.46,5.31,28.05,18.92,19.46,18.92,14.19a65.46,65.46,0,1,1,129.1,15.35h160.1a64.7,64.7,0,0,1-1.83-15.35,65.46,65.46,0,0,1,130.92,0c0,1.95.63,8.15,3.68,8.33C620.91,497.85,630,488.72,632.11,469.87ZM477.67,339.31c-66.06-6.88-217.83-9.1-217.83-9.1.05-13.25,5.11-47.15,11-52,5.44-4.54,81.7-4.28,106-4C421.65,274.59,504.14,342.07,477.67,339.31Z" transform="translate(-172.36 -259.3)"/></svg>