<?xml version="1.0" encoding="utf-8"?>
<!-- Generator: Adobe Illustrator 25.2.1, SVG Export Plug-In . SVG Version: 6.00 Build 0)  -->
<svg version="1.1" id="Layer_1" xmlns="http://www.w3.org/2000/svg" xmlns:xlink="http://www.w3.org/1999/xlink" x="0px" y="0px"
	 viewBox="0 0 1386.2 107.5" style="enable-background:new 0 0 1386.2 107.5;" xml:space="preserve">
<style type="text/css">
	.st0{fill:#FFFFFF;}
</style>
<polygon class="st0" points="1313.9,24.9 1285,14.5 1256.2,24.9 1256.2,30.8 1209.5,30.8 1209.5,36.1 1214,36.1 1214,94.3 
	1356.1,94.3 1356.1,36.1 1360.6,36.1 1360.6,30.8 1313.9,30.8 "/>
<path d="M1313.9,24.9L1285,14.5l-28.9,10.4v5.9h-46.6v5.4h4.5v58.2h64V69h14.2v25.3h64V36.1h4.5v-5.4H1314L1313.9,24.9z
	 M1230.4,81.9h-10.3V70.1h10.3V81.9z M1230.4,55.7h-10.3V43.9h10.3V55.7z M1248.1,81.9h-10.3V70.1h10.3V81.9z M1248.1,55.7h-10.3
	V43.9h10.3V55.7z M1272.6,81.9h-10.3V69h10.3V81.9z M1272.6,55.7h-10.3V43.9h10.3V55.7z M1290.2,55.7h-10.3V43.9h10.3V55.7z
	 M1339.7,43.9h10.3v11.8h-10.3V43.9z M1339.7,70.1h10.3v11.8h-10.3V70.1z M1322,43.9h10.3v11.8H1322V43.9z M1322,70.1h10.3v11.8
	H1322V70.1z M1307.8,81.9h-10.3V69h10.3V81.9z M1307.8,55.7h-10.3V43.9h10.3V55.7z"/>
<polygon class="st0" points="76.1,36.2 68.7,36.2 68.7,42.5 55,28.8 18.8,65 23.7,70 28.2,65.5 28.2,94.3 81.8,94.3 81.8,65.5 
	86.3,70 91.3,65 76.1,49.8 "/>
<path d="M28.2,69.7v24.5h20.2V70.8h13.2v23.5h20.2V69.7L55,42.9L28.2,69.7z M43.5,82.7h-9.6v-12h9.6V82.7z M66.6,70.7h9.6v12h-9.6
	V70.7z"/>
<polygon points="76.1,36.2 68.7,36.2 68.7,42.5 55,28.8 18.8,65 23.7,70 55,38.7 86.3,70 91.3,65 76.1,49.8 "/>
<polygon class="st0" points="610.6,36.4 603.3,36.4 603.3,42.6 589.7,29 553.5,65.1 558.5,70.1 563,65.6 563,94.3 616.4,94.3 
	616.4,65.6 620.9,70.1 625.8,65.1 610.6,50 "/>
<path d="M563,69.8v24.5h20.2V70.9h13.1v23.4h20.2V69.8l-26.7-26.7L563,69.8z M578.1,82.8h-9.5V70.9h9.5V82.8z M601.2,70.9h9.5v11.9
	h-9.5L601.2,70.9z"/>
<polygon points="610.6,36.4 603.3,36.4 603.3,42.6 589.7,29 553.5,65.1 558.5,70.1 589.7,38.9 620.9,70.1 625.8,65.1 610.6,50 "/>
<polygon class="st0" points="172.5,43.5 172.5,30 164.6,30 164.6,37.9 149.8,27.5 109.8,55.3 112.4,59 113.3,60.3 115.1,59 
	116.9,57.8 116.9,94.3 215.1,94.3 215.1,58.7 218.9,58.7 218.9,51.9 184.4,51.9 "/>
<path d="M149.8,38.8l-32.8,22.8v32.6h25.6V68.5H157v25.8h58.1V61.9h-32.6L149.8,38.8z M136.1,81.6h-10.5V68.5h10.5V81.6z M142.3,61
	c0.2-4.2,3.6-7.4,7.8-7.3c3.9,0.1,7.1,3.3,7.3,7.3H142.3z M173.9,81.6h-10.5V68.5h10.5V81.6z M197.1,68.5h10.5v13.1h-10.5V68.5z
	 M190.8,81.6h-10.5V68.5h10.5V81.6z"/>
<polygon points="172.5,43.5 172.5,30 164.6,30 164.6,37.9 149.8,27.5 109.8,55.3 112.4,59 113.3,60.3 115.1,59 149.8,34.9 
	164.6,45.3 167.4,47.3 183.5,58.7 218.9,58.7 218.9,51.9 184.4,51.9 "/>
<polygon class="st0" points="391.5,47.8 395.4,51 398.3,47.5 384,35.6 384,25.1 378.1,25.1 378.1,30.7 366.3,20.9 334.3,47.5 
	337.2,51 341,47.9 341,94.3 417.2,94.3 417.2,61.9 419.4,61.9 419.4,59.3 391.5,59.3 "/>
<path d="M391.5,51l-25.2-20.9L341,51.2v43.1h19.9v-20h11.2v20h45.1V61.9h2.2v-2.7h-27.9V51z M355.9,84.4h-8.1V74.2h8.1L355.9,84.4z
	 M355.9,64.4h-8.1V54.2h8.1L355.9,64.4z M370.6,64.4h-8.2V54.2h8.2V64.4z M366.5,47.6c-2.4,0-4.4-2-4.4-4.4c0-2.4,2-4.4,4.4-4.4
	c2.4,0,4.4,2,4.4,4.4c0,0,0,0,0,0C370.9,45.7,368.9,47.6,366.5,47.6C366.5,47.6,366.5,47.6,366.5,47.6z M385.2,84.4H377V74.2h8.2
	V84.4z M385.2,64.4H377V54.2h8.2V64.4z M412,62h2.5v6.4H412V62z M411.4,84.5h-8.2V74.2h8.2V84.5z M406.9,62h2.5v6.4h-2.5V62z
	 M401.8,62h2.5v6.4h-2.5L401.8,62z M396.6,62h2.5v6.4h-2.5V62z M391.5,62h2.5v6.4h-2.5V62z M398.3,74.3v10.2h-8.2V74.2L398.3,74.3z"
	/>
<polygon points="378.1,36.7 378.6,37 395.4,51 398.3,47.5 384,35.6 384,25.1 378.1,25.1 378.1,30.7 366.3,20.9 334.3,47.5 337.2,51 
	366.3,26.9 "/>
<polygon class="st0" points="1074.4,43.8 1078.7,47.3 1081.8,43.5 1066.3,30.5 1066.3,19.1 1059.9,19.1 1059.9,25.2 1047.1,14.6 
	1012.4,43.5 1015.5,47.3 1019.6,43.9 1019.6,94.3 1102.3,94.3 1102.3,59.2 1104.7,59.2 1104.7,56.3 1074.4,56.3 "/>
<polygon points="1059.9,31.7 1060.4,32.1 1078.7,47.3 1081.8,43.5 1066.3,30.5 1066.3,19.1 1059.9,19.1 1059.9,25.2 1047.1,14.6 
	1012.4,43.5 1015.5,47.3 1047.1,21 "/>
<path d="M1074.4,47.3l-27.3-22.7l-27.5,22.9v46.8h21.6V72.5h12.2v21.8h49V59.2h2.4v-2.9h-30.3L1074.4,47.3z M1035.8,83.6h-8.9V72.5
	h8.9V83.6z M1035.8,61.9h-8.9V50.8h8.9V61.9z M1051.7,61.9h-8.9V50.8h8.9V61.9z M1047.3,43.6c-2.6,0-4.8-2.1-4.8-4.8
	s2.1-4.8,4.8-4.8c2.6,0,4.8,2.1,4.8,4.8c0,0,0,0,0,0C1052.1,41.5,1049.9,43.6,1047.3,43.6C1047.3,43.6,1047.3,43.6,1047.3,43.6z
	 M1067.6,83.6h-8.9V72.5h8.9V83.6z M1067.6,61.9h-8.9V50.8h8.9V61.9z M1096.8,59.2h2.7v6.9h-2.7L1096.8,59.2z M1096.1,83.6h-8.9
	V72.5h8.9V83.6z M1091.2,59.2h2.7v6.9h-2.7V59.2z M1085.6,59.2h2.7v6.9h-2.7V59.2z M1080,59.2h2.7v6.9h-2.7L1080,59.2z M1074.5,59.2
	h2.7v6.9h-2.7V59.2z M1081.9,72.6v11.1h-8.9V72.5L1081.9,72.6z"/>
<polygon class="st0" points="301,43.1 304.9,45.9 307.6,42 293.3,31.9 293.3,20.4 287.4,20.4 287.4,27.6 275.5,19.1 243.3,42 
	246.1,45.9 249.9,43.1 249.9,60.9 238.3,68.8 240.8,72.6 243.6,70.7 243.6,94.3 307.3,94.3 307.3,70.7 310.1,72.6 312.6,68.8 
	301,60.9 "/>
<path d="M301,46.2l-25.5-18.2l-25.5,18.2v14.6l-11.6,8l2.6,3.8l2.7-1.9v23.6h26.2V74h11.4v20.3h26.2V70.7l2.7,1.9l2.6-3.8l-11.6-8
	L301,46.2z M263.6,84.3h-13V74h13V84.3z M264.8,58.1h-8.2V47.8h8.2L264.8,58.1z M279.6,58.1h-8.2V47.8h8.2V58.1z M286.2,47.8h8.2
	v10.3h-8.3L286.2,47.8z M301.6,74v10.3h-14.3V74H301.6z"/>
<polygon points="249.9,43.1 268.8,29.7 275.5,25 275.5,25 301,43.1 304.9,45.9 307.6,42 293.3,31.9 293.3,20.4 287.4,20.4 
	287.4,27.6 275.5,19.1 243.3,42 246.1,45.9 "/>
<polygon class="st0" points="1179.8,61.2 1179.8,43.7 1183.7,46.4 1186.4,42.5 1172.3,32.5 1172.3,21.1 1166.4,21.1 1166.4,28.3 
	1154.6,19.9 1122.7,42.5 1125.5,46.4 1129.3,43.7 1129.3,61.2 1117.8,69.1 1120.3,72.8 1123,70.9 1123,94.3 1186.1,94.3 
	1186.1,70.9 1188.8,72.8 1191.4,69.1 "/>
<path d="M1179.8,46.7l-25.3-18l-25.3,18v14.5l-11.5,7.9l2.5,3.7l2.7-1.9v23.3h25.9V74.2h11.3v20.1h25.9V71l2.7,1.9l2.5-3.7
	l-11.5-7.9L1179.8,46.7z M1142.8,84.4h-12.9V74.2h12.9V84.4z M1143.9,58.4h-8.2V48.2h8.2V58.4z M1158.6,58.4h-8.2V48.2h8.2V58.4z
	 M1165.1,48.2h8.2v10.2h-8.2V48.2z M1180.4,74.2v10.2h-14.1V74.2L1180.4,74.2z"/>
<polygon points="1129.3,43.7 1148,30.3 1154.6,25.6 1154.7,25.7 1179.8,43.7 1183.7,46.4 1186.4,42.5 1172.3,32.5 1172.3,21.1 
	1166.4,21.1 1166.4,28.3 1154.6,19.9 1122.7,42.5 1125.5,46.4 "/>
<polygon class="st0" points="484.5,32.7 484.5,22.8 478.4,22.8 478.4,28.6 466.2,18.5 433.2,46 436.2,49.6 440.1,46.4 440.1,94.3 
	537.3,94.3 537.3,58.8 541.3,58.8 519.2,32.7 "/>
<rect x="498.5" y="75.5" width="28.6" height="18.8"/>
<polygon points="466.2,24.6 490.6,45 493.2,47.1 496.2,49.6 499.2,46 484.5,33.7 484.5,22.8 478.4,22.8 478.4,28.6 466.2,18.5 
	433.2,46 436.2,49.6 440.1,46.4 "/>
<path d="M490.7,48.3L466.2,28l-26.1,21.7v44.5h20.5V73.5h11.6v20.7h24.2V73.5h32.9v20.7h8V61.4h-46.6V48.3z M455.5,94.3h-8.4V73.5
	h8.4V94.3z M455.5,63.4h-8.4V52.9h8.4V63.4z M470.6,63.4h-8.4V52.9h8.4V63.4z M466.4,46.1c-2.5,0-4.6-2-4.6-4.5s2-4.6,4.5-4.6
	s4.6,2,4.6,4.5c0,0,0,0,0,0C470.9,44.1,468.9,46.1,466.4,46.1L466.4,46.1z M485.8,94.3h-8.4V73.5h8.4V94.3z M485.8,63.4h-8.4V52.9
	h8.4V63.4z"/>
<polygon points="487.3,32.7 500.9,44 502.9,45.6 501.2,47.6 498.2,51.2 496.5,53.2 494.6,51.6 493.2,50.5 493.2,58.8 541.3,58.8 
	519.2,32.7 "/>
<polygon class="st0" points="696.2,39.8 700.2,39.8 700.2,34.4 691.5,30 645.3,30 636.7,34.4 636.7,39.8 640.6,39.8 640.6,94.3 
	729.2,94.3 729.2,69.9 731,69.9 731,57 728.4,57 728.4,48.8 731,48.8 731,45.8 696.2,45.8 "/>
<path d="M696.2,39.8h3.9v-5.4l-8.6-4.4h-46.2l-8.6,4.4v5.4h3.9v54.5h39.8V69.9h13.7v24.3h14.1V69.9h16.3v24.3h4.7V69.9h1.7V57.1
	h-2.5v-8.2h2.5v-3.1h-34.7V39.8z M656.4,82.3h-9.9V69.9h9.9V82.3z M656.4,57.1h-9.9V45.8h9.9V57.1z M673.4,82.3h-9.9V69.9h9.9V82.3z
	 M673.4,57.1h-9.9V45.8h9.9V57.1z M690.4,57.1h-9.9V45.8h9.9V57.1z M722,48.9h3.4v8.2H722L722,48.9z M715.5,48.9h3.4v8.2h-3.4V48.9z
	 M709.1,48.9h3.4v8.2h-3.4V48.9z M702.6,48.9h3.4v8.2h-3.4V48.9z M699.5,48.9v8.2h-3.3v-8.2H699.5z"/>
<polygon class="st0" points="843,34.2 843,28.4 840.5,26.3 840.5,17.8 835.7,17.8 835.7,22.3 829.2,16.9 815.4,28.4 815.4,34.2 
	801.7,34.2 801.7,28.4 788,16.9 781.5,22.3 781.5,17.8 776.7,17.8 776.7,26.3 774.2,28.4 774.2,34.2 769.8,34.2 753.7,55.5 
	756.6,55.5 756.6,94.3 860.5,94.3 860.5,55.5 863.4,55.5 847.3,34.2 "/>
<rect x="803.2" y="76.3" width="10.8" height="18"/>
<path d="M843,34.2v-5.8l-2.5-2.1v-8.5h-4.8v4.5l-6.4-5.4l-13.8,11.5v5.8h-13.7v-5.8L788,16.9l-6.6,5.5v-4.5h-4.8v8.6l-2.5,2v5.8
	h-4.4l-16.1,21.3h2.9v38.8h8.8V76.6h8.2v17.7h7.5V76.6h8.2v17.7h9.2V66.8c1.1-5.6,6.6-9.2,12.2-8c4.1,0.8,7.2,4,8,8v27.5h9.2V76.6
	h8.2v17.7h7.5V76.6h8.2v17.7h8.8V55.5h2.9l-16.1-21.3H843z M773.6,70.4h-8.2V59.7h8.2V70.4z M789.3,70.4h-8.2V59.7h8.2V70.4z
	 M792,40.6h-8.2V29.9h8.2V40.6z M825.1,40.6V29.9h8.2v10.7H825.1z M836.1,70.4h-8.2V59.7h8.2V70.4z M851.7,70.4h-8.2V59.7h8.2V70.4z
	"/>
<polygon class="st0" points="946.3,20.7 949.2,22.1 951.7,17.1 916.7,0 881.7,17.1 884.2,22.1 887.1,20.7 887.1,94.3 989.6,94.3 
	989.6,36 994.1,36 994.1,30.5 946.3,30.5 "/>
<path d="M946.3,20.7l2.9,1.4l2.5-5L916.7,0l-35,17.1l2.5,5l2.9-1.4v73.6h22.3V69.6h14.5v24.6h65.6V36h4.6v-5.5h-47.8V20.7z
	 M903.9,82.9h-10.6V69.6h10.6V82.9z M903.9,56h-10.6V43.9h10.6V56z M903.9,33.9h-10.6V21.8h10.6V33.9z M922,56h-10.6V43.9H922V56z
	 M922,33.9h-10.6V21.8H922V33.9z M972.7,43.9h10.6V56h-10.6V43.9z M972.7,70.8h10.6v12.1h-10.6V70.8z M954.6,43.9h10.6V56h-10.6
	V43.9z M954.6,70.8h10.6v12.1h-10.6V70.8z M940,82.9h-10.6V69.6H940V82.9z M940,56h-10.6V43.9H940V56z M940,33.9h-10.6V21.8H940
	V33.9z"/>
</svg>
