<svg xmlns="http://www.w3.org/2000/svg" width="200" height="200" viewBox="0 0 200 200"><path d="M13.78,49.33,49.33,13.78c-.5.29-1,.59-1.51.9L14.68,47.82C14.37,48.32,14.07,48.83,13.78,49.33Z" transform="translate(0)"/><path d="M9,58.6,58.6,9l-1.13.53-48,48C9.3,57.84,9.12,58.22,9,58.6Z" transform="translate(0)"/><path d="M5.9,66.09,66.09,5.9l-1,.35L6.25,65.13Z" transform="translate(0)"/><path d="M3.79,72.64,72.64,3.79,71.78,4,4,71.78C4,72.07,3.87,72.35,3.79,72.64Z" transform="translate(0)"/><path d="M2.31,78.56,78.56,2.31l-.77.17L2.48,77.79C2.42,78,2.37,78.3,2.31,78.56Z" transform="translate(0)"/><path d="M1.27,84,84,1.27l-.73.12L1.39,83.31Z" transform="translate(0)"/><path d="M.66,88.49c0,.22-.05.45-.07.68L89.17.59l-.68.07Z" transform="translate(0)"/><path d="M.18,94,94,.18l-.6,0-.35.31L.22,93.37C.21,93.58.2,93.8.18,94Z" transform="translate(0)"/><path d="M0,98.62,98.62,0h-.54L97.5.53,0,98C0,98.21,0,98.41,0,98.62Z" transform="translate(0)"/><path d="M.05,103,103,.05l-.52,0-.56.5L0,102.44C0,102.64,0,102.83.05,103Z" transform="translate(0)"/><path d="M.26,107.26l107-107-.53,0-.34.3L.23,106.69Z" transform="translate(0)"/><path d="M.58,110.78l.06.54L111.32.64l-.54-.06Z" transform="translate(0)"/><path d="M1.16,115.25,115.25,1.16l-.53-.08L1.08,114.72C1.11,114.89,1.13,115.07,1.16,115.25Z" transform="translate(0)"/><path d="M1.82,119,119,1.82l-.51-.1L1.72,118.52C1.75,118.69,1.78,118.86,1.82,119Z" transform="translate(0)"/><path d="M2.59,122.7,122.7,2.59l-.5-.11L2.48,122.2C2.51,122.37,2.55,122.53,2.59,122.7Z" transform="translate(0)"/><path d="M3.49,126.24,126.24,3.49l-.48-.13L3.36,125.76C3.4,125.92,3.44,126.08,3.49,126.24Z" transform="translate(0)"/><path d="M4.48,129.69,129.68,4.48l-.46-.14L4.34,129.22C4.39,129.37,4.43,129.53,4.48,129.69Z" transform="translate(0)"/><path d="M5.59,133,133,5.59l-.45-.16L5.43,132.57Z" transform="translate(0)"/><path d="M6.78,136.26,136.26,6.78l-.43-.16L6.62,135.83Z" transform="translate(0)"/><path d="M8.07,139.42,139.42,8.07,139,7.89,7.89,139Z" transform="translate(0)"/><path d="M9.45,142.48l133-133-.41-.19L9.26,142.06Z" transform="translate(0)"/><path d="M10.91,145.46,145.46,10.91l-.4-.2L10.71,145.06C10.78,145.19,10.84,145.33,10.91,145.46Z" transform="translate(0)"/><path d="M12.46,148.36l135.9-135.9-.39-.22L12.24,148C12.31,148.1,12.38,148.23,12.46,148.36Z" transform="translate(0)"/><path d="M14.08,151.18l137.1-137.1-.38-.23-137,137C13.93,150.92,14,151.05,14.08,151.18Z" transform="translate(0)"/><circle cx="100" cy="100" r="100" fill="#ffd400"/><path d="M19.39,159.18,159.18,19.39l-.35-.25L19.14,158.83Z" transform="translate(0)"/><path d="M21.31,161.71l140.4-140.4-.34-.27L21,161.37Z" transform="translate(0)"/><path d="M23.3,164.16,164.16,23.3l-.33-.28L23,163.83Z" transform="translate(0)"/><path d="M25.36,166.54,166.54,25.36l-.32-.29L25.07,166.22Z" transform="translate(0)"/><path d="M27.48,168.86,168.86,27.48l-.32-.29L27.19,168.54C27.29,168.65,27.39,168.75,27.48,168.86Z" transform="translate(0)"/><path d="M29.68,171.1,171.1,29.68l-.3-.3L29.38,170.8Z" transform="translate(0)"/><path d="M32,173.27,173.27,32l-.29-.31L31.64,173Z" transform="translate(0)"/><path d="M34.29,175.38,175.38,34.29c-.1-.11-.19-.22-.29-.32L34,175.09Z" transform="translate(0)"/><path d="M36.69,177.41,177.41,36.69l-.27-.33L36.36,177.14Z" transform="translate(0)"/><path d="M39.17,179.37l140.2-140.2-.26-.34L38.83,179.11Z" transform="translate(0)"/><path d="M41.72,181.27,181.27,41.72l-.26-.35L41.37,181Z" transform="translate(0)"/><path d="M44.34,183.09,183.09,44.34l-.25-.36L44,182.84Z" transform="translate(0)"/><path d="M47,184.83,184.83,47l-.23-.37L46.67,184.6Z" transform="translate(0)"/><path d="M49.81,186.5,186.5,49.81l-.22-.38L49.43,186.28Z" transform="translate(0)"/><path d="M52.65,188.1,188.1,52.65l-.21-.39L52.26,187.89Z" transform="translate(0)"/><path d="M55.58,189.61l134-134c-.07-.13-.13-.27-.2-.4L55.18,189.41Z" transform="translate(0)"/><path d="M58.59,191.05,191.05,58.59c-.07-.14-.13-.28-.2-.41L58.18,190.85Z" transform="translate(0)"/><path d="M61.68,192.39,192.39,61.68l-.18-.43-131,131Z" transform="translate(0)"/><path d="M64.87,193.65,193.65,64.87l-.17-.44-129,129Z" transform="translate(0)"/><path d="M68.14,194.82,194.82,68.14c-.06-.15-.11-.3-.16-.45l-127,127Z" transform="translate(0)"/><path d="M71.52,195.88,195.88,71.52l-.14-.47L71.05,195.74Z" transform="translate(0)"/><path d="M75,196.85,196.85,75c0-.16-.09-.32-.13-.47L74.52,196.72Z" transform="translate(0)"/><path d="M78.59,197.69l119.1-119.1c0-.17-.07-.34-.1-.5L78.09,197.59Z" transform="translate(0)"/><path d="M82.29,198.44,198.44,82.29c0-.17-.07-.34-.1-.51L81.78,198.34Z" transform="translate(0)"/><path d="M86.12,199,199,86.12c0-.17,0-.35-.08-.53L85.59,199Z" transform="translate(0)"/><path d="M90.09,199.51,199.51,90.09c0-.18,0-.37,0-.55L89.54,199.46Z" transform="translate(0)"/><path d="M94.21,199.83,199.83,94.21c0-.19,0-.37,0-.56L93.65,199.79Z" transform="translate(0)"/><path d="M98.5,200,200,98.5c0-.19,0-.39,0-.59L97.91,200Z" transform="translate(0)"/><path d="M103,200l97-97c0-.2,0-.41,0-.62L102.35,200Z" transform="translate(0)"/><path d="M107.66,199.71l92.05-92.05c0-.22,0-.43,0-.65L107,199.75Z" transform="translate(0)"/><path d="M112.6,199.21l86.61-86.61c0-.23,0-.46.08-.69l-87.38,87.38Z" transform="translate(0)"/><path d="M117.84,198.41l80.57-80.57c.05-.25.08-.49.13-.73l-81.43,81.43Z" transform="translate(0)"/><path d="M123.47,197.22l73.75-73.75c.07-.27.14-.54.2-.8l-74.75,74.75Z" transform="translate(0)"/><path d="M129.58,195.55l66-66c.09-.28.17-.57.26-.86l-67.09,67.09Z" transform="translate(0)"/><path d="M136.41,193.16l56.75-56.75c.13-.32.25-.65.37-1l-58.09,58.09Z" transform="translate(0)"/><path d="M144.39,189.62l45.23-45.23c.2-.4.4-.79.59-1.19l-47,47Z" transform="translate(0)"/><path d="M154.81,183.65l28.84-28.84c.37-.56.73-1.13,1.09-1.7l-31.63,31.63C153.68,184.38,154.25,184,154.81,183.65Z" transform="translate(0)"/><path d="M15.77,153.92,153.92,15.77l-.37-.23-138,138Z" transform="translate(0)"/><path d="M17.55,156.59l139-139-.36-.25L17.3,156.23Z" transform="translate(0)"/><circle cx="100" cy="100" r="89.29" fill="#ffd400"/><path d="M110.26,77.15v-.58a19.41,19.41,0,0,1,1-3.88A23.89,23.89,0,0,0,112.6,67V62.68A4.23,4.23,0,0,0,108.88,60a4.37,4.37,0,0,0-3.54-1.47,4.65,4.65,0,0,0-3.26-1.15V52.7a2.33,2.33,0,0,0-4.65-.3,1.5,1.5,0,0,0,0,.3V63.18a5.3,5.3,0,0,0-2.71-1.48,1.94,1.94,0,0,0-1.46.46c-1.35,1.15,0,3.15,1.62,5.68s3.71,5.67,3.71,8.73v.58Z" transform="translate(0)" fill="#1d1e1c"/><path d="M102.78,56.71a.56.56,0,0,0,.8,0h0a5.4,5.4,0,1,0-7.64,0h0a.58.58,0,0,0,.81,0,.57.57,0,0,0,0-.8v0a4.25,4.25,0,1,1,6,0h0a.57.57,0,0,0,0,.81Z" transform="translate(0)" fill="#1d1e1c"/><path d="M93.67,57.59a.56.56,0,0,0,.78.12l0,0a.57.57,0,0,0,.11-.8h0a6.52,6.52,0,0,1-1.32-3.33V52.22a6.55,6.55,0,0,1,13,0v1.34A6.64,6.64,0,0,1,105,56.9a.57.57,0,0,0,.1.8h0a.48.48,0,0,0,.35.12.55.55,0,0,0,.45-.22,7.62,7.62,0,0,0,1.55-3.91c0-.26,0-.52,0-.79s0-.52,0-.78a7.67,7.67,0,0,0-4.2-6.11,7.77,7.77,0,0,0-6.91,0,7.65,7.65,0,0,0-4.2,6.11,5.08,5.08,0,0,0,0,.78,5.21,5.21,0,0,0,0,.79A7.54,7.54,0,0,0,93.67,57.59Z" transform="translate(0)" fill="#1d1e1c"/></svg>