<svg xmlns="http://www.w3.org/2000/svg" width="280" height="70.03" viewBox="0 0 280 70.03"><rect y="0.03" width="280" height="70" fill="#ffd400"/><polygon points="65 0 64.03 0 0 64.03 0 65 65 0"/><polygon points="57.6 0 56.63 0 0 56.63 0 57.6 57.6 0"/><polygon points="50.19 0 49.23 0 0 49.23 0 50.19 50.19 0"/><polygon points="42.79 0 41.82 0 0 41.82 0 42.79 42.79 0"/><polygon points="35.39 0 34.42 0 0 34.42 0 35.39 35.39 0"/><polygon points="27.98 0 27.02 0 0 27.02 0 27.98 27.98 0"/><polygon points="20.58 0 19.61 0 0 19.61 0 20.58 20.58 0"/><polygon points="13.18 0 12.21 0 0 12.21 0 13.18 13.18 0"/><polygon points="5.77 0 4.8 0 0 4.8 0 5.77 5.77 0"/><polygon points="279.69 0 278.72 0 208.7 70.03 209.66 70.03 279.69 0"/><polygon points="272.29 0 271.32 0 201.29 70.03 202.26 70.03 272.29 0"/><polygon points="264.89 0 263.92 0 193.89 70.03 194.86 70.03 264.89 0"/><polygon points="257.48 0 256.51 0 186.49 70.03 187.46 70.03 257.48 0"/><polygon points="250.08 0 249.11 0 179.08 70.03 180.05 70.03 250.08 0"/><polygon points="242.68 0 241.71 0 171.68 70.03 172.65 70.03 242.68 0"/><polygon points="235.27 0 234.3 0 164.28 70.03 165.25 70.03 235.27 0"/><polygon points="227.87 0 226.9 0 156.87 70.03 157.84 70.03 227.87 0"/><polygon points="220.47 0 219.5 0 149.47 70.03 150.44 70.03 220.47 0"/><polygon points="213.06 0 212.09 0 142.07 70.03 143.04 70.03 213.06 0"/><polygon points="205.66 0 204.69 0 134.66 70.03 135.63 70.03 205.66 0"/><polygon points="198.26 0 197.29 0 127.26 70.03 128.23 70.03 198.26 0"/><polygon points="190.85 0 189.88 0 119.86 70.03 120.83 70.03 190.85 0"/><polygon points="183.45 0 182.48 0 112.45 70.03 113.42 70.03 183.45 0"/><polygon points="176.05 0 175.08 0 105.05 70.03 106.02 70.03 176.05 0"/><polygon points="168.64 0 167.68 0 97.65 70.03 98.62 70.03 168.64 0"/><polygon points="161.24 0 160.27 0 90.25 70.03 91.21 70.03 161.24 0"/><polygon points="153.84 0 152.87 0 82.84 70.03 83.81 70.03 153.84 0"/><polygon points="146.44 0 145.47 0 75.44 70.03 76.41 70.03 146.44 0"/><polygon points="139.03 0 138.06 0 68.03 70.03 69 70.03 139.03 0"/><polygon points="131.63 0 130.66 0 60.63 70.03 61.6 70.03 131.63 0"/><polygon points="124.22 0 123.26 0 53.23 70.03 54.2 70.03 124.22 0"/><polygon points="116.82 0 115.85 0 45.83 70.03 46.8 70.03 116.82 0"/><polygon points="109.42 0 108.45 0 38.42 70.03 39.39 70.03 109.42 0"/><polygon points="102.02 0 101.05 0 31.02 70.03 31.99 70.03 102.02 0"/><polygon points="94.61 0 93.64 0 23.62 70.03 24.59 70.03 94.61 0"/><polygon points="87.21 0 86.24 0 16.21 70.03 17.18 70.03 87.21 0"/><polygon points="79.81 0 78.84 0 8.81 70.03 9.78 70.03 79.81 0"/><polygon points="72.4 0 71.43 0 1.41 70.03 2.38 70.03 72.4 0"/><polygon points="280 66.32 280 65.35 275.32 70.03 276.29 70.03 280 66.32"/><polygon points="280 58.92 280 57.95 267.92 70.03 268.89 70.03 280 58.92"/><polygon points="280 51.52 280 50.55 260.52 70.03 261.49 70.03 280 51.52"/><polygon points="280 44.11 280 43.14 253.12 70.03 254.08 70.03 280 44.11"/><polygon points="280 36.71 280 35.74 245.71 70.03 246.68 70.03 280 36.71"/><polygon points="280 29.3 280 28.34 238.31 70.03 239.28 70.03 280 29.3"/><polygon points="280 21.9 280 20.93 230.91 70.03 231.88 70.03 280 21.9"/><polygon points="280 14.5 280 13.53 223.5 70.03 224.47 70.03 280 14.5"/><polygon points="280 7.1 280 6.13 216.1 70.03 217.07 70.03 280 7.1"/><rect y="0.01" width="266" height="56" fill="#ffd400"/></svg>