<svg xmlns="http://www.w3.org/2000/svg" width="162" height="273.4" viewBox="0 0 162 273.4"><rect x="8.6" y="59.8" width="144.7" height="213.6" fill="#d0d1d1"/><polygon points="162 59.8 0 59.8 8.6 0 153.3 0 162 59.8" fill="#373a36"/><path d="M481.4,592h18.5v20.4H481.4Zm-20.5,0h18.3v20.4H460.9Zm-20.4,0h18.3v20.4H440.5Zm-17.6,0-3,20.4h18.3V592Zm58.5-22.2h18.5v20.1H481.4Zm-20.5,0h18.3v20.1H460.9Zm-20.4,0h18.3v20.1H440.5Zm-14.4,0-2.9,20.1h15.1V569.8Zm117,22.3v20.4h19.3l-3.2-20.4Zm-20.5,0h18.3v20.4H522.6Zm20.5-22.3v20.1H559l-3.1-20.1Zm-20.5,0h18.3v20.1H522.6Zm-20.4,22.3h18.3v20.4H502.2Zm0-22.3h18.3v20.1H502.2Z" transform="translate(-410 -561.2)" fill="#ffd400"/><path d="M529.4,696.8h25.4v25.1H529.4Zm0-33.6h25.4v25.1H529.4Zm0-33.7h25.4v25.1H529.4Zm-34.1,67.3h25.4v25.1H495.3V696.8Zm0-33.6h25.4v25.1H495.3V663.2Zm0-33.7h25.4v25.1H495.3V629.5Zm-34,100.7h25.4v25.1H461.3Zm0-33.4h25.4v25.1H461.3Zm0-33.6h25.4v25.1H461.3Zm-34,67h25.3v25.1H427.3Zm0-33.4h25.3v25.1H427.3Zm0-33.6h25.3v25.1H427.3Z" transform="translate(-410 -561.2)" fill="#fff"/></svg>