<svg xmlns="http://www.w3.org/2000/svg" width="46" height="72.9" viewBox="0 0 46 72.9"><polygon points="0 13.5 3.8 72.9 42.2 72.9 46 13.5 0 13.5" fill="#1d1d1b"/><path d="M661.1,764.9H647.7V761H632.3v3.9H618.9l-1.9,7.6h46Zm-15.3,0H634.3V763h11.5Z" transform="translate(-617 -761)" fill="#1d1d1b"/><path d="M652.5,797.1l-1.9,1.2-10.2-11.2,4.6,14.4-1.8,1.2,8.3,3.7Zm-15.1-2.2,1.9.9-1.2-9-8.3,3.9,1.9,1-4.1,14.7Zm-1.3,10.3V803l-7.4,5.4,7.4,5.4v-2.1l14.9-3.2Z" transform="translate(-617 -761)" fill="#fff"/></svg>