<svg xmlns="http://www.w3.org/2000/svg" width="134.02" height="157.83" viewBox="0 0 134.02 157.83"><path d="M14.07,7.51S-25.93,53,29,126.61c37,30.1,68,30.1,80.6,30.1S14.07,7.51,14.07,7.51Z" fill="#373a36"/><path d="M124.77,154.21c-18.1,13-57-10.2-86.9-51.7s-39.3-85.9-21.1-98.9,57,10.2,86.9,51.7C133.47,97,143,141.21,124.77,154.21Z" fill="#d0ced0"/><rect x="16.37" y="67.12" width="108.8" height="4.2" transform="translate(-21.89 34.37) rotate(-23.75)" fill="#373a36"/><rect x="29.45" y="90.93" width="108.8" height="4.2" transform="translate(-41.2 100.06) rotate(-51.19)" fill="#373a36"/><rect x="21.07" y="76.8" width="108.8" height="4.2" transform="translate(-31.47 56.88) rotate(-34.64)" fill="#373a36"/><path d="M130.07,40.11c1.8,2.5-.1,6.9-4.1,9.8s-8.8,3.2-10.6.7.1-6.9,4.1-9.8S128.27,37.61,130.07,40.11Z" fill="#373a36"/></svg>