<?xml version="1.0" encoding="utf-8"?>
<!-- Generator: Adobe Illustrator 25.2.1, SVG Export Plug-In . SVG Version: 6.00 Build 0)  -->
<svg version="1.1" id="Layer_1" xmlns="http://www.w3.org/2000/svg" xmlns:xlink="http://www.w3.org/1999/xlink" x="0px" y="0px"
	 viewBox="0 0 877.7 106.8" style="enable-background:new 0 0 877.7 106.8;" xml:space="preserve">
<style type="text/css">
	.st0{fill:#00736A;}
	.st1{fill:#525051;}
	.st2{fill:#E1DCCA;}
	.st3{fill:#ADDCE6;}
</style>
<path d="M515.2,99c0.1,4.3-3.4,7.9-7.7,8s-7.9-3.4-8-7.7c-0.1-4.3,3.4-7.9,7.7-8c0,0,0.1,0,0.1,0C511.6,91.2,515.1,94.7,515.2,99z"
	/>
<path d="M550,99c0.1,4.3-3.4,7.9-7.7,8c-4.3,0.1-7.9-3.4-8-7.7c-0.1-4.3,3.4-7.9,7.7-8c0,0,0.1,0,0.1,0C546.5,91.2,550,94.7,550,99
	C550,99,550,99,550,99z"/>
<rect x="509.6" y="97.8" width="28.7" height="2.4"/>
<path d="M428.7,99c0.1,4.3-3.4,7.9-7.7,8s-7.9-3.4-8-7.7c-0.1-4.3,3.4-7.9,7.7-8c0,0,0.1,0,0.1,0C425.1,91.2,428.6,94.7,428.7,99
	C428.7,99,428.7,99,428.7,99z"/>
<path d="M463.5,99c0.1,4.3-3.4,7.9-7.7,8s-7.9-3.4-8-7.7c-0.1-4.3,3.4-7.9,7.7-8c0,0,0.1,0,0.1,0C460,91.2,463.5,94.7,463.5,99z"/>
<rect x="423.1" y="97.8" width="28.7" height="2.4"/>
<path d="M344,98c0.1,4.3-3.4,7.9-7.7,8c-4.3,0.1-7.9-3.4-8-7.7s3.4-7.9,7.7-8c0,0,0.1,0,0.1,0C340.5,90.2,344,93.7,344,98
	C344,98,344,98,344,98z"/>
<path d="M378.9,98c0.1,4.3-3.4,7.9-7.7,8c-4.3,0.1-7.9-3.4-8-7.7c-0.1-4.3,3.4-7.9,7.7-8c0,0,0.1,0,0.1,0
	C375.3,90.3,378.8,93.7,378.9,98z"/>
<rect x="338.5" y="96.8" width="28.7" height="2.4"/>
<rect x="445.1" y="33.4" class="st0" width="140.1" height="52.3"/>
<rect x="300.1" y="33.4" class="st0" width="140.1" height="52.3"/>
<rect x="299" y="85.7" class="st1" width="286.3" height="12"/>
<path d="M226.5,98.7c0.1,4.3-3.4,7.9-7.7,8c-4.3,0.1-7.9-3.4-8-7.7c-0.1-4.3,3.4-7.9,7.7-8c0,0,0.1,0,0.1,0
	C222.9,91,226.4,94.4,226.5,98.7z"/>
<path d="M261.3,98.7c0.1,4.3-3.4,7.9-7.7,8c-4.3,0.1-7.9-3.4-8-7.7c-0.1-4.3,3.4-7.9,7.7-8c0,0,0.1,0,0.1,0
	C257.8,91,261.3,94.4,261.3,98.7z"/>
<rect x="220.9" y="97.5" width="28.7" height="2.4"/>
<path d="M140,98.7c0.1,4.3-3.4,7.9-7.7,8s-7.9-3.4-8-7.7s3.4-7.9,7.7-8c0,0,0.1,0,0.1,0C136.4,91,139.9,94.4,140,98.7
	C140,98.7,140,98.7,140,98.7z"/>
<path d="M174.8,98.7c0.1,4.3-3.4,7.9-7.7,8c-4.3,0.1-7.9-3.4-8-7.7s3.4-7.9,7.7-8c0.1,0,0.1,0,0.2,0C171.3,91,174.8,94.4,174.8,98.7
	z"/>
<rect x="134.4" y="97.5" width="28.7" height="2.4"/>
<path d="M55.3,97.7c0.1,4.3-3.4,7.9-7.7,8c-4.3,0.1-7.9-3.4-8-7.7c-0.1-4.3,3.4-7.9,7.7-8c0,0,0.1,0,0.1,0
	C51.8,90,55.3,93.4,55.3,97.7z"/>
<path d="M90.2,97.7c0.1,4.3-3.4,7.9-7.7,8c-4.3,0.1-7.9-3.4-8-7.7c-0.1-4.3,3.4-7.9,7.7-8c0,0,0.1,0,0.1,0
	C86.6,90,90.1,93.4,90.2,97.7z"/>
<rect x="49.8" y="96.5" width="28.7" height="2.4"/>
<rect x="156.4" y="33.1" class="st0" width="140.1" height="52.3"/>
<rect y="33.1" class="st0" width="151.5" height="52.3"/>
<rect x="10.3" y="85.4" class="st1" width="286.2" height="12"/>
<path d="M807.5,99c0.1,4.3-3.4,7.9-7.7,8c-4.3,0.1-7.9-3.4-8-7.7c-0.1-4.3,3.4-7.9,7.7-8c0,0,0.1,0,0.1,0
	C804,91.2,807.5,94.7,807.5,99z"/>
<path d="M842.4,99c0.1,4.3-3.4,7.9-7.7,8c-4.3,0.1-7.9-3.4-8-7.7c-0.1-4.3,3.4-7.9,7.7-8c0,0,0.1,0,0.1,0
	C838.8,91.2,842.4,94.7,842.4,99z"/>
<rect x="802" y="97.8" width="28.7" height="2.4"/>
<path d="M635.1,99c0.1,4.3-3.4,7.9-7.7,8c-4.3,0.1-7.9-3.4-8-7.7c-0.1-4.3,3.4-7.9,7.7-8c0,0,0.1,0,0.1,0
	C631.6,91.2,635.1,94.7,635.1,99C635.1,99,635.1,99,635.1,99z"/>
<path d="M670,99c0.1,4.3-3.4,7.9-7.7,8c-4.3,0.1-7.9-3.4-8-7.7c-0.1-4.3,3.4-7.9,7.7-8c0,0,0.1,0,0.1,0C666.5,91.2,670,94.7,670,99
	C670,99,670,99,670,99z"/>
<rect x="629.6" y="97.8" width="28.7" height="2.4"/>
<polygon class="st0" points="877.7,85.7 591.4,85.7 591.4,32.9 802.2,32.9 "/>
<polygon class="st1" points="850.1,97.7 591.4,97.7 591.4,85.7 877.7,85.7 "/>
<rect x="610.9" y="45.1" class="st2" width="55.9" height="23.6"/>
<rect x="674.7" y="45.1" class="st2" width="55.9" height="23.6"/>
<rect x="759.3" y="45.1" class="st2" width="35.1" height="23.6"/>
<polygon class="st2" points="842.4,68.7 802.2,68.7 802.2,45.1 807.5,45.1 "/>
<polygon class="st0" points="752.6,33.4 655.1,33.4 659.5,28.6 748.4,28.6 "/>
<rect x="660.4" y="30.3" class="st3" width="19.7" height="1.4"/>
<rect x="682.6" y="30.3" class="st3" width="19.7" height="1.4"/>
<rect x="704.8" y="30.3" class="st3" width="19.7" height="1.4"/>
<rect x="727" y="30.3" class="st3" width="19.7" height="1.4"/>
</svg>
