<svg xmlns="http://www.w3.org/2000/svg" width="400" height="68.58" viewBox="0 0 400 68.58"><path d="M298.93,55.73a12.58,12.58,0,0,1-12.51-12.64c0-.23,0-.46,0-.69a12.59,12.59,0,0,1,11.8-13.31l.69,0a12.79,12.79,0,0,1,12.9,12.7c0,.21,0,.42,0,.63a12.79,12.79,0,0,1-12.25,13.32h-.64m2.4-38.93a17.77,17.77,0,0,0-14.22,6.36V0h-13V66.67h12.8V61.29a17.75,17.75,0,0,0,14.53,6.62c13.34,0,23.51-11,23.51-25.55S314.8,16.8,301.38,16.8m-95,12.93H191.78V47.51c0,6.09,3.2,8.27,7.29,8.27a19,19,0,0,0,9.11-3.16L213,62.84A27.08,27.08,0,0,1,196.89,68c-13.56,0-18.18-8.54-18.18-21.12V3.69h13.07v14.4H206.4ZM400,66.67H386.93V0H400ZM344,37.82h21.51a10.8,10.8,0,0,0-21.51,0m34.62,4.45a38.75,38.75,0,0,1-.26,4.44H344A11.72,11.72,0,0,0,356.44,56.8a19.66,19.66,0,0,0,12.27-4.44l7.69,8.4a29.46,29.46,0,0,1-20.84,7.15,24,24,0,0,1-25.22-22.72,24.32,24.32,0,0,1,0-2.7c0-15.29,10-25.69,24.53-25.69s23.55,10.36,23.6,25.51m-150.85,0a12.94,12.94,0,1,0,25.83,0,12.94,12.94,0,0,0-25.83-1.51,12.68,12.68,0,0,0,0,1.51m39.2,0A26.27,26.27,0,1,1,240.58,16a26.27,26.27,0,0,1,26.26,26.27M168,35.56V66.67H155V40c0-7-3.51-10.89-9.47-10.89a10,10,0,0,0-10.3,9.59,9.37,9.37,0,0,0,0,1.3V66.67H122.13V18.09h12.71v5.73a16.29,16.29,0,0,1,14.27-7A18.1,18.1,0,0,1,168,34c0,.52,0,1,0,1.55m-92.13,6.8a12.93,12.93,0,0,0,25.82,1.51,12.68,12.68,0,0,0,0-1.51,12.93,12.93,0,1,0-25.82,0m39.2,0A25.24,25.24,0,0,1,90.2,67.93c-.44,0-.87,0-1.31,0A25.2,25.2,0,0,1,62.68,43.76c0-.47,0-.94,0-1.4A25.2,25.2,0,0,1,87.49,16.78c.46,0,.93,0,1.4,0a25.24,25.24,0,0,1,26.2,24.25c0,.43,0,.87,0,1.31M42.53,66.67H25.07L0,0H15L33.91,52.71,53,0H67.6Z" fill="#373a36"/></svg>