<svg xmlns="http://www.w3.org/2000/svg" width="1056.16" height="565.54" viewBox="0 0 1056.16 565.54"><polygon points="736.41 539.4 736.41 179.8 823.51 179.8 823.51 540 736.41 539.4" fill="#fff"/><rect x="522.01" y="254.76" width="154.6" height="284.14" fill="#868686"/><rect x="553.33" y="236.96" width="91.96" height="17.8" fill="#868686"/><rect x="358.01" y="38" width="106.44" height="500.9" fill="#fff"/><polygon points="464.46 38 358.01 38 342.31 0 480.16 0 464.46 38" fill="#fff"/><polygon points="390.57 538.9 209.28 538.9 221.6 358.54 378.25 358.54 390.57 538.9" fill="#4c4c4c"/><path d="M403.92,451.38c-22.7,0-41.1,14.85-41.1,33.17H445C445,466.23,426.63,451.38,403.92,451.38Z" transform="translate(-104 -126)" fill="#4c4c4c"/><rect x="941.18" y="393.21" width="83.65" height="145.69"/><rect x="958.13" y="368.6" width="49.76" height="9.13"/><rect x="969.3" y="377.73" width="27.42" height="15.48"/><rect x="787.66" y="393.21" width="83.65" height="145.69"/><rect x="804.6" y="368.6" width="49.76" height="9.13"/><rect x="815.78" y="377.73" width="27.42" height="15.48"/><rect x="691.28" y="393.21" width="83.65" height="145.69"/><rect x="708.23" y="368.6" width="49.76" height="9.13"/><rect x="719.4" y="377.73" width="27.42" height="15.48"/><path d="M944.72,262.38H821.82V292.2c0,7.8,7,14.2,14.8,14.2h94.5a13.87,13.87,0,0,0,13.6-14.13V286.8h0Z" transform="translate(-104 -126)" fill="#fff"/><rect x="735.15" y="125.01" width="17.32" height="20.65" fill="#fff"/><rect x="761.94" y="125.01" width="17.32" height="20.65" fill="#fff"/><path d="M1034.75,317.82V302.63h-23.13v15.28c-14.2,1.3-23.67,13.24-23.67,27.89V666h70.5V345.8C1058.42,330.48,1049.83,318.26,1034.75,317.82Z" transform="translate(-104 -126)" fill="#e5e5e5"/><rect x="32.41" y="538.9" width="1023.75" height="26.64" fill="#4c4c4c"/><rect x="77.85" y="427.26" width="53.93" height="138.28" fill="#373a36"/><rect x="86.33" y="437.75" width="36.96" height="31.82" fill="#a5a6a5"/><rect y="427.26" width="53.93" height="138.28" fill="#373a36"/><rect x="8.48" y="437.75" width="36.96" height="31.82" fill="#a5a6a5"/></svg>