<svg xmlns="http://www.w3.org/2000/svg" width="180.3" height="155.4" viewBox="0 0 180.3 155.4"><rect x="9.7" y="68" width="161.1" height="87.4" fill="#d0d1d1"/><polygon points="180.3 68 0 68 9.7 0 170.8 0 180.3 68" fill="#373a36"/><path d="M803.5,705.1l-3.4,23.2h20.4V705.1Zm3.7-25.5-3.3,22.9h16.7V679.6Zm130.1,25.5v23.2h21.5l-3.4-23.2Zm-113.7,0H844v23.2H823.6Zm0-25.5H844v22.9H823.6Zm22.7,25.5h20.4v23.2H846.3Zm0-25.5h20.4v22.9H846.3ZM869,705.1h20.4v23.2H869Zm0-25.5h20.4v22.9H869Zm45.4,25.5h20.4v23.2H914.4Zm22.9-25.5v22.9h17.6l-3.5-22.9Zm-22.9,0h20.4v22.9H914.4Zm-22.7,25.5h20.4v23.2H891.7Zm0-25.5h20.4v22.9H891.7Z" transform="translate(-789.3 -670)" fill="#ffd400"/><rect x="19.2" y="77.7" width="40.9" height="58.3" fill="#fff"/><rect x="69.7" y="77.7" width="40.9" height="58.3" fill="#fff"/><rect x="120.3" y="77.7" width="40.9" height="58.3" fill="#fff"/></svg>