<?xml version="1.0" encoding="utf-8"?>
<!-- Generator: Adobe Illustrator 25.2.1, SVG Export Plug-In . SVG Version: 6.00 Build 0)  -->
<svg version="1.1" id="Layer_1" xmlns="http://www.w3.org/2000/svg" xmlns:xlink="http://www.w3.org/1999/xlink" x="0px" y="0px"
	 viewBox="0 0 95.7 120" style="enable-background:new 0 0 95.7 120;" xml:space="preserve">
<style type="text/css">
	.st0{fill-rule:evenodd;clip-rule:evenodd;}
</style>
<path class="st0" d="M47.8,29.7c2.3,0,4.1,1.9,4.1,4.2S50.1,38,47.8,38s-4.1-1.9-4.1-4.1S45.6,29.7,47.8,29.7
	C47.8,29.7,47.8,29.7,47.8,29.7z"/>
<path class="st0" d="M34.4,83.2l20.4-6.7L41,67.3L34.4,83.2z M65.9,112.7L29.8,94.2L22,112.7H65.9z M60.9,82.2l-23.5,7.7l34,17.5
	L60.9,82.2L60.9,82.2z M43.9,60.5l10.9,7.3l-7-16.7L43.9,60.5L43.9,60.5z M52.8,44l29.8,70.9l2.1,5.1H11l2.1-5.1L42.9,44
	C46,45.5,49.7,45.5,52.8,44z"/>
</svg>
