<svg xmlns="http://www.w3.org/2000/svg" width="350.61" height="416.13" viewBox="0 0 350.61 416.13"><path d="M410.63,592c-12.95,1.39-31.55,0-33.08-.12-19.13-2-41.68-.26-60.17-4.38-.19-.05-.37-.08-.57-.12a8.61,8.61,0,0,1-4.25-2c-3.43-3.3,2-9.21-2.62-10.93a3,3,0,0,0-1.26,2.64,6.13,6.13,0,0,1,4.56-10.52c2,0,4.26,1.79,5.77,1.35,1-.29,1.82-1.21,3.23-1.3a20.49,20.49,0,0,1,3.9.41c.36-.67,1.17-4.06-.17-4.36s-1.18,2.3-1.2,2.92c-1.23-2.21-2.65-5.2-1.43-7.7,1.12-2.24,3.8-3.24,6.19-3.25,15.55-.08,31.91,2.77,47.38.64,12.58-1.74,21.1-12,25.79-23.25,1-2.29,6.61-24.16,3.25-23.18-27.8,8.07-64.16-17-86-31.3-13.4-8.8-21.7-22.13-27.72-36.68-5.21-12.6-7-31.29-18.3-40.12C237.13,372,225.8,335.55,251.83,294.14c8.24-13.11,19.84-24.32,18.1-41-2.57-24.8-23.19-14.51-39.28-20.77-2.09-.81-12.46-5.41-12.12-16.3h-.63l-.1,0c-3.69.15-3.56,12.12-7.57,10.84a19.27,19.27,0,0,1-3.06-12.73c1.12-14.86,9.33-28.56,22.67-35.57l.06,0H230a28.29,28.29,0,0,1,10.2-2.11,16.86,16.86,0,0,1,14.46,7.33c.65-.2,6.29-3.23,7.91,4a39.72,39.72,0,0,1,4.52,2.21c1.34,1.26,1.72,2.2,3.7,2.76,3.61,1,7.56-.4,11.14.75,2.27.72,3.78.94,6-.15,18.1-8.89,30.84-12.45,45.52,4.7,6.83,8,9.93,17.65,10.9,28,1.82,19.24-7.94,32.26-21,45-7.25,7.13-34.53,30.78-20.4,42.61,11.88,9.94,31.71-7.58,44.86-4.57,4.48,1.05,8.33,3.92,12.86,4.57,5.42.79,9.78-1.57,14.92-2.34,24-3.6,48.58,5.32,68.17,18.78,5,3.41,52.28,47.13,43.65,53.74,10.48-8,19.49-20.67,34-20.9,13.49-.21,24.37,10.46,30.41,21.57,6.92,12.73,7.23,28,3.57,41.78a59.37,59.37,0,0,1-9.07,19.25c-2.41,3.43-5,7.11-8.29,9.77-1.64,1.32-9.67,2.86-9.92,3.22,1.82-2.53,4.92-3.95,6.93-6.37-1,.81-3.16.4-4.31.42,2.39-2.75,5.91-4,7.16-8-1.26,1-3.72,2-5.26,1.68,2.38.44,1.09-8.09.44-9.22-1.13,6-6.63,13.33-13.54,11.76,1.33-3.23,4.94-6.05,2.22-9.51.07,3.54-1.38,6.06-3,9.09-1.53,2.87-5.74,5.6-9.15,4.45,2.31-1.64,5.94-4.81,5.35-8.05-1.84,2.16-3.21,5.14-6.46,4.76.67.08,2.1-3.09,2-3.82-.54-2.92-6.15-2.72-7.1-6.42-6.57,14.79-7.71,30.68-18.72,43.74-4.56,5.4-11,9.52-17.21,12.7-6.7,3.42-16.62,2-21.45,8.61-5.83,8-1.48,21.76-5.83,30.84-6.21,13-21.34,15.44-29.4,25.89-1.1,1.42-2.56,4.09-2,6,2.25,7,26.51.28,27,12.1a4.93,4.93,0,0,1-2.23,4.36c-1.11.7-10.33-.31-12.48-.64,5.57,5.53-.9,8-10.42,9" transform="translate(-207.09 -176.44)" fill="#00a499"/></svg>