<svg xmlns="http://www.w3.org/2000/svg" width="1086.65" height="316.8" viewBox="0 0 1086.65 316.8"><path d="M197.05,287.79v-1.05a9.25,9.25,0,0,0-9.25-9.25h-.16v-3.74a6.33,6.33,0,0,0-6.33-6.33h-34.1a6.33,6.33,0,0,0-6.33,6.33v3.74h-.16a9.26,9.26,0,0,0-9.26,9.25v92.7h65.59V316h11V332.6h3.9V287.79Z" transform="translate(-131.45 -63.18)" fill="#77c5d5"/><path d="M211.91,332.6c-.19-3.73-.33-7.46-.45-11.2s-.28-7.47-.36-11.2c-.21-7.47-.33-14.94-.45-22.41l1.26,1.26-14.86.16h-1.4v-2.41l0-.84a8.14,8.14,0,0,0-.34-1.63,7.83,7.83,0,0,0-7.61-5.39h-1.47v-5.29a4.86,4.86,0,0,0-3.23-4.53,4.2,4.2,0,0,0-1.45-.28c-.54,0-1.25,0-1.87,0l-15.36-.15-15.36-.26c-.63,0-1.32-.05-1.89,0a4.94,4.94,0,0,0-1.61.26,5.4,5.4,0,0,0-2.66,1.88,5.67,5.67,0,0,0-1.15,3.13l-.14,3.83,0,.6-.55,0a8.86,8.86,0,0,0-6.42,2.31,9.26,9.26,0,0,0-3,6.37,9.25,9.25,0,0,1,2.55-6.82,9.6,9.6,0,0,1,3.12-2.18,10.08,10.08,0,0,1,3.75-.83l-.57.58-.13-3.86a7,7,0,0,1,1.24-4.05,7.1,7.1,0,0,1,3.38-2.65,7.44,7.44,0,0,1,2.14-.46c.71,0,1.3,0,2-.06l15.36-.26,15.36-.15c.66,0,1.23,0,2,0a7.27,7.27,0,0,1,2.31.43,7.7,7.7,0,0,1,3.71,2.77,7.78,7.78,0,0,1,1.48,4.41l0,3.87L187.64,276a10.63,10.63,0,0,1,8.07,3.54,10.56,10.56,0,0,1,2.25,3.91,11.23,11.23,0,0,1,.46,2.22l.05,1.12v1l-1.42-1.41,14.86.16h1.28l0,1.24c-.12,7.47-.25,14.94-.45,22.41-.08,3.73-.24,7.47-.36,11.2s-.26,7.47-.45,11.2" transform="translate(-131.45 -63.18)" fill="#fff"/><path d="M577.29,199.36h-52.7c0,18.54-6.85,62.74-12.38,105.2V257.74L447,307.59V257.74l-69.27,53V380H596.56c0-46.13-19.27-149.51-19.27-180.62" transform="translate(-131.45 -63.18)" fill="#373a36"/><polygon points="649.43 112.35 649.43 173.19 610.46 157.8 415.82 236.7 437.2 236.7 437.2 316.8 786.94 316.8 786.94 236.7 810.31 236.7 757.55 215.87 757.55 127.93 728.33 127.93 728.33 204.34 718.59 200.49 718.59 120.14 689.36 120.14 689.36 188.95 678.65 184.72 678.65 112.35 649.43 112.35" fill="#373a36"/><path d="M366.72,254.76c-.24-6.73-12.38-12.58-30.26-15.66V63.18h-57.8V239.09c-18.07,3.11-30.29,9-30.29,15.87a4.9,4.9,0,0,0,.08.94v.16H233.74v49.35h1.95V290.47h12.67v-1.94H235.69v-3.25h12.67v-1.95H235.69v-3.25h12.67v-1.94H235.69v-3.25h12.67v-1.95H235.69v-3.25h12.67v-1.95H235.69V264.5h12.67v-1.95H235.69V258h12.76V379.6H366.76V254.76Z" transform="translate(-131.45 -63.18)" fill="#373a36"/><path d="M369.16,199.36h-52.7c0,18.54-6.85,62.74-12.38,105.2V257.74l-65.19,49.85V257.74l-69.27,53V380H388.43c0-46.13-19.27-149.51-19.27-180.62" transform="translate(-131.45 -63.18)" fill="#373a36"/><polygon points="1045.13 122.37 1045.13 201.71 1037.01 202.42 1037.01 122.37 1013.63 122.37 1013.63 204.47 944.15 210.56 944.15 129.51 920.77 129.51 920.77 212.61 908.43 213.69 908.43 129.51 885.05 129.51 885.05 215.74 864.39 217.55 864.39 235.29 833.38 237.68 833.38 316.26 1086.65 316.26 1086.65 198.07 1068.51 199.66 1068.51 122.37 1045.13 122.37" fill="#77c5d5"/><rect x="52.38" y="258.38" width="13.21" height="13.21" fill="#fff"/><rect x="69.93" y="258.38" width="13.21" height="13.21" fill="#fff"/><rect x="52.38" y="275.06" width="13.21" height="13.2" fill="#fff"/><rect x="69.93" y="275.06" width="13.21" height="13.2" fill="#fff"/><rect x="125.03" y="258.38" width="13.21" height="13.21" fill="#fff"/><rect x="142.58" y="258.38" width="13.21" height="13.21" fill="#fff"/><rect x="125.03" y="275.06" width="13.21" height="13.2" fill="#fff"/><rect x="142.58" y="275.06" width="13.21" height="13.2" fill="#fff"/><rect x="260.51" y="258.38" width="13.2" height="13.21" fill="#fff"/><rect x="278.06" y="258.38" width="13.2" height="13.21" fill="#fff"/><rect x="260.51" y="275.06" width="13.2" height="13.2" fill="#fff"/><rect x="278.06" y="275.06" width="13.2" height="13.2" fill="#fff"/><rect x="333.16" y="258.38" width="13.2" height="13.21" fill="#fff"/><rect x="350.71" y="258.38" width="13.2" height="13.21" fill="#fff"/><rect x="333.16" y="275.06" width="13.2" height="13.2" fill="#fff"/><rect x="350.71" y="275.06" width="13.2" height="13.2" fill="#fff"/><rect x="869.75" y="248.72" width="11.2" height="11.2" fill="#fff"/><rect x="897.27" y="248.72" width="11.2" height="11.2" fill="#fff"/><rect x="924.79" y="248.72" width="11.2" height="11.2" fill="#fff"/><rect x="952.31" y="248.72" width="11.2" height="11.2" fill="#fff"/><rect x="979.82" y="248.72" width="11.2" height="11.2" fill="#fff"/><rect x="1007.34" y="248.72" width="11.2" height="11.2" fill="#fff"/><rect x="1034.86" y="248.72" width="11.2" height="11.2" fill="#fff"/><rect x="1062.38" y="248.72" width="11.2" height="11.2" fill="#fff"/><rect x="869.75" y="267.55" width="11.2" height="11.2" fill="#fff"/><rect x="897.27" y="267.55" width="11.2" height="11.2" fill="#fff"/><rect x="924.79" y="267.55" width="11.2" height="11.2" fill="#fff"/><rect x="952.31" y="267.55" width="11.2" height="11.2" fill="#fff"/><rect x="979.82" y="267.55" width="11.2" height="11.2" fill="#fff"/><rect x="1007.34" y="267.55" width="11.2" height="11.2" fill="#fff"/><rect x="1034.86" y="267.55" width="11.2" height="11.2" fill="#fff"/><rect x="1062.38" y="267.55" width="11.2" height="11.2" fill="#fff"/><rect x="522.69" y="246.77" width="23.55" height="23.55" fill="#fff"/><rect x="560.09" y="246.77" width="23.55" height="23.55" fill="#fff"/><rect x="597.49" y="246.77" width="23.55" height="23.55" fill="#fff"/><rect x="634.89" y="246.77" width="23.55" height="23.55" fill="#fff"/><rect x="672.29" y="246.77" width="23.55" height="23.55" fill="#fff"/><rect x="709.69" y="246.77" width="23.55" height="23.55" fill="#fff"/></svg>