<svg xmlns="http://www.w3.org/2000/svg" width="90" height="15.43" viewBox="0 0 90 15.43"><path d="M67.26,12.54A2.84,2.84,0,0,1,64.44,9.7a.92.92,0,0,0,0-.16,2.82,2.82,0,0,1,2.65-3h.16a2.88,2.88,0,0,1,2.9,2.86v.14a2.88,2.88,0,0,1-2.76,3h-.14m.54-8.76a4,4,0,0,0-3.2,1.43V0H61.67V15h2.88V13.79a4,4,0,0,0,3.27,1.49c3,0,5.29-2.47,5.29-5.75s-2.28-5.75-5.3-5.75M46.44,6.69H43.15v4c0,1.37.72,1.86,1.64,1.86a4.31,4.31,0,0,0,2.05-.71l1.08,2.3a6.09,6.09,0,0,1-3.62,1.15c-3,0-4.09-1.92-4.09-4.75V.83h2.94V4.07h3.29ZM90,15H87.06V0H90ZM77.4,8.51h4.84a2.43,2.43,0,0,0-4.84,0m7.79,1a8.39,8.39,0,0,1-.06,1H77.39a2.64,2.64,0,0,0,2.81,2.27,4.41,4.41,0,0,0,2.76-1l1.73,1.89A6.65,6.65,0,0,1,80,15.28a5.39,5.39,0,0,1-5.67-5.11c0-.21,0-.41,0-.61,0-3.44,2.25-5.78,5.52-5.78s5.3,2.33,5.31,5.74m-33.94,0A2.91,2.91,0,1,0,57,9.86a1.93,1.93,0,0,0,0-.34,2.91,2.91,0,1,0-5.81-.34,1.93,1.93,0,0,0,0,.34m8.82,0a5.91,5.91,0,1,1-5.91-5.91A5.92,5.92,0,0,1,60,9.52M37.81,8v7H34.87V9c0-1.58-.79-2.45-2.13-2.45a2.24,2.24,0,0,0-2.32,2.16,2.81,2.81,0,0,0,0,.29v6H27.48V4.07h2.86V5.36a3.65,3.65,0,0,1,3.21-1.58,4.07,4.07,0,0,1,4.26,3.87V8M17.08,9.53a2.91,2.91,0,1,0,5.81.34,1.93,1.93,0,0,0,0-.34,2.91,2.91,0,1,0-5.81-.34,1.93,1.93,0,0,0,0,.34m8.82,0a5.68,5.68,0,0,1-5.61,5.75H20a5.67,5.67,0,0,1-5.9-5.43V9.53a5.66,5.66,0,0,1,5.58-5.75H20a5.69,5.69,0,0,1,5.9,5.46v.29M9.57,15H5.64L0,0H3.37L7.63,11.86,11.92,0h3.29Z" fill="#fff"/></svg>