<svg xmlns="http://www.w3.org/2000/svg" width="96.81" height="96.81" viewBox="0 0 96.81 96.81"><circle cx="48.41" cy="48.41" r="44.95" fill="#fff"/><path d="M299.16,462.35a48.4,48.4,0,1,0-13.38,67.13A48.38,48.38,0,0,0,299.16,462.35Zm-30.6,20.43a11.6,11.6,0,1,1-16.09-3.21A11.6,11.6,0,0,1,268.56,482.78Zm-31.19,21L234,510.52c-2.83,5.59-5.13,4.48-8.7-.66A37.2,37.2,0,0,1,219,490.8c-.16-6.45,1-8.51,6.61-5.68l6.7,3.39A11.43,11.43,0,0,1,237.37,503.81Zm.73-31-7.46-.93c-6.21-.79-5.94-3.32-2.3-8.41a37.26,37.26,0,0,1,15.85-12.31c6-2.31,8.35-1.9,7.57,4.32-.24,1.86-.71,5.59-.94,7.46A11.43,11.43,0,0,1,238.1,472.82Zm30.35,54.38a37.13,37.13,0,0,1-20.06,0c-6.18-1.86-7.77-3.62-3.34-8.05l5.32-5.31a11.41,11.41,0,0,1,16.1,0l5.32,5.31C276.22,523.58,274.44,525.42,268.45,527.2ZM267,462.92c-.23-1.87-.7-5.6-.93-7.46-.77-6.22,1.56-6.63,7.58-4.3a37.3,37.3,0,0,1,15.83,12.33c3.63,5.09,3.9,7.63-2.32,8.4l-7.46.93A11.42,11.42,0,0,1,267,462.92Zm31.89,27.35a37.2,37.2,0,0,1-6.29,19.05c-3.57,5.13-5.88,6.24-8.69.64-.84-1.68-2.54-5-3.38-6.71A11.42,11.42,0,0,1,285.61,488l6.71-3.39C297.92,481.76,299.09,483.82,298.92,490.27Z" transform="translate(-210.5 -440.81)"/></svg>