<?xml version="1.0" encoding="utf-8"?>
<!-- Generator: Adobe Illustrator 25.2.1, SVG Export Plug-In . SVG Version: 6.00 Build 0)  -->
<svg version="1.1" id="Layer_1" xmlns="http://www.w3.org/2000/svg" xmlns:xlink="http://www.w3.org/1999/xlink" x="0px" y="0px"
	 viewBox="0 0 1371 475.6" style="enable-background:new 0 0 1371 475.6;" xml:space="preserve">
<style type="text/css">
	.st0{fill:#F5F5F5;}
</style>
<polygon class="st0" points="1371,475.6 1371,215.5 1327.8,215.5 1327.7,215.4 1314.2,225.2 1314.2,295.9 1309.9,295.9 
	1309.9,230.7 1300.8,230.7 1300.8,184.6 1274.2,165.5 1274.2,165.7 1274.2,165.7 1256.4,186.9 1256.4,235.6 1245.6,244.7 
	1245.6,262.3 1240.4,262.3 1240.4,304.3 1226.9,294.5 1226.8,294.6 1213.9,294.6 1213.9,243.2 1183.8,243.2 1183.8,294.6 
	1183.7,294.6 1183.7,312.8 1178.6,312.8 1178.6,215.9 1178.6,215.9 1178.6,180.6 1135.4,180.6 1135.3,180.5 1121.8,190.3 
	1121.8,218.3 1116.6,218.3 1116.6,200.7 1105.8,191.6 1105.8,142.9 1088.1,121.7 1088,121.7 1088,121.5 1061.4,140.6 1061.4,186.7 
	1052.3,186.7 1052.3,251.9 1048,251.9 1048,181.2 1034.5,171.4 1034.4,171.5 1021.1,171.5 1021.1,90.5 972.6,90.5 972.6,213.5 
	967.5,213.5 967.5,148.6 932.5,148.6 932.5,183.7 918.2,183.7 918.2,148.6 910.9,148.6 910.9,42.7 870.8,42.7 870.8,148.6 
	863.4,148.6 863.4,166.4 849.2,166.4 849.2,123.9 814.2,123.9 814.2,241.5 812.5,241.5 812.5,241 802.2,241 802.2,199.2 
	782.7,199.2 782.7,158.3 744.5,158.3 733.6,170.8 733.6,243.9 724,243.9 724,203.7 697.2,203.7 688.1,215 688.1,245 685,245 
	685,115.4 672.7,96.8 672.7,59.3 660.3,44.7 656.2,22 652.1,44.7 639.7,59.3 639.7,96.8 627.4,115.4 627.4,245 624.1,245 
	624.1,186.6 614.2,174.9 588.4,174.9 588.4,245 583.3,245 583.3,238.8 567.9,223.9 529.7,223.9 529.7,250.4 437.7,250.4 
	437.7,227.6 428.8,227.6 428.8,151.6 421.9,151.6 421.9,144.1 414.1,139.4 414.1,134.9 409.9,132 409.9,128.3 407,126.6 407,121.6 
	402.4,121.6 402.4,126.6 399.5,128.3 399.5,132 395.3,134.9 395.3,139.4 387.4,144.1 387.4,151.6 380,151.6 380,227.6 367.2,227.6 
	367.2,151.6 360.3,151.6 360.3,144.1 352.4,139.4 352.4,134.9 348.3,132 348.3,128.3 345.3,126.6 345.3,121.6 340.8,121.6 
	340.8,126.6 337.9,128.3 337.9,132 333.7,134.9 333.7,139.4 325.8,144.1 325.8,151.6 318.4,151.6 318.4,227.6 309,227.6 309,108.6 
	300.6,108.6 300.6,50.5 292.3,50.5 292.3,30.7 281.6,24.2 281.6,18.1 275.9,14.2 275.9,9.2 271.9,6.8 271.9,0 265.8,0 265.8,6.8 
	261.8,9.2 261.8,14.2 256.1,18.1 256.1,24.2 245.4,30.7 245.4,50.5 237.5,50.5 237.5,108.6 228.1,108.6 228.1,250.4 214.4,250.4 
	214.4,188.5 199.1,188.5 199.1,126.5 165.4,126.5 165.4,188.5 150.2,188.5 150.2,250.4 134.2,250.4 134.2,227.6 125.7,227.6 
	125.7,78 76.9,78 76.9,227.6 66.3,227.6 66.3,215.1 51.1,210.4 51.1,205.9 43.1,203 43.1,199.3 37.4,197.6 37.4,192.6 28.6,192.6 
	28.6,197.6 23,199.3 23,203 14.9,205.9 14.9,210.4 0,215 0,475.6 "/>
</svg>
