<svg xmlns="http://www.w3.org/2000/svg" width="218.81" height="316.82" viewBox="0 0 218.81 316.82"><path d="M235.27,191.58C235,184.85,222.89,179,205,175.92V0h-57.8V175.91c-18.07,3.11-30.29,9-30.29,15.87a4.9,4.9,0,0,0,.08.94v.16H102.29v49.35h1.95V227.29h12.67v-1.94H104.24V222.1h12.67v-1.95H104.24V216.9h12.67V215H104.24v-3.25h12.67v-2H104.24v-3.25h12.67v-1.95H104.24v-3.24h12.67v-1.95H104.24v-4.55H117v121.6H235.31V191.58Z" transform="translate(-38.17)" fill="#373a36"/><path d="M237.71,136.18H185c0,18.54-6.85,62.74-12.38,105.2V194.56l-65.19,49.85V194.56l-69.27,53v69.26H257c0-46.13-19.27-149.51-19.27-180.62" transform="translate(-38.17)" fill="#373a36"/><rect x="14.21" y="258.38" width="13.21" height="13.21" fill="#fff"/><rect x="31.76" y="258.38" width="13.21" height="13.21" fill="#fff"/><rect x="14.21" y="275.06" width="13.21" height="13.2" fill="#fff"/><rect x="31.76" y="275.06" width="13.21" height="13.2" fill="#fff"/><rect x="86.86" y="258.38" width="13.21" height="13.21" fill="#fff"/><rect x="104.41" y="258.38" width="13.21" height="13.21" fill="#fff"/><rect x="86.86" y="275.06" width="13.21" height="13.2" fill="#fff"/><rect x="104.41" y="275.06" width="13.21" height="13.2" fill="#fff"/></svg>