<?xml version="1.0" encoding="utf-8"?>
<!-- Generator: Adobe Illustrator 25.2.1, SVG Export Plug-In . SVG Version: 6.00 Build 0)  -->
<svg version="1.1" id="Layer_1" xmlns="http://www.w3.org/2000/svg" xmlns:xlink="http://www.w3.org/1999/xlink" x="0px" y="0px"
	 viewBox="0 0 1248 558.5" style="enable-background:new 0 0 1248 558.5;" xml:space="preserve">
<style type="text/css">
	.st0{fill:#D0D1D1;}
</style>
<g>
	<g>
		<path class="st0" d="M1248,229.1c0-36.5-24.9-68.3-60.4-77c8.2-28.1-1.1-58.4-23.8-77c-9.7-50.3-58.4-83.1-108.6-73.4
			c-22.9,4.4-43.3,17.3-57.1,36.1c-41.2-26.2-94.5-23.5-132.9,6.7c-24.5-22.9-63-21.6-85.9,3c-2.5,2.7-4.8,5.6-6.8,8.8
			c-35.7-24.8-84.7-16-109.5,19.7c-2.2,3.1-4.1,6.4-5.8,9.8c-27-29.1-72.4-30.8-101.5-3.8c-10.6,9.9-18,22.7-21.2,36.8
			c-20.8-18.7-51.8-20.4-74.5-4.1c-18.2-33.3-59.9-45.5-93.2-27.3c-25.7,14.1-39.7,42.9-34.7,71.8c-26.5-18.1-62-15.4-85.5,6.4
			c-17.5-23.5-50.7-28.3-74.2-10.8c-12.2,9.1-19.9,23.1-21.1,38.3c-28.8-7.7-58.4,9.5-66.1,38.3c-0.2,0.7-0.4,1.5-0.5,2.2
			c-19.7-6.9-41.2,3.4-48.2,23c-3.2,9.1-2.8,19,1.1,27.8c-19.8,6.6-30.4,28-23.8,47.8c0.9,2.5,2,5,3.3,7.3
			c-10.2,10.9-13,26.8-7.2,40.5c-10.6,7.6-13,22.3-5.4,32.8s22.3,13,32.8,5.4c5.1-3.6,8.5-9.1,9.5-15.3c13.6-0.8,25.8-8.8,31.8-21
			c6.2,4.2,13.5,6.4,21,6.4c1.1,0,2.1-0.1,3.2-0.1c0.3,4.9,2.1,9.6,5,13.6c-0.4,0-0.7-0.1-1.1-0.1c-17.2,0-31.3,13.9-31.3,31.2
			c0,6.7,2.1,13.2,6.1,18.6c-12.3,7.4-16.4,23.3-9,35.6c0.2,0.3,0.4,0.6,0.6,0.9c-13.7,4.5-21.1,19.3-16.5,33c1.2,3.7,3.3,7.1,6,9.9
			c-5.4,6.3-4.7,15.8,1.6,21.3c6.3,5.4,15.8,4.7,21.3-1.6c2.4-2.7,3.7-6.2,3.6-9.8c0-1-0.1-2-0.3-2.9c6.2-1.8,11.5-5.9,14.8-11.4
			c11.4,8.9,27.8,6.8,36.6-4.5c5.3-6.7,6.9-15.6,4.4-23.8c8-4.7,12.9-13.2,12.9-22.5c0-0.2,0-0.5,0-0.7c13.6,4.7,28.5-2.6,33.2-16.2
			c2.9-8.5,1.3-17.8-4.3-24.8c10.9-1.1,20.5-7.8,25.1-17.7c3.3,7.2,9.1,12.9,16.4,16.1c-11.1,12.8-9.6,32.2,3.2,43.3
			c2.9,2.5,6.3,4.5,10,5.7c-7.3,7.9-6.8,20.2,1.1,27.5c0.9,0.8,1.8,1.5,2.9,2.2c-1.7,2.9-2.6,6.2-2.6,9.6c0,8.1,5,15.4,12.6,18.2
			c-4.4,4.3-4.5,11.4-0.2,15.9c4.3,4.4,11.4,4.5,15.9,0.2c4-3.9,4.5-10.1,1.3-14.6c7,4.4,16.3,2.4,20.8-4.7c3.1-4.9,3.1-11.2,0-16.1
			c7.2-5.7,8.5-16,2.9-23.3c12.7-3.2,20.3-16.1,17.1-28.8c-0.8-3-2.1-5.8-4-8.3c1.5,0.2,3,0.4,4.5,0.4c17,0,30.7-13.8,30.7-30.7
			c0-12.5-7.6-23.8-19.3-28.5c16.2-5.6,27-20.8,27-37.9c0-1.1-0.1-2.1-0.1-3.2c18.9,6,39.5,3.5,56.4-6.8
			c12.8,22.2,41.1,29.8,63.3,17c4.4-2.6,8.4-5.8,11.8-9.7c3.1,1.4,6.2,2.6,9.4,3.6c-9.8,9.3-10.1,24.8-0.8,34.5
			c3.9,4.1,9.1,6.7,14.8,7.4c-12.7,13.7-11.9,35.1,1.8,47.8c0,0,0.1,0.1,0.1,0.1c-9.8,10.8-9.1,27.5,1.7,37.3c1.4,1.3,3,2.5,4.7,3.4
			c-3.5,8.8,0.8,18.7,9.6,22.2c2,0.8,4.2,1.2,6.3,1.2c0.5,0,1.1,0,1.6-0.1c-2.6,5.6-0.1,12.3,5.5,14.9c5.6,2.6,12.3,0.1,14.9-5.5
			c0.7-1.5,1-3,1-4.6c0-0.2,0-0.4,0-0.6h0.2c9.4,0,17.1-7.6,17.1-17.1c0-2.4-0.5-4.7-1.5-6.9c1.2-0.6,2.3-1.2,3.3-2c0,0.3,0,0.6,0,1
			c0,3.5,1.3,6.9,3.7,9.5c-4.3,5.5-3.9,13.3,1,18.3c-4.9,3.8-5.9,10.8-2.1,15.7s10.8,5.9,15.7,2.1c2.8-2.1,4.4-5.5,4.4-9
			c0-0.6-0.1-1.3-0.2-1.9c0.8,0.1,1.6,0.2,2.4,0.2c7.7,0.1,14-6.1,14-13.8c0-1.7-0.3-3.4-0.9-5.1c0.7,0.1,1.5,0.1,2.2,0.1
			c10.5,0,18.9-8.5,18.9-18.9c0-3.9-1.2-7.7-3.5-10.9c12.8-3.3,20.4-16.4,17.1-29.1c-0.8-3.2-2.3-6.2-4.4-8.8
			c6.6-4.2,10.8-11.5,11-19.4c15,4.6,31.2-1.4,39.5-14.7c24.7,21.1,61.9,18.1,83-6.6c3.8-4.5,7-9.6,9.3-15
			c10.1,18.3,26,32.7,45.3,40.8c-0.1,0.6-0.1,1.3-0.1,1.9c0,1.4,0.1,2.8,0.4,4.2c-5.8-3.6-13.3-3-18.3,1.5
			c-8.7-7.4-21.8-6.3-29.2,2.4c-4.4,5.2-6,12.3-4.2,18.9c-9,2.4-15.3,10.5-15.5,19.8c-5.2-2.8-11.6-2.3-16.3,1.2
			c-8.4,0.7-14.7,8-14,16.4c0.1,1.4,0.4,2.8,0.9,4.1c-7.8,0.3-14.1,6.4-14.6,14.2c-5.6,2.6-8,9.3-5.4,14.9c0.7,1.6,1.8,2.9,3.2,4
			c-4.1,4.7-3.6,11.7,1.1,15.8c4.7,4.1,11.7,3.6,15.8-1.1c0.7-0.8,1.2-1.6,1.7-2.6c0.4,0,0.8,0.1,1.1,0.1c3.9,0,7.5-2,9.5-5.3
			c2,2.2,4.7,3.6,7.6,4c-0.3,0.9-0.4,1.9-0.4,2.9c0,6.2,5,11.2,11.2,11.3c6.2,0,11.2-5,11.3-11.2c0-2.8-1-5.5-2.9-7.5
			c0.9,0.2,1.8,0.3,2.7,0.3c7,0,12.7-5.7,12.7-12.7c0-0.7-0.1-1.5-0.2-2.2c9.8,5.8,22.5,2.6,28.4-7.2c0.9-1.5,1.6-3.2,2.1-4.9
			c6.4,2.8,13.9,0,16.7-6.4c0.7-1.6,1.1-3.4,1.1-5.2c0-0.5,0-1.1-0.1-1.6c9.4,6.6,22.3,4.3,28.8-5c2.5-3.5,3.8-7.7,3.8-12
			c0-0.9-0.1-1.8-0.2-2.8c2,0.8,4.1,1.3,6.2,1.6c-0.4,1.3-0.6,2.7-0.6,4.1c0,1,0.1,1.9,0.3,2.8c-7.4,2-11.7,9.6-9.8,17
			c0.1,0.2,0.1,0.4,0.2,0.7c-0.7-0.1-1.3-0.2-2-0.2c-5.7,0-10.4,4.6-10.4,10.4c0,1.7,0.4,3.3,1.2,4.8H853c-4.4,0.1-7.9,3.7-7.9,8.1
			c0,2.7,1.5,5.3,3.8,6.7c-4.2,1.4-6.4,6-5,10.2c1.4,4.2,6,6.4,10.2,5c3.2-1.1,5.4-4.2,5.4-7.6c0-0.4,0-0.7-0.1-1.1
			c1.1,0.4,2.2,0.6,3.4,0.6c5.8,0,10.4-4.7,10.4-10.4c0-0.7-0.1-1.4-0.2-2c3,1.7,6.6,1.9,9.7,0.4c0.2,1.7,0.8,3.3,1.9,4.6
			c-4.4,0-8,3.6-8,8c0,4.4,3.6,8,8,8s8-3.6,8-8c0-1.6-0.5-3.2-1.4-4.6h0.5c3.6,0,6.8-2.1,8.3-5.4c1.2,0.7,2.5,1,3.8,1
			c4.4,0,8-3.6,7.9-8.1c0-1.8-0.6-3.6-1.8-5c2.2-2,3.7-4.7,4.3-7.5c10.1-0.1,18.2-8.4,18.1-18.5c0-4.2-1.5-8.2-4.2-11.5
			c2.9-3.3,2.6-8.4-0.8-11.3c0,0,0,0-0.1-0.1c0.4-0.7,0.7-1.5,1-2.2c6.2,9.6,19.1,12.3,28.7,6c7.9-5.1,11.3-15,8.3-23.9
			c25.1,8,52.5,4.9,75.2-8.5c30.7,22.8,74,16.4,96.7-14.3c5.6-7.5,9.6-16.1,11.8-25.2c42.5-10.7,68.3-53.8,57.6-96.2
			c-0.7-2.8-1.6-5.6-2.6-8.3C1231,286.6,1248,259.1,1248,229.1"/>
	</g>
</g>
</svg>
