<?xml version="1.0" encoding="utf-8"?>
<!-- Generator: Adobe Illustrator 25.2.1, SVG Export Plug-In . SVG Version: 6.00 Build 0)  -->
<svg version="1.1" id="Layer_1" xmlns="http://www.w3.org/2000/svg" xmlns:xlink="http://www.w3.org/1999/xlink" x="0px" y="0px"
	 viewBox="0 0 162.9 183" style="enable-background:new 0 0 162.9 183;" xml:space="preserve">
<style type="text/css">
	.st0{fill:#D0D1D1;}
</style>
<path class="st0" d="M6.6,43.4c4.7,9.9,14.2,16.6,25.1,17.7c-5.6,7-7.2,16.3-4.3,24.8c4.7,13.6,19.5,20.9,33.2,16.2v0.7
	c0,9.3,4.9,17.8,12.9,22.5c-2.5,8.2-0.9,17,4.4,23.8c8.9,11.4,25.3,13.4,36.6,4.5c3.4,5.5,8.6,9.6,14.8,11.4
	c-0.9,4.6,0.3,9.3,3.4,12.8c5.4,6.3,15,7,21.3,1.6c6.3-5.4,7-15,1.6-21.3c2.7-2.8,4.8-6.2,6-9.9c4.5-13.7-2.8-28.4-16.5-33
	c0.2-0.3,0.4-0.6,0.6-0.9c7.4-12.3,3.3-28.3-9-35.6c4-5.4,6.1-11.9,6.1-18.6c0-17.2-14-31.2-31.3-31.2c-0.4,0-0.7,0.1-1.1,0.1
	c2.9-4,4.7-8.7,5-13.6c1,0.1,2.1,0.1,3.2,0.1"/>
<ellipse class="st0" cx="97.1" cy="25.5" rx="30.1" ry="25.5"/>
<ellipse class="st0" cx="52.8" cy="25.5" rx="30.1" ry="25.5"/>
<ellipse class="st0" cx="30.2" cy="40.9" rx="30.1" ry="25.5"/>
</svg>
