<svg id="Vontobel" xmlns="http://www.w3.org/2000/svg" viewBox="0 0 90 16"><defs><style>.cls-1{fill:#373a36;}</style></defs><title>Vontobel_RGB_graphite_90px</title><path class="cls-1" d="M67.26,12.54a2.83,2.83,0,0,1-2.81-3,2.83,2.83,0,0,1,2.81-3,2.88,2.88,0,0,1,2.9,3,2.88,2.88,0,0,1-2.9,3m.54-8.76a4,4,0,0,0-3.2,1.43V0H61.67V15h2.88V13.79a4,4,0,0,0,3.27,1.49c3,0,5.29-2.47,5.29-5.75s-2.28-5.75-5.3-5.75M46.44,6.69H43.15v4c0,1.37.72,1.86,1.64,1.86a4.28,4.28,0,0,0,2.05-.71l1.08,2.3a6.1,6.1,0,0,1-3.62,1.15c-3.05,0-4.09-1.92-4.09-4.75V.83h2.94V4.07h3.29ZM90,15H87.06V0H90ZM77.4,8.51h4.84a2.43,2.43,0,0,0-4.84,0m7.79,1a8.27,8.27,0,0,1-.06,1H77.39a2.64,2.64,0,0,0,2.81,2.27,4.41,4.41,0,0,0,2.76-1l1.73,1.89A6.63,6.63,0,0,1,80,15.28a5.4,5.4,0,0,1-5.67-5.72c0-3.44,2.25-5.78,5.52-5.78s5.3,2.33,5.31,5.74m-33.94,0a2.91,2.91,0,1,0,5.81,0,2.91,2.91,0,1,0-5.81,0m8.82,0a5.91,5.91,0,0,1-11.82,0,5.91,5.91,0,0,1,11.82,0M37.81,8v7H34.87V9c0-1.58-.79-2.45-2.13-2.45A2.24,2.24,0,0,0,30.43,9v6H27.48V4.07h2.86V5.36a3.66,3.66,0,0,1,3.21-1.58A4.07,4.07,0,0,1,37.81,8M17.08,9.53a2.91,2.91,0,1,0,5.81,0,2.91,2.91,0,1,0-5.81,0m8.82,0A5.68,5.68,0,0,1,20,15.28a5.67,5.67,0,0,1-5.9-5.75A5.67,5.67,0,0,1,20,3.78,5.68,5.68,0,0,1,25.9,9.53M9.57,15H5.64L0,0H3.37L7.63,11.86,11.92,0h3.29Z"/></svg>