<svg xmlns="http://www.w3.org/2000/svg" width="200" height="200" viewBox="0 0 200 200"><path d="M13.78,49.33,49.33,13.78c-.5.29-1,.59-1.51.9L14.68,47.82C14.37,48.32,14.07,48.83,13.78,49.33Z" transform="translate(0)"/><path d="M9,58.6,58.6,9l-1.13.53-48,48C9.3,57.84,9.12,58.22,9,58.6Z" transform="translate(0)"/><path d="M5.9,66.09,66.09,5.9l-1,.35L6.25,65.13Z" transform="translate(0)"/><path d="M3.79,72.64,72.64,3.79,71.78,4,4,71.78C4,72.07,3.87,72.35,3.79,72.64Z" transform="translate(0)"/><path d="M2.31,78.56,78.56,2.31l-.77.17L2.48,77.79C2.42,78,2.37,78.3,2.31,78.56Z" transform="translate(0)"/><path d="M1.27,84,84,1.27l-.73.12L1.39,83.31Z" transform="translate(0)"/><path d="M.66,88.49c0,.22-.05.45-.07.68L89.17.59l-.68.07Z" transform="translate(0)"/><path d="M.18,94,94,.18l-.6,0-.35.31L.22,93.37C.21,93.58.2,93.8.18,94Z" transform="translate(0)"/><path d="M0,98.62,98.62,0h-.54L97.5.53,0,98C0,98.21,0,98.41,0,98.62Z" transform="translate(0)"/><path d="M.05,103,103,.05l-.52,0-.56.5L0,102.44C0,102.64,0,102.83.05,103Z" transform="translate(0)"/><path d="M.26,107.26l107-107-.53,0-.34.3L.23,106.69Z" transform="translate(0)"/><path d="M.58,110.78l.06.54L111.32.64l-.54-.06Z" transform="translate(0)"/><path d="M1.16,115.25,115.25,1.16l-.53-.08L1.08,114.72C1.11,114.89,1.13,115.07,1.16,115.25Z" transform="translate(0)"/><circle cx="100" cy="100" r="100" fill="#ffd400"/><path d="M110.26,77.15v-.58a19.41,19.41,0,0,1,1-3.88A23.89,23.89,0,0,0,112.6,67V62.68A4.23,4.23,0,0,0,108.88,60a4.37,4.37,0,0,0-3.54-1.47,4.65,4.65,0,0,0-3.26-1.15V52.7a2.33,2.33,0,0,0-4.65-.3,1.5,1.5,0,0,0,0,.3V63.18a5.3,5.3,0,0,0-2.71-1.48,1.94,1.94,0,0,0-1.46.46c-1.35,1.15,0,3.15,1.62,5.68s3.71,5.67,3.71,8.73v.58Z" transform="translate(0)" fill="#1d1e1c"/><path d="M102.78,56.71a.56.56,0,0,0,.8,0h0a5.4,5.4,0,1,0-7.64,0h0a.58.58,0,0,0,.81,0,.57.57,0,0,0,0-.8v0a4.25,4.25,0,1,1,6,0h0a.57.57,0,0,0,0,.81Z" transform="translate(0)" fill="#1d1e1c"/><path d="M93.67,57.59a.56.56,0,0,0,.78.12l0,0a.57.57,0,0,0,.11-.8h0a6.52,6.52,0,0,1-1.32-3.33V52.22a6.55,6.55,0,0,1,13,0v1.34A6.64,6.64,0,0,1,105,56.9a.57.57,0,0,0,.1.8h0a.48.48,0,0,0,.35.12.55.55,0,0,0,.45-.22,7.62,7.62,0,0,0,1.55-3.91c0-.26,0-.52,0-.79s0-.52,0-.78a7.67,7.67,0,0,0-4.2-6.11,7.77,7.77,0,0,0-6.91,0,7.65,7.65,0,0,0-4.2,6.11,5.08,5.08,0,0,0,0,.78,5.21,5.21,0,0,0,0,.79A7.54,7.54,0,0,0,93.67,57.59Z" transform="translate(0)" fill="#1d1e1c"/></svg>