<?xml version="1.0" encoding="utf-8"?>
<!-- Generator: Adobe Illustrator 25.2.1, SVG Export Plug-In . SVG Version: 6.00 Build 0)  -->
<svg version="1.1" id="Layer_1" xmlns="http://www.w3.org/2000/svg" xmlns:xlink="http://www.w3.org/1999/xlink" x="0px" y="0px"
	 viewBox="0 0 378.8 378.8" style="enable-background:new 0 0 378.8 378.8;" xml:space="preserve">
<style type="text/css">
	.st0{fill:#1D1D1B;fill-opacity:0;}
</style>
<path d="M237.9,189.4c0,26.8-21.7,48.5-48.5,48.5s-48.5-21.7-48.5-48.5s21.7-48.5,48.5-48.5C216.2,140.9,237.9,162.6,237.9,189.4
	C237.9,189.4,237.9,189.4,237.9,189.4z M189.4,158.5c-17.1,0-30.9,13.8-30.9,30.9s13.8,30.9,30.9,30.9s30.9-13.8,30.9-30.9l0,0
	C220.3,172.3,206.5,158.5,189.4,158.5z"/>
<path d="M202.9,145.9L191.4,3.2c0-0.2,0-0.3-0.1-0.5c0-0.2-0.1-0.4-0.2-0.6c-0.6-1.7-2.6-2.6-4.3-2c0,0,0,0,0,0l-0.1,0.1
	c-0.2,0.1-0.4,0.2-0.5,0.3l-0.1,0.1c-0.2,0.1-0.3,0.2-0.4,0.4l-0.1,0.1c-0.1,0.1-0.2,0.2-0.3,0.4l-0.1,0.2L185,1.9
	c-0.1,0.2-0.2,0.4-0.2,0.6c0,0,0,0.1,0,0.1c0,0.1-0.1,0.3-0.1,0.4l0,0l-8.8,142.9L202.9,145.9z"/>
<path class="st0" d="M175.9,232.9l11.5,142.7c0,0.3,0.1,0.7,0.2,1c0.6,1.7,2.6,2.6,4.3,2c0,0,0,0,0,0l0.1-0.1
	c0.2-0.1,0.4-0.2,0.5-0.3l0.1-0.1c0.2-0.1,0.3-0.2,0.4-0.4l0.1-0.1c0.1-0.1,0.2-0.2,0.3-0.4l0.1-0.2l0.1-0.2
	c0.1-0.2,0.2-0.4,0.2-0.6c0,0,0-0.1,0-0.1c0-0.1,0.1-0.3,0.1-0.4l0,0l8.8-142.9L175.9,232.9z"/>
<path class="st0" d="M232.9,202.9l142.7-11.5c0.3,0,0.7-0.1,1-0.2c1.7-0.6,2.6-2.6,2-4.3c0,0,0,0,0,0l-0.1-0.1
	c-0.1-0.2-0.2-0.4-0.3-0.5l-0.1-0.1c-0.1-0.2-0.2-0.3-0.4-0.4l-0.1-0.1c-0.1-0.1-0.2-0.2-0.4-0.3l-0.2-0.1l-0.2-0.1
	c-0.2-0.1-0.4-0.2-0.6-0.2c0,0-0.1,0-0.1,0c-0.1,0-0.3-0.1-0.4-0.1l0,0l-142.9-8.8L232.9,202.9z"/>
<path class="st0" d="M145.9,175.9L3.2,187.4c-0.2,0-0.3,0-0.5,0.1c-0.2,0-0.4,0.1-0.6,0.2c-1.7,0.6-2.6,2.6-2,4.3c0,0,0,0,0,0
	l0.1,0.1c0.1,0.2,0.2,0.4,0.3,0.5l0.1,0.1c0.1,0.2,0.2,0.3,0.4,0.4l0.1,0.1c0.1,0.1,0.2,0.2,0.4,0.3l0.2,0.1l0.2,0.1
	c0.2,0.1,0.4,0.2,0.6,0.2h0.1c0.1,0,0.3,0.1,0.4,0.1h0l142.9,8.8V175.9z"/>
<path d="M220.3,222.8l132.6,54c0.1,0.1,0.3,0.1,0.4,0.1c0.2,0.1,0.4,0.1,0.6,0.1c1.8,0.2,3.5-1.1,3.7-3c0,0,0,0,0,0
	c0-0.1,0-0.1,0-0.2c0-0.2,0-0.4,0-0.6v-0.1c0-0.2-0.1-0.4-0.1-0.5v-0.1c-0.1-0.1-0.1-0.3-0.2-0.4l-0.1-0.2l-0.1-0.2
	c-0.1-0.2-0.3-0.3-0.4-0.5h-0.1c-0.1-0.1-0.2-0.2-0.3-0.2l0,0l-123.7-72.2L220.3,222.8z"/>
<path d="M158.5,222.8l-132.6,54c-0.1,0.1-0.3,0.1-0.4,0.1c-0.2,0.1-0.4,0.1-0.6,0.1c-1.8,0.2-3.5-1.1-3.7-3c0,0,0,0,0,0
	c0-0.1,0-0.1,0-0.2c0-0.2,0-0.4,0-0.6v-0.1c0-0.2,0.1-0.4,0.1-0.5v-0.1c0.1-0.1,0.1-0.3,0.2-0.4l0.1-0.2l0.1-0.2
	c0.1-0.2,0.3-0.3,0.4-0.5h0.1c0.1-0.1,0.2-0.2,0.3-0.2l0,0l123.6-72.2L158.5,222.8z"/>
</svg>
