<svg xmlns="http://www.w3.org/2000/svg" width="87.81" height="223.49" viewBox="0 0 87.81 223.49"><polygon points="60.05 208.03 53.74 209.02 54.02 214.7 59.58 216.12 60.05 208.03" fill="#efebd7"/><polygon points="59.26 214.42 59.89 211.19 68.02 217.65 73.82 220.31 72.35 223.49 64.07 223.49 60.37 221.75 54.77 221.52 51.85 220.1 53.88 211.92 55.24 214.34 59.26 214.42" fill="#1d1d1b"/><polygon points="40.07 208.03 46.38 209.02 46.1 214.7 40.54 216.12 40.07 208.03" fill="#efebd7"/><polygon points="40.86 214.42 40.23 211.19 32.1 217.65 26.3 220.31 27.77 223.49 36.05 223.49 39.75 221.75 45.35 221.52 48.27 220.1 46.23 211.92 44.88 214.34 40.86 214.42" fill="#1d1d1b"/><polygon points="35.58 90.11 50.19 90.11 64.81 90.11 69.75 120.18 65.44 153.41 60.71 209.77 53.56 210.33 52.93 179.69 52.93 162.45 52.09 155.09 53.14 121.86 50.19 120.92 47.25 121.86 48.3 155.09 47.46 162.45 47.46 179.69 46.83 210.33 39.68 209.77 34.95 153.41 30.64 120.18 35.58 90.11" fill="#c7c6c5"/><polygon points="37.6 22.87 37.76 16.4 44.07 11.2 48.5 8.38 56.05 11.2 61.8 11.66 62.52 22.87 63.94 22.87 63.94 28.23 61.57 29.97 61.57 33.44 55.89 38.64 55.89 43.84 50.06 51.42 44.22 43.84 44.22 38.64 38.55 33.44 38.55 29.97 36.18 28.23 36.18 22.87 37.6 22.87" fill="#efebd7"/><path d="M434,370.56l-11.55,11.36-.12-.64-.53-27h1.48l3.36,3.16Zm9.88,2.73v-4.83l-15.24-27.55-7.15-2.63L412,332.6l-5.83,7.57-5.84-7.57-9.51,5.68L385.38,340l-2.14,6.08-4.76,26.11-1.77,32.43h6.84l4.28-25.93,2.48-15L390,381.28,385,407.47l1.89,1.26,19.25.84,19.24-.84,1.89-1.26L423,385l1.62,2.21Z" transform="translate(-356.1 -288.76)" fill="#1d1d1b"/><polygon points="26.3 115.87 27.24 121.66 25.24 131.44 23.77 131.44 23.77 125.65 22.2 128.49 22.2 134.14 20.62 134.14 20.62 123.13 21.78 120.6 21.78 115.87 26.3 115.87" fill="#efebd7"/><path d="M418.5,403.21l1-1.53-.11-1.52-7.78-11.73-1.84-.68-5.5,4.26ZM378.59,416.4l9.59-1.73-6.21-7.2,17.77-19,2.58,2,7.46-6,2.84.58,8.15,13.19.79,3.63L420,404.37l3,2.36-22,22.82L393.66,421l-16-1.25-4.94,5.36-.52-12.83Z" transform="translate(-356.1 -288.76)" fill="#4e4a40"/><polygon points="68.43 97.89 65.04 101.44 65.04 104.28 60.46 107.67 57.39 104.44 55.69 100.73 58.96 97.42 62.79 97.22 65.75 94.66 68.43 97.89" fill="#efebd7"/><polygon points="35.11 32.36 28.95 18.89 34.59 5.66 43.34 0 55.69 3.91 58.73 3.35 65.22 11.03 66.9 20.1 65.09 32.36 66.57 42.79 55.89 41.81 55.89 38.77 61.31 33.51 62.46 22.01 60.16 14.46 50.63 9.94 47.19 14.87 37.65 18.42 37.58 22.67 36.34 23.08 36.26 28.17 38.81 30.06 38.56 33.1 44.23 38.52 44.15 41.72 33.96 42.79 35.11 32.36" fill="#1d1d1b"/><polygon points="13.09 180.82 13.09 174.69 16.7 168.92 16.7 165.09 15.66 161.87 12.67 157.88 12.67 157.78 12.63 157.83 12.6 157.78 12.6 157.88 9.61 161.87 8.56 165.09 8.56 168.92 12.18 174.69 12.18 180.82 9.95 176.37 6.26 173.93 0 173.09 1.74 180.33 5.92 184.02 12.25 185.27 12.25 190.63 12.6 190.63 12.67 190.63 13.02 190.63 13.02 185.27 19.35 184.02 23.52 180.33 25.27 173.09 19 173.93 15.31 176.37 13.09 180.82" fill="#1d1d1b"/></svg>