<?xml version="1.0" encoding="utf-8"?>
<!-- Generator: Adobe Illustrator 25.2.1, SVG Export Plug-In . SVG Version: 6.00 Build 0)  -->
<svg version="1.1" id="Layer_1" xmlns="http://www.w3.org/2000/svg" xmlns:xlink="http://www.w3.org/1999/xlink" x="0px" y="0px"
	 viewBox="0 0 491.8 234.5" style="enable-background:new 0 0 491.8 234.5;" xml:space="preserve">
<style type="text/css">
	.st0{fill:#00736A;}
	.st1{fill:#676966;}
	.st2{fill:#555854;}
	.st3{fill:#DDDDDD;}
	.st4{fill:#373A36;}
</style>
<rect x="370.6" y="141" class="st0" width="50.5" height="13.5"/>
<rect x="370.6" y="124.1" class="st0" width="50.5" height="13.5"/>
<rect x="370.6" y="105.9" class="st0" width="50.5" height="13.5"/>
<rect x="370.6" y="87.2" class="st0" width="50.5" height="13.5"/>
<rect x="315.5" y="141" class="st0" width="50.5" height="13.5"/>
<rect x="315.5" y="124.1" class="st0" width="50.5" height="13.5"/>
<rect x="315.5" y="105.9" class="st0" width="50.5" height="13.5"/>
<rect x="315.5" y="87.2" class="st0" width="50.5" height="13.5"/>
<rect x="315.5" y="70.1" class="st0" width="50.5" height="13.5"/>
<rect x="260.4" y="141" class="st0" width="50.5" height="13.5"/>
<rect x="260.4" y="124.1" class="st0" width="50.5" height="13.5"/>
<rect x="260.4" y="105.9" class="st0" width="50.5" height="13.5"/>
<rect x="260.4" y="87.2" class="st0" width="50.5" height="13.5"/>
<rect x="260.4" y="70.1" class="st0" width="50.5" height="13.5"/>
<rect x="204.8" y="141" class="st0" width="50.5" height="13.5"/>
<rect x="204.8" y="124.1" class="st0" width="50.5" height="13.5"/>
<rect x="204.8" y="105.9" class="st0" width="50.5" height="13.5"/>
<rect x="204.8" y="87.2" class="st0" width="50.5" height="13.5"/>
<rect x="204.8" y="70.1" class="st0" width="50.5" height="13.5"/>
<rect x="73.8" y="141" class="st0" width="50.5" height="13.5"/>
<rect x="73.8" y="124.1" class="st0" width="50.5" height="13.5"/>
<rect x="73.8" y="105.9" class="st0" width="50.5" height="13.5"/>
<rect x="73.8" y="87.2" class="st0" width="50.5" height="13.5"/>
<rect x="73.8" y="70.1" class="st0" width="50.5" height="13.5"/>
<rect x="16" y="141" class="st0" width="50.5" height="13.5"/>
<rect x="16" y="124.1" class="st0" width="50.5" height="13.5"/>
<rect x="16" y="105.9" class="st0" width="50.5" height="13.5"/>
<polyline class="st1" points="42.6,137.6 51.5,158.1 402.9,158.1 422.8,137.6 491.8,137.6 430.7,219.2 440,234.5 242.9,233.5 
	34.3,233.5 0,137.6 42.6,137.6 "/>
<rect x="130.3" y="37" class="st2" width="65.5" height="117.6"/>
<polygon class="st3" points="137.1,66.8 189.9,66.8 182.6,43.9 142.7,43.9 "/>
<path class="st4" d="M166,16.5c0,1.7-1.3,3-3,3s-3-1.3-3-3s1.3-3,3-3S166,14.9,166,16.5z"/>
<path class="st4" d="M164.4,29.9c0,0.7-0.6,1.3-1.3,1.4l0,0c-0.7,0-1.4-0.6-1.4-1.3c0,0,0,0,0,0V16.6c0-0.7,0.6-1.4,1.4-1.4l0,0l0,0
	c0.7,0,1.3,0.6,1.3,1.4V29.9z"/>
<path class="st4" d="M154,16.5c0-5,4-9,9-9s9,4,9,9c0,0.6,0.5,1,1,1c0.6,0,1-0.5,1-1c0.2-6.1-4.6-11.3-10.8-11.4
	c-6.1-0.2-11.3,4.6-11.4,10.8c0,0.2,0,0.4,0,0.7c0,0.6,0.5,1,1,1C153.5,17.6,154,17.1,154,16.5L154,16.5z"/>
<path class="st4" d="M149.8,16.3c0-7.3,6-13.3,13.3-13.3c7.3,0,13.3,5.9,13.3,13.3c-0.2,0.8,0.4,1.6,1.2,1.8s1.6-0.4,1.8-1.2
	c0-0.2,0-0.4,0-0.6C179.3,7.3,172,0,163,0s-16.3,7.3-16.3,16.3c0.1,0.8,0.8,1.5,1.7,1.4C149.1,17.7,149.7,17.1,149.8,16.3
	L149.8,16.3z"/>
</svg>
