<svg xmlns="http://www.w3.org/2000/svg" width="67.08" height="86.28" viewBox="0 0 67.08 86.28"><path d="M66.1,72.63c-.55-.69-.87-2.16-2-1.88a2.55,2.55,0,0,0-.75-.46c0-.29,0-.44-.31-.47-.49-.06-.86-.28-1-.06l0,.08c-2.46-.74-3.44-2.29-4.9-3.65a11.37,11.37,0,0,0-3.43-2.43h0l-.08,0c-.17-.07-.35-.13-.54-.19l-.25-.08a7,7,0,0,0-.87-.2c-2.27-.38-2.27-.49-1.68-2.49a28.22,28.22,0,0,1,1.15-3.06c1,.28.84.84,1.32-1.06.2-.8.71-2.4,1.26-4.2.27.43.64.77.85.64s0-.49-.22-.87a6.06,6.06,0,0,1-.36-.66l0-.12c.18.23.35.5.58.79s.55.83.83.66,0-.55-.17-.93-.34-.78-.57-1.18a3,3,0,0,1-.28-.69l0-.05a.88.88,0,0,1,.11.14c.28.45.19.28.43.66s.46.78.7,1.09.22.27.4.18.12-.41,0-.75-.38-.9-.51-1.18-.07-.21,0-.22.12,0,.21.15a1.37,1.37,0,0,1,.21.72c.05.24.11.47.37.42s.14-.45.11-.78l0-.28a.19.19,0,0,1,0-.08,1.12,1.12,0,0,0-.06-.23s0-.05,0-.08h0a1.75,1.75,0,0,0-.25-.49,11.21,11.21,0,0,1-.73-1.71,2.29,2.29,0,0,0-.17-.27,11.84,11.84,0,0,0,.36-2.39A20.78,20.78,0,0,0,55,39.12c-.05-.17-.09-.33-.12-.47,0-.72,0-1.4,0-2,0-.08,0-.15,0-.23l0-.27a.26.26,0,0,0,.3-.2c.17-.6.6-2.7.38-2.78a.75.75,0,0,0-.18-.07c.07-.43.15-.83.22-1.14C56,30.78,57.14,26,56,24.35c-.64-1-1.33-2.16-1.84-3.08a1.73,1.73,0,0,0,1.2-.09.48.48,0,0,0,.32-.23s0,0,0,0c.66-.78-.18-1.4.59-1.74s1.23-.38,1.07-.85l-.05-.12a1.35,1.35,0,0,0-.13-.21c-.59-.77-2.36-2-1.07-2.25a3.47,3.47,0,0,0,1.25-.41c.06,0,.16-.12.13-.18s-.77-1-1-1.05a3.22,3.22,0,0,1-.77-.95c.23,0-.2,0,0,0-.21,0,.21,0,0,0-.49-.9-.71-1.94-1.05-2.4-.52-.7-2.44-2.66-3.84-2.66s-2-.18-3.4.78c-.62.25-.55.66-.55,1.07,0,.15,0,.2.1.2A2.86,2.86,0,0,0,45.83,12a2.38,2.38,0,0,0,.11.53c-.11-.11-.23-.11-.52-.11-.24.21-.22.46-.24.87v.21h0v.28c0,.06,0,.1,0,.14s0,0,0,0a.19.19,0,0,0,0,.1h0a.07.07,0,0,0,.08,0c.18-.16-.36.65,0,.83s.18.59,0,.85h0a.41.41,0,0,0,0,.08.61.61,0,0,0-.05.12v.22h0a2,2,0,0,0,.15.48c.15.37-.14.74-.07,1a1,1,0,0,0,.59.52h0l.06,0a1.54,1.54,0,0,0,.48.12,1.84,1.84,0,0,1,.38.08h0a1.69,1.69,0,0,1,.36.17l0,0a1.35,1.35,0,0,1,.28.25s0,0,0,0a.79.79,0,0,1,.14.34.3.3,0,0,1,0,.1c0,.62.33,1.86,0,2.24h0l-.17,0h-.22a5.65,5.65,0,0,0-.69.09c-.61.07-1.37.49-1.71.49s-.68.23-1.13.79-1.67,1.4-2,1.86-.15,1-.3,2.08a12.35,12.35,0,0,0-.26,4.16c.26,1.77.64,3.93,1.13,3.89s.45-.11.87-.64a4.22,4.22,0,0,1,.39.85,5.69,5.69,0,0,1,.13.67c-.35-.1-.23.68-.2,1.32a1,1,0,0,0,.05.33,2.06,2.06,0,0,1-.21.48c-.51.82,0,1.7-.36,2.51a4.62,4.62,0,0,0-.6,2.63c.15,1.07-.47,3.69-.47,5.63s-.33,6.06-.5,7.16c-.08.5.17.63.55.65v0c0,.09,0,.17,0,.26h0c.09,1,.23,1.91.23,2.65a8.34,8.34,0,0,0,.7,3.9,18.38,18.38,0,0,1,1.3,5.31c.22,1.79,2,6.06,2,8.07A9.66,9.66,0,0,1,46,79.1c-.12,0-.19.35-.13.5a8.62,8.62,0,0,1-.54,1.32A8.2,8.2,0,0,1,44,83.07c-.09-.31-.15-.54-.71-.42s-.34.47-.37,1.13c-.67.28-1.07.33-1,.55s-.63.57-.46.87l-.14.11a.67.67,0,0,0,.18.39l-.41.16a4.38,4.38,0,0,0,2.57.4l.54,0h0a4.24,4.24,0,0,0,1.15-.13c1.09-.09,2.24-.21,3.26-.24,1.55,0,2.2.26,2.14-.44a.33.33,0,0,1,0-.1c.2-.12.34-.4.45-1,.33-1.62,1.14-3.3.44-3.52a3.42,3.42,0,0,0-.61-.07,2.13,2.13,0,0,0-.2-1.06l-.06-.14c.11-.15.13-.32,0-.62-.23-.55-.35-.77-.57-.67-.36-.81-.51-1.44-.51-3.67,0-1.25.11-2.21.17-3.11,0-.21,0-.41,0-.62a1.48,1.48,0,0,0,0-.21c0-.24,0-.48,0-.73a2.45,2.45,0,0,0,0-.27c0-.19-.05-.38-.09-.59a1.7,1.7,0,0,0-.06-.31,6.43,6.43,0,0,0-.17-.66c0-.1-.05-.21-.09-.31s-.12-.36-.19-.54c.9.45,1.72.88,2.56,1.29,1.68.81,4.82,2.33,5.85,3a5,5,0,0,1,2,1.94c-.21,0,0,.34.16.43a.25.25,0,0,0,0,.07c.24.92.69,2.41.84,3.38-.16,0-.33,0-.51.3-.44.33-.28.44-.17,1.19.06.4.15.22.29,0a1.53,1.53,0,0,0-.45,1,.91.91,0,0,0,.39.72s0,0,0,0c.32.49.76.71,1.52.11l.64-.5a1.87,1.87,0,0,0,.73-.59A7.17,7.17,0,0,0,65,77.61a16.53,16.53,0,0,1,2-2.92C67.34,74.2,66.75,73.44,66.1,72.63ZM46.18,23.17l0,0h0Zm-.61,1,0,.05Zm-1.92,2.15c.41-.42.41-.83,1.32-1l.12,0a5.73,5.73,0,0,1-.81,1.79,3.47,3.47,0,0,0-.58.76C43.51,26.79,43.25,26.73,43.65,26.33Z" fill="#373a36" fill-rule="evenodd"/><path d="M28.31,18.12c0-1.41-.2-2.93-.76-2.83s-3.13-1.56-4.49-2.37l-.76-.44-.15-.22.14.21c-.29-.16-.57-.31-.82-.42v0c0-.43.4-.47.32-.86s.31-1.14.08-1.65l-.07-.16a8.7,8.7,0,0,0,0-2A4.54,4.54,0,0,1,22,6.1s0,0,0,0,0-.22,0-.25a1.88,1.88,0,0,0,0-.33,5.15,5.15,0,0,0-.85-2.14,1.92,1.92,0,0,0,.34-1.13c0-.75-1.17-2.36-1.25-1.65S18.18-.08,18.38.24s-1.77-.63-1.85,0-1.68-.28-2.08.9-.78.31-1.14,1.33a3.17,3.17,0,0,0-.19,2,34.73,34.73,0,0,1,.27,3.72c0,.79.4,2,.79,2a.34.34,0,0,0,.27-.26c0,.48,0,.8-.07,1.24h0a2.43,2.43,0,0,0,0-.27.92.92,0,0,0-.25.47,33.73,33.73,0,0,1-5.45,2.51,3.85,3.85,0,0,0-1.11.35s-1,.05-1.11,1.41-.51.36-.36,1.87-.2.05-.2,1.77-.5,1.51-1.21,2.68a31,31,0,0,0-1.51,3A5.14,5.14,0,0,0,3.37,29c.65,1.11,1,.36,2.17.31a6.21,6.21,0,0,0,2.73-.46c.3-.3.45-.4.45.31s-.05,3.73-.5,4.49-.87.91-.56,1.26-.41,1.87-.46,2.73a16.78,16.78,0,0,1-.75,3c-.2.65-.46,2.72-.66,3.38a1,1,0,0,0,.34,1.11c-.86,1.45-1.31,4.37-1.49,6.1s-.77,4.52-.77,6.15-.29,4.81.48,5.77a5.22,5.22,0,0,1,.72,1.12l0,.05.12.31a.5.5,0,0,0,0,.13c0,.1.05.21.07.31a.83.83,0,0,1,0,.15c0,.12,0,.24,0,.37s0,.08,0,.13a3.45,3.45,0,0,1,0,.45s0,0,0,.07a3.89,3.89,0,0,1-.1.56l-.06.25h0a34,34,0,0,0-.68,4.48.28.28,0,0,1,0,.09c0,.2,0,.39,0,.56h0c0,.2,0,.43,0,.68a6.48,6.48,0,0,0-.06.76v0h0a1.6,1.6,0,0,0,.38,1.09q-.16.21-.33.39c-1.34-.33-2,.34-2,1.73a7.75,7.75,0,0,0-.87.71,1.59,1.59,0,0,0-.58,1.51,6.53,6.53,0,0,0-.81.47c-.5.39-.39,1,1.08,1a7.27,7.27,0,0,0,3.74-.44A12.39,12.39,0,0,1,7.92,79c.81-.25,1.87-.22.15-1.64.57-.36,1.13-.68,1.66-1,.81-.4,1.67-.44,1.5-2,.62-.74-.5-2.15-.44-5.86.07-4.25-.77-6.77-.72-8.26a1.84,1.84,0,0,1,.25-.92,1.37,1.37,0,0,1,.18-.24c1.16-1.15,2-6.15,3.08-7.4l.22-.27.12-.16.09-.12c.34-.48.68-1,1-1.4l0,0,.15-.2,0-.06.12-.13c.28-.3.47-.29.47.36,0,1.63,1,9.13,2,11.24s3.26,9.51,2.88,11.44c-.34,1.69-2.16,4.5-1.61,5.47-1.26,1-2.74,2-3.68,2a.75.75,0,0,0-.75.91c-.87.08-.39.92,1.62.92s5.15-.35,7-.44c1.25-.07,2.27-.36,2.11-1,.88-.58,1.35-1.62.83-3.31a7.87,7.87,0,0,0,.05-2.5c-.08-.84-.21-1.86-.39-3.11-.46-3.24-1-8.11-1.32-12-.13-1.76-.22-3.32-.22-4.43,0-1.34,0-2.75.06-4.14A38.29,38.29,0,0,1,25,44.46h0a1.84,1.84,0,0,0,.12.68c.35.76,2.07,2,2,.86a9,9,0,0,1,0-2.32c.15-1.11-.46-1.47-.76-2s-.15-.61.45-1.16A5.67,5.67,0,0,0,28,36.6c-.1-1.62.91-3.54,1.16-4.65a38.21,38.21,0,0,0,0-8.48C28.86,20.44,28.31,19.53,28.31,18.12ZM15.63,8.91a.17.17,0,0,0,0,.07h-.06a1.17,1.17,0,0,0,.05-.11Zm-.15-1c-.1-.22-.19-.53-.31-.85A3.6,3.6,0,0,1,15.48,7.86Zm-1,1.27Z" fill="#373a36" fill-rule="evenodd"/></svg>