<svg xmlns="http://www.w3.org/2000/svg" width="311.81" height="338.45" viewBox="0 0 311.81 338.45"><path d="M307.83,311.24V297.76a.78.78,0,0,0,0-.16l0-.1-.05,0c-.15-.6-.8-1-1.65-1.26l-7.2-2.65a1.31,1.31,0,0,0-1.24.25l-11.61-4.2.27-.91-2.58-.93a1.34,1.34,0,0,0-1.42.48L236.13,271.5a1.47,1.47,0,0,0-.85-1.36l-1.63-.58,1.13-2c.46-.83-.26-1.86-1.36-2.68l4.88-9C264,259.39,255,254,266.14,239.65c13.13-16.9,30.59-41.31,36.61-47.13s10.32-10,4.13-13.52c-3.84-2.21-10.9-6.28-17.11-9.65l-.2-.11h0c-3.76-2-7.18-3.79-9.36-4.7-5.83-2.44-12.21.76-27.6-2.06-1.82-.33-3.42-.68-4.83-1h0c-8.31-2.08-10.31-4.37-13.43-4.93l-.11,0-.29-.05-.17,0-.24,0h-1.13l-.28,0h-.22l-.52.05c-4.51,0-5.64,2.45-5.64,2.45s11.27,8.64,18,16.71,15.21,19.34,11.45,22c-1.55,1.09-4.42,3.14-7.45,5.32a10.94,10.94,0,0,0-9-4.65,10.83,10.83,0,0,0-9.93,6.23,16.68,16.68,0,0,0-3.61-3.33c-1.56-.78-4.55,1-8.57,3.14l-26-23.52.4-.45-1.89-2a1.32,1.32,0,0,0-1.43-.22l-18.11-16.35,1.16-1.28-14.86-13.56a5.27,5.27,0,0,0,.14-.75c.27-2.48-1.1-6.63-4.83-9.53s-5,1-8.95,2.34a2.21,2.21,0,0,0-1.43-.33c-2.9.29-8.44,2-11.35-.87s-8.72-12.81-16-24.45a67.89,67.89,0,0,1-4.68-9c.11-1.54.21-2.92.31-4.11,1.11-13.64-4.7-32.34-11.07-41.84,1.39.69,2.5.94,3.11.53h0a1,1,0,0,0,.23-.22.25.25,0,0,0,0-.07,1.05,1.05,0,0,0,.13-.26.56.56,0,0,0,0-.12,1.91,1.91,0,0,0,.08-.45c.12-2.27.24-4.46.46-6.51.34-.09.44-.28.23-.55,5,1.44,7.38-5,11.81-13.91a27,27,0,0,0,3.11-13.41c.87.63,1.57-7.07,1.27-12.51C118.14,4.39,104.26,0,94.77,0c-11,.27-12.67,13.49-12,24a9.26,9.26,0,0,0,.3,4.18,1,1,0,0,0,0,.18c.49,3,1.16,9.22.33,14a4,4,0,0,0,.49,2.2c-2-1.14-3.56-1.65-4.46-1.35h0a8.43,8.43,0,0,0-4.43-6.43h0l-.17-.09-.6-.31-.62-.3L73,35.86c-.24-.09-.47-.19-.71-.27l-.58-.19c-.26-.08-.52-.17-.79-.24L70.33,35l-.84-.21-.6-.12L68,34.49l-.63-.1-.86-.15-.76-.11L65,34l-1.51-.18c-24.35.44-15.49,23-24.79,36.3-.57.83-1.11,1.62-1.62,2.39-.12.17-.22.34-.33.51l-1.08,1.69-.49.83c-.25.41-.5.83-.73,1.23s-.36.65-.54,1l-.51.94-.52,1-.37.77c-.17.35-.31.7-.46,1s-.2.44-.29.66-.27.69-.39,1-.16.41-.23.61-.22.65-.32,1c0,.14-.1.29-.14.44v0a31.57,31.57,0,0,0-1.23,7.8c-3.65,7.77-4.46,16.49-3.6,29.76.88,13.72.44,29.67-.45,35.42-.4,2.59-.88,5.62-1.3,8.17l-.26.39c-.06.64-.1,1.31-.13,2L23.22,172l.47-.07c0,10.57,2.16,25.79,2.69,33.52.64,9.12-4.72,28.27-9.42,39s-14.13,43-14.76,59C1.77,314.46.89,322.2.38,326c-.1.24-.21.47-.32.72.05.26.08.51.11.76-.1.72-.17,1.11-.17,1.11l.29,0c.39,5.2-1.17,8.87,4.36,8.52,6.18-.4,3.95-5,8.44-2.77s7.3,2.28,18,2,12.36-2.9,10-6.56c-2.21-3.4-5.3.34-13.15-2.87a19.32,19.32,0,0,0,5.69-2.15s3.46-3.77-2.51-5-.62-2.84-3.77-10.68,0-34.86,1.57-41.14,6.6-4.08,10.37-10.05c3.26-5.15,9.78-28.31,15.14-42.42.85,1,1.71,2,2.56,3.07-.67,16.71-2.55,44.84-3.21,60.29-7.82,10.35-13.81,19.53-13.81,19.53H40l-.12.19a1.87,1.87,0,0,1,.27,0q-1.32,1.46-2.74,3.3c-5.35,6.94-1.2,7.46,3.18,11.71s4.37,1.73,8.66,7.28c1.09,1.4,2.09,3.05,3.21,4.75-.19,5-.32,8.4-.32,8.4s.48-.32,1.38-.82c.05,3.17.92,5,5.67,4.92,3.36-.09,4.95-1.15,6-2.2a26.61,26.61,0,0,0,5.46.89c2.34.15,4.37.28,6.14.37,4,1,9,1.17,18.68,1.32,14.68.23,17.15-3.33,14.08-8.48s-8,1-20.42-5.9a42.85,42.85,0,0,1-6-4.19c-.37-2-.83-4.45-1.3-7.28,1.62-5.7,4.49-14.77,7.63-23.35.5-.12.91-.26,1.38-.4a1.6,1.6,0,0,0,.79.29l.18,0a188.35,188.35,0,0,0,8.33,18.36c8.48,15.7,13.5,23.55,13.5,23.55l.06,0h0l.15,0,.08,0,.23,0,.13,0,.31,0h.19l.39,0h1.15c2.61,4.4,2.92,8.24,7.64,5.47,5.34-3.15,1.25-6.29,6.28-6.29s7.53-1.25,16.95-6.28,9.74-8.16,6-10.37c-3-1.72-4.2,1.39-9.61,2.81a4.3,4.3,0,0,0,1.13-1.86s-16.32-16.65-26.06-33.6c-5.81-10.13-10.49-18.45-13.33-25,6.56-12.19,13.35-25.65,12.47-30.32-1.22-6.56-8.73-40.77-14.54-55.9l1.1.17c3.82.67,5.9,1,6.83.6h0a.66.66,0,0,0,.19-.09h0l.13-.1,0,0a.44.44,0,0,0,.08-.11l0-.06,0-.1,0-.1a.44.44,0,0,1,0-.1s0-.09,0-.14v-.08a1.62,1.62,0,0,0,0-.21v0c-.14-1.18-1.19-3.22-2.49-6.41-1.38-3.35-1.84-12.69-1.83-23.41,7.8,9,16.78,15.61,23.65,15.85,4.18.15,7.07-.07,9-1a1.53,1.53,0,0,0,.25,1.67L158.87,173l.77-.85,17.68,15.95a1.53,1.53,0,0,0,.24,1.48l1.9,2,.75-.83,21.3,19.22c-9.44,1.89-13.43,3.09-18.74.6a20.19,20.19,0,0,0-8.25-1.4h-.12l-1.08.05h-.07c-.39,0-.79.07-1.18.12l-.22,0c-.31,0-.63.09-.94.15l-.29.06c-.34.06-.67.14-1,.22l-.13,0q-.56.15-1.08.33l-.29.1c-.25.09-.51.19-.76.3l-.33.14-.8.4-.19.1c-.3.17-.59.36-.88.56l-.28.21a6.26,6.26,0,0,0-.57.45l-.29.26c-.2.19-.4.39-.59.61l-.15.16a8.44,8.44,0,0,0-.61.83c-.07.1-.13.21-.2.32s-.24.43-.36.66-.11.23-.16.36a9.38,9.38,0,0,0-.35.93.88.88,0,0,0,0,.15,10,10,0,0,0-.26,1.17l-.06.4c0,.31-.07.63-.08.95,0,.14,0,.28,0,.42a14.08,14.08,0,0,0,0,1.44c1.13,13.34,8.63,18.23,8.63,18.23s4,5.79,48.72,13.49L215,259.24c-1.15-.36-2.21-.33-2.62.41l-1.07,1.94-3.77-1.34c-2.21-.79-4.63,5.85-2.42,6.64l2.71,1-7.62,13.76a26.09,26.09,0,1,0-10.38,50.94l.47.11.09-.05c.79.07,1.58.11,2.39.11s1.47,0,2.19-.09c.47.26.94.51,1.43.75l-.39.22c.37.05.75.08,1.13.12A27.75,27.75,0,0,0,233,321.68a95.91,95.91,0,0,0,15.68,1.87c26.59,1,38.9-25.28,33.58-27.27s-3,1-13.63,4.65c-9.87,3.39-23.72.49-34.7-3.92a27.88,27.88,0,0,0-9.31-11.28l5.56-9.91,2.72,1a1.37,1.37,0,0,0,1.32-.32l46.76,17a1.52,1.52,0,0,0,.87,1.16l2.56.92.22-.76,11.06,4a1.53,1.53,0,0,0,.86,1.48l4.24,1.55v4.79a16.07,16.07,0,1,0,7.07,4.68ZM182.33,184.36a1.31,1.31,0,0,0-1.45-.21l-17.64-15.94.4-.44L145.22,151c-.51-.46-1.27-.34-2.05.1.08-.23.15-.48.22-.73a15.91,15.91,0,0,0,3.79-2.54,1.25,1.25,0,0,0,.35,1.11L166,165.73v0l18.12,16.36a1.53,1.53,0,0,0,.25,1.5l1.88,2,.78-.86,24.54,22.16c-1.22.55-2.49,1.07-3.82,1.53l-23.9-21.59.42-.46Zm39.25,68.92c5.32.89,9.82,1.62,13.66,2.19l-4.44,8.16c-1-.23-1.85-.13-2.21.52l-1.68,3L218.09,264l.53-.94c.4-.73-.13-1.63-1-2.4Zm-3.24,29.14a27.56,27.56,0,0,0-9.48-1.76l5.76-10.39,8.78,3.14Z" fill="#525051" fill-rule="evenodd"/></svg>