<svg xmlns="http://www.w3.org/2000/svg" width="413" height="236.49" viewBox="0 0 413 236.49"><path d="M132.31,72.29c11.8,1.37,24.06,2.42,36.67,3.14a246,246,0,0,1,12.74-33.66A149.92,149.92,0,0,1,192.8,22a190.13,190.13,0,0,0-37,25.69,203.81,203.81,0,0,0-23.48,24.57m88.47-51.36a148,148,0,0,1,11.84,20.84,246.91,246.91,0,0,1,12.85,34c12.27-.56,24.29-1.42,35.9-2.56-17.17-22-37.69-39.75-60.59-52.31M176,75.8c11.31.53,22.9.8,34.68.8,9.32,0,18.59-.17,27.74-.51a235.52,235.52,0,0,0-11.7-30.52c-6-12.69-12.58-22.8-19.56-30.09-7,7.29-13.55,17.4-19.56,30.09A234.16,234.16,0,0,0,176,75.8M97.14,133.42c18.66,1.82,38.23,3.16,58.49,4a434.19,434.19,0,0,1,11.1-54.27c-13.81-.83-27.19-2-40-3.65a231.37,231.37,0,0,0-29.57,53.9M247.72,83.56a434.46,434.46,0,0,1,11,54.07c19.59-.74,38.69-1.91,56.9-3.49a240.3,240.3,0,0,0-18.11-37.26q-5.05-8.47-10.68-16.31c-12.6,1.33-25.72,2.34-39.13,3M162.4,137.7c15.34.56,31,.85,47,.85,14.32,0,28.55-.23,42.54-.69a419,419,0,0,0-11.22-54c-9.9.39-20,.59-30.05.59-12.58,0-24.94-.31-37-.91A420.28,420.28,0,0,0,162.4,137.7M80.32,223.46H73.59a258.64,258.64,0,0,1,13.74-83.15c-19.38-2.08-37.71-4.67-54.73-7.77l1-7.77c17.5,3.19,36.41,5.84,56.42,7.94a241.24,241.24,0,0,1,28.62-54.25c-15-2.11-29.22-4.75-42.39-7.9l1.35-7.7A452.83,452.83,0,0,0,124,71.26a213.58,213.58,0,0,1,27.76-29.82A193.59,193.59,0,0,1,204.1,8.18l.23-.23.07.1,2-.82,1.22,4.08L210,8l.23.22.29-.9c30.59,13.75,57.62,36,79.19,65.09a491,491,0,0,0,49.48-7.92l1.23,7.72c-13.89,3-29.22,5.55-45.51,7.5q4.23,6.18,8.14,12.72a249.87,249.87,0,0,1,19.71,41.12c20.15-1.88,39.13-4.28,56.4-7.14l.95,7.78c-16.79,2.78-35.17,5.13-54.66,7a249.59,249.59,0,0,1,12.88,80.24l-6.73,0a240.48,240.48,0,0,0-13.17-79.55c-18.74,1.67-38.42,2.9-58.64,3.67a577.69,577.69,0,0,1,4.47,72.16h-6.73a568.78,568.78,0,0,0-4.5-71.92c-14.34.48-28.93.72-43.61.72-16.35,0-32.41-.3-48.08-.88a567.38,567.38,0,0,0-4.53,72.07h-6.73a576.59,576.59,0,0,1,4.5-72.34c-20.9-.9-41.06-2.31-60.25-4.22a249.55,249.55,0,0,0-14,82.42" fill="#1d1d1b"/><path d="M413,236.49H399.54c0-58.94-20.07-114.36-56.5-156s-85-64.72-136.54-64.72S106.42,38.71,70,80.44,13.46,177.55,13.46,236.49H0c0-63.2,21.5-122.61,60.53-167.28S151.37,0,206.5,0s107,24.58,146,69.21S413,173.29,413,236.49" fill="#1d1d1b"/></svg>