<?xml version="1.0" encoding="utf-8"?>
<!-- Generator: Adobe Illustrator 25.2.1, SVG Export Plug-In . SVG Version: 6.00 Build 0)  -->
<svg version="1.1" id="Layer_1" xmlns="http://www.w3.org/2000/svg" xmlns:xlink="http://www.w3.org/1999/xlink" x="0px" y="0px"
	 viewBox="0 0 1813.2 682.2" style="enable-background:new 0 0 1813.2 682.2;" xml:space="preserve">
<style type="text/css">
	.st0{fill:#A2A2A2;}
	.st1{fill:#373A36;}
	.st2{fill:#868686;}
</style>
<polygon class="st0" points="708.8,585.4 708.8,225.8 795.9,225.8 795.9,586 "/>
<path class="st0" d="M705,226.4c-7.8,0-14.8-6.4-14.8-14.2v-21.7c0-1.8,1.5-3.3,3.3-3.3c0,0,0,0,0,0h116.3c1.8,0,3.3,1.5,3.3,3.3
	v21.7c0.2,7.7-5.9,14-13.6,14.2c-0.1,0-0.1,0-0.2,0H705z"/>
<path class="st0" d="M902.3,237.8h-0.7v-7.7c0-2.3-1.2-4.3-3.5-4.3h-11.3c-2.3,0-5.2,2-5.2,4.3v7.7c-15.1,0.5-25.3,12.8-25.3,28V586
	h70.5V265.8C926.8,250.2,917.9,237.8,902.3,237.8z"/>
<path class="st1" d="M817.2,431.8H817v-8.6h3c2.4,0,4.3-1.9,4.3-4.3s-1.9-4.3-4.3-4.3h-28.2c-2.4,0-4.3,1.9-4.3,4.3s1.9,4.3,4.3,4.3
	h4l0.3,8.6c-15.6,0-26.9,12.9-26.9,28.5v111.3c0,7.9,6.3,14.3,14.2,14.4h46.5c7.8,0,13.8-6.6,13.8-14.4V460.3
	C843.6,444.7,832.7,431.8,817.2,431.8z"/>
<path class="st1" d="M966.3,431.8H966v-8.6h3.1c2.4,0,4.3-1.9,4.3-4.3s-1.9-4.3-4.3-4.3H941c-2.4,0-4.3,1.9-4.3,4.3s1.9,4.3,4.3,4.3
	h3.8l0.4,8.6c-15.6,0-27,12.9-27,28.5v111.3c0.1,7.9,6.4,14.3,14.3,14.4H979c7.8,0,13.6-6.6,13.6-14.4V460.3
	C992.6,444.7,981.9,431.8,966.3,431.8z"/>
<path class="st1" d="M726.8,431.8L726.8,431.8v-8.6h2.8c2.4,0,4.3-1.9,4.3-4.3s-1.9-4.3-4.3-4.3h-28.2c-2.4,0-4.3,1.9-4.3,4.3
	s1.9,4.3,4.3,4.3h4.1l0.1,8.6c-15.6,0-27.4,12.9-27.4,28.5v111.3c0,7.8,6.9,14.4,14.7,14.4h46.5c7.8,0,13.9-6.6,13.9-14.4V460.3
	C753.3,444.7,742.3,431.8,726.8,431.8z"/>
<path class="st0" d="M1060.6,588.7H626.7c-1.5,0.2-2.8-0.9-2.9-2.4c-0.2-1.5,0.9-2.8,2.4-2.9c0.2,0,0.4,0,0.6,0h433.9
	c1.5-0.2,2.8,0.9,2.9,2.4s-0.9,2.8-2.4,2.9C1061,588.7,1060.8,588.7,1060.6,588.7L1060.6,588.7z"/>
<path class="st2" d="M595.1,301.1h-1.6v-6.3c0-1.9-2.6-3.5-7.7-3.5h-24.7c-5.1,0-11.3,1.6-11.3,3.5v6.3c-33,0.4-55.4,10.5-55.4,22.9
	v262H649V324C649,311.3,629.3,301.1,595.1,301.1z"/>
<path class="st0" d="M533.8,366.6h5.3v-277c0-7.4-8.2-14-17.5-14h-93.1V80h93.1c6.5,0,12.2,4.5,12.2,9.6V366.6z"/>
<path class="st0" d="M665.5,584.9h-5.3v-277c0-7.4,8.2-14,17.5-14h93.1v4.3h-93.1c-6.5,0-12.2,4.5-12.2,9.6V584.9z"/>
<path class="st0" d="M662.7,588.7H4.5C2,588.7,0,587.5,0,586s2-2.7,4.5-2.7h658.2c2.5,0,4.5,1.2,4.5,2.7S665.2,588.7,662.7,588.7z"
	/>
<polygon class="st0" points="435.7,586.9 330.4,586.5 332.3,27.6 437.6,28 "/>
<path class="st0" d="M453.3,19c0,10.5-4,19-8.8,19H323.5c-4.9,0-8.8-8.5-8.8-19l0,0c0-10.5,4-19,8.8-19h120.9
	C449.3,0,453.3,8.5,453.3,19L453.3,19z"/>
<path class="st0" d="M1376.6,561.5c0,6-4.8,10.8-10.8,10.8c0,0,0,0,0,0H995.5c-6,0-10.8-4.8-10.8-10.8c0,0,0,0,0,0l0,0
	c0-6,4.8-10.8,10.8-10.8h370.3C1371.8,550.7,1376.6,555.5,1376.6,561.5L1376.6,561.5z"/>
<rect x="1045.1" y="566.5" class="st0" width="18.5" height="20.2"/>
<path class="st0" d="M299,528.5c0,32-24.3,57.9-54.4,57.9H59.1c-30,0-54.3-25.9-54.3-57.9l0,0c0-32,24.3-57.9,54.3-57.9h185.6
	C274.7,470.6,299,496.6,299,528.5L299,528.5z"/>
<path class="st0" d="M198.4,465.9c0,2.6-2.1,4.8-4.8,4.8h-83.5c-2.6,0-4.7-2.1-4.7-4.8l0,0c0-2.6,2.1-4.7,4.7-4.8h83.5
	C196.3,461.1,198.4,463.3,198.4,465.9z"/>
<path class="st0" d="M1568.5,662.5c-1.9,3.7-6,5.3-9.2,3.7l-199.9-101.8c-3.2-1.6-4.3-6-2.4-9.7l0,0c1.9-3.7,6-5.3,9.2-3.7
	l199.9,101.8C1569.3,654.4,1570.4,658.8,1568.5,662.5z"/>
<path class="st0" d="M1813.2,660.2c0.1,4-3,7.4-7,7.5l-240.7,1.1c-4-0.1-7.1-3.5-7-7.5l0,0c-0.2-4,3-7.4,7-7.5c0,0,0,0,0,0
	l240.7-1.1C1810.2,652.8,1813.3,656.2,1813.2,660.2L1813.2,660.2z"/>
<polygon class="st0" points="1367.9,607.2 1356.3,601.7 1372,568.3 1383.6,573.8 "/>
<rect x="1459.1" y="623.6" transform="matrix(0.4264 -0.9045 0.9045 0.4264 275.5935 1694.5619)" class="st0" width="29.6" height="12.8"/>
<rect x="1534.8" y="659.6" transform="matrix(0.4264 -0.9045 0.9045 0.4264 286.4337 1783.6788)" class="st0" width="29.6" height="12.8"/>
</svg>
