<svg xmlns="http://www.w3.org/2000/svg" width="83" height="99.07" viewBox="0 0 83 99.07"><polygon points="3.16 5.98 0 31.35 83 31.35 80.48 5.98 76.57 5.98 76.62 0.05 67.17 0 67.12 5.98 3.16 5.98" fill="#00757c"/><polygon points="3.11 31.35 28.68 11.45 53 31.35 79.88 31.35 79.88 99.07 3.11 99.07 3.11 31.35" fill="#1a96bd"/><polygon points="72.65 26.98 58.73 26.98 58.73 16.83 65.46 10.3 72.65 16.73 72.65 26.98" fill="#00abb6"/><rect x="58.28" y="64.41" width="14.97" height="16.93" fill="#fff"/><rect x="9.74" y="64.41" width="14.97" height="16.93" fill="#fff"/><rect x="34.41" y="35.62" width="14.57" height="16.93" fill="#fff"/><rect x="58.28" y="35.62" width="14.97" height="16.93" fill="#fff"/><rect x="9.74" y="35.62" width="14.97" height="16.93" fill="#b9dfe4"/><rect x="32.91" y="69.63" width="17.18" height="29.44" fill="#00757c"/></svg>