<svg xmlns="http://www.w3.org/2000/svg" width="64.48" height="76.97" viewBox="0 0 64.48 76.97"><polygon points="2.46 4.64 0 24.35 64.48 24.35 62.53 4.64 59.49 4.64 59.53 0.03 52.19 0 52.15 4.64 2.46 4.64" fill="#00757c"/><polygon points="2.42 24.35 22.29 8.89 41.18 24.35 62.07 24.35 62.07 76.97 2.42 76.97 2.42 24.35" fill="#00abb6"/><polygon points="56.44 20.96 45.64 20.96 45.64 13.07 50.87 8 56.44 12.99 56.44 20.96" fill="#00abb6"/><rect x="45.28" y="50.04" width="11.63" height="13.15" fill="#fff"/><rect x="7.57" y="50.04" width="11.63" height="13.15" fill="#fff"/><rect x="26.74" y="27.67" width="11.32" height="13.15" fill="#fff"/><rect x="45.28" y="27.67" width="11.63" height="13.15" fill="#fff"/><rect x="7.57" y="27.67" width="11.63" height="13.15" fill="#b9dfe4"/><rect x="25.57" y="54.09" width="13.35" height="22.87" fill="#00757c"/></svg>