<svg xmlns="http://www.w3.org/2000/svg" width="88.13" height="197.25" viewBox="0 0 88.13 197.25"><path d="M87.82,190.44c-1.12-1.67-5.38-1.13-8.12-1.43h0c-.28,0-.53-.07-.77-.12h-.08a3.57,3.57,0,0,1-.65-.19L77,188.21l-.82-.33h0c-.88-.36-1.75-.74-2.57-1.17l.13-.13c1.36-1.2.76-2.11-1.66-3.32s-.3-1.66-2.27-4.38-3.47-3.33-2.27-6.51-.15-7.4-.45-11.79-1.51-5.44-.61-10.27-.14-10.44-1.51-12.56a3.51,3.51,0,0,1-.57-2.2,37.86,37.86,0,0,0,.46-8.9c.31-3,1.65-3.62,1.78-7.34.15-4.53-.3-10.43-2.12-14.66a52.93,52.93,0,0,1-2.17-6.93,19.55,19.55,0,0,0,2.49,1.69c2.1,1.12,3.09,3.79,2.66-.7s.28-12.19.28-13.87-.69-1.56-.82-4c.21-1.07.41-2.21.61-3.36a2.28,2.28,0,0,0,1.18.29,2.6,2.6,0,0,0,.48,0l.15,0,.37-.07h0c.84-.21,1.64-.68,1.64-1.19,0-.72.66-.83.61-1.82s.77-1.25.74-2.16-.58-1.08-.55-2a2.25,2.25,0,0,0-1.72-2.22c-1.22-.47-1.06-.42-1.82-.7h0l-.14,0c0,.28.11,1.22.11,1.5a4,4,0,0,1-.06.6h-.18c-.45-6.19-3.82-18-6.53-25.33-.05-.24-.09-.48-.14-.7-.45-2.06-.41-4.74-1.44-7.37l.16.09c1.48.83,2.17,1.87,2.44,1.3l0,0a8.61,8.61,0,0,0,2,.62c2,.34,1.52-1.82,1.44-3.52A3.27,3.27,0,0,0,64,31.62a19.34,19.34,0,0,1-4.7-2.76c1.54-.26,1.49-1.12,2.37-2.7a19.92,19.92,0,0,0,2-7.5c0-.93.25-2.06.4-3.21h0l.28-.14.06,0,.25-.17.08-.07.25-.23.09-.09a3.48,3.48,0,0,0,.24-.28l.08-.09h0c1-1.3,1.71-3.62.16-6.71C63.36,3.11,61,.33,55.76,0c-4.08.22-8.47,3-9.22,6.76a66.25,66.25,0,0,0-.75,13.07,1.91,1.91,0,0,0,.07.36v.2c-.67,1.15-1.2,2.38-1.73,3.24A9.5,9.5,0,0,0,43,27l-.17,0c-1,1.36-3.31,4.75-5.67,8.57l-.2-.05c.07-2.84-.9-7-1.13-8.41-.31-1.84-1.23-.82-2.2-.62s-1.17.82-1.83,2.86a12,12,0,0,0-.23,5.2c-2.42-.22-4.81,0-6.58,1.3-.3.22-.58.41-.86.6L24,36.5c-.23.15-.45.28-.66.4-2.82,1.62-4.75,1.6-6.53,3.25-2.1,2-4.14,4.76-3.57,10.93s.55,8.13-.95,8.13-.09,2.94,1.11,5.77.45,3.91,1.51,5.72.19,2.7.5,5.41c.23,2.11.25,4.22.32,5.69,0,.14,0,.27,0,.4a1.09,1.09,0,0,1,0,.18c0,.18,0,.36.05.51.14,1.28,7,1.12,14,.59-.46,2.5-.49,4.68,1.54,4.86,3.08.28,4.2.84,3.08,2.24S32,93.68,34,94.3a9.41,9.41,0,0,0-.28,2.89,7.7,7.7,0,0,0,1.11,5.47c.45,1.1,1,2.21,1.51,3.21-.05-.31-.11-.65-.17-1a19.24,19.24,0,0,1,.94,2.49l-.77-1.48a5.21,5.21,0,0,0,1.1,2.6c.6,2.13,1.08,4.21,2.19,5.7,2.11,2.87,1.06,12.55,2.41,15.42s.61,5-.9,5.14-3.48,2-5,3.63-8.92,9.37-12.55,12.39-6.95,5.14-7.86,6.81A10.66,10.66,0,0,1,10,161.64c-2,.46-4.69,3-5.75,3.33a.51.51,0,0,0-.44.63c-2.09.49-4,1.1-3.76,2.63a27.47,27.47,0,0,0,2.85,7.18c.68.81.94,4.61,3.52,8.67s6,8.53,7.45,9.35a2.11,2.11,0,0,0,3-2.58c-.54-2.16-1.9-6.64-1.08-9.35a18.52,18.52,0,0,0,.5-2.32c.78-.09.09-1.14,1.29-2.57a16.29,16.29,0,0,1,5.89-4.69c3.18-1.67,21.77-16.93,23.28-19.2a11,11,0,0,1,3-3.17s.31,5.63.82,11.23h0c.26,2.87.56,5.72.91,7.81,0,.21.07.41.1.61,1.06,5.89,3.48,23,3.93,24.64a.71.71,0,0,0,.15.3l.05.05a1.75,1.75,0,0,0,.24.23l.09.06.21.13c-.07,1.27.06,2.61,1.13,2.61,1.62,0,8.26-.13,12-.13s7.86.81,12.19-1.22S89.17,192.48,87.82,190.44ZM67,80.07c0,.26,0,.5,0,.71C67,80.56,67,80.33,67,80.07ZM33.77,29.87c.1-1.94.3-1.63.76-2.39s1,1,1,2.18-.72,3.41-1,5.28l-.39-.08C34,33.17,33.7,31.17,33.77,29.87Z" fill="#373a36" fill-rule="evenodd"/></svg>