<svg xmlns="http://www.w3.org/2000/svg" width="91.71" height="92.65" viewBox="0 0 91.71 92.65"><path d="M33.9,55.68s-2,2.7-2.7,3c0,0,2.46,2.93,4.92,3.69a18.85,18.85,0,0,1,1.05-3.69c.56-.95-3.27-3-3.27-3" fill="#f4f3e7"/><path d="M42.61,70.83l.33-1.23-2.56-2.13-2.74-5.78-1.14-.57a5.81,5.81,0,0,1-2.65-.76,19.21,19.21,0,0,1-2.32-2.65l-.52.1-1.47,1a11.37,11.37,0,0,0-.66,1.56,1.14,1.14,0,0,0-.47-.19l-1.38,2,5,3.27.57-.76,3.6,3.27,6.2,3.83.33-.8Z" fill="#1c1c1b"/><path d="M73.15,57.81A16.24,16.24,0,1,0,89.39,74.05,16.26,16.26,0,0,0,73.15,57.81m0,34A17.76,17.76,0,1,1,90.9,74.09,17.77,17.77,0,0,1,73.15,91.85" fill="#fff"/><polygon points="33.05 41.95 45.31 45.4 41.19 49.1 33.42 56.29 38.63 59.98 52.88 47.25 53.26 42.89 41.57 32.52 38.35 32.52 33.05 41.95" fill="#1c1c1b"/><path d="M18.56,57.81A16.24,16.24,0,1,0,34.8,74.05,16.31,16.31,0,0,0,18.56,57.81m0,34A17.76,17.76,0,1,1,36.31,74.09,17.77,17.77,0,0,1,18.56,91.85" fill="#fff"/><path d="M18.56,55.53A18.56,18.56,0,1,0,37.12,74.09,18.57,18.57,0,0,0,18.56,55.53m0,1.09A17.47,17.47,0,1,1,1.09,74.09,17.49,17.49,0,0,1,18.56,56.62" fill="#1c1c1b"/><path d="M73.15,55.53A18.56,18.56,0,1,0,91.71,74.09,18.56,18.56,0,0,0,73.15,55.53m0,1.09A17.47,17.47,0,1,1,55.68,74.09,17.49,17.49,0,0,1,73.15,56.62" fill="#1c1c1b"/><path d="M33.85,49c-.8-3.22-1.75-6.34-2.56-9.56a.83.83,0,0,0-1.61.42c.81,3.22,1.76,6.35,2.56,9.57.24,1.09,1.85.61,1.61-.43" fill="#919191"/><path d="M61,55.77c-4.41,4.45-12.45,12.5-19.56,19.79-1.46-5-5.91-20.21-7.29-25.09H63.3c.28.76.57,1.47.85,2.22-.57.52-1.66,1.66-3.12,3.08m-20.74,21c-7-.61-14-1.32-21-1.89,4.45-8.09,9-16.1,13.4-24.19,1.42,4.83,6.44,22.06,7.62,26.08m34.42-1.65S69,60.22,66.09,52.84c0-.05,0-.1,0-.15a.17.17,0,0,0,0-.14c-.38-1-1.19-3-1.19-3L64.34,49l0-.23c-.8-2-1.56-4-2.36-6.06,1.32,0,3.59.19,3.59.19V41.43l-4.59-.15-.61.81a.67.67,0,0,0,.09.19s1.75,4.5,2.65,6.72h-30a.39.39,0,0,0-.48.19c-4.73,8.62-14.25,25.66-14.25,25.66l.52.76s15,1.37,22.44,2c.24,0,.38-.09.43-.28,7.34-7.48,15.86-16,20.45-20.64l3-3c2.84,7.19,8.56,21.73,8.56,21.73Z" fill="#1c1c1b"/><path d="M41,76.51a.62.62,0,0,0-.61.61.63.63,0,0,0,.61.62.64.64,0,0,0,.62-.62.63.63,0,0,0-.62-.61m0,2.13a1.52,1.52,0,1,1,1.52-1.52A1.53,1.53,0,0,1,41,78.64" fill="#fff"/><path d="M49.33,8.14A.38.38,0,0,1,49.38,8c.14-.8.9-4.73,2.23-6,2.22-2.18,6.15-2.27,9,2.22-.38,1.76-1,4.17-1,4.17l-1.23.28,0,2-.8.1L55,13.45l-2.47-1.9-1.08.85-2.8-3.59Z" fill="#f4f3e7"/><polygon points="52.65 6.68 53.26 7.01 55.87 4.78 59.09 5.92 61.07 4.97 57.52 0 52.27 0.14 49.62 2.7 49.24 6.49 50.04 7.91 51.65 8.1 51.65 7.62 50.66 6.34 50.85 4.97 52.08 4.54 52.65 6.68" fill="#1c1c1b"/><path d="M65.48,51.13h-1V49.71h1a3.41,3.41,0,1,0,0-6.82V41.47a4.83,4.83,0,0,1,0,9.66" fill="#1c1c1b"/><path d="M40.86,71.77a5.31,5.31,0,1,0,5.3,5.31,5.29,5.29,0,0,0-5.3-5.31m0,11.56a6.21,6.21,0,1,1,6.2-6.21,6.23,6.23,0,0,1-6.2,6.21" fill="#1c1c1b"/><path d="M33.8,74.76s.05,3.36-.38,4c0,0,3.75.85,6.16,0a15.67,15.67,0,0,1-1.37-3.6c-.15-1.09-4.41-.42-4.41-.42" fill="#f4f3e7"/><path d="M23.15,35.51l5.68,9L33,52.74V64.1l.42,11.18,5.4.38S40.15,55.53,40,51.27c-.1-3.26-3.7-19.08-3.7-19.08l-11.6-1.27Z" fill="#1c1c1b"/><polygon points="48.53 85.31 48.39 84.08 45.21 83.04 40.53 78.64 39.3 78.54 36.55 78.83 33.38 77.22 33 77.5 31.96 78.97 31.91 80.67 31.77 80.67 31.44 82.24 36.83 83.85 36.98 83.28 41.52 84.98 48.67 86.21 48.67 85.36 48.53 85.31" fill="#1c1c1b"/><path d="M61,38.3l1,2.42,2,2.41,2,.19,2.79-1.61a1.71,1.71,0,0,0,0-1.23A16.17,16.17,0,0,0,67.65,39s-2.36-.38-2.65-.38a3.72,3.72,0,0,1-1.94-.85c-.28-.43-1.65-.43-1.65-.43Z" fill="#f4f3e7"/><polygon points="60.27 38.96 60.79 39.53 63.63 37.5 62.73 36.69 60.27 38.96" fill="#e3e2e2"/><polygon points="53.83 25.9 52.03 21.07 51.27 14.06 51.98 11.84 47.77 7.67 46.3 9.09 44.08 8.9 22.16 31.67 22.11 36.83 38.92 41.95 38.92 36.12 47.39 27.84 60.51 39.39 63.63 37.21 53.83 25.9" fill="#1c1c1b"/></svg>